<?xml version="1.0" encoding="UTF-8" standalone="no"?>
<!-- Created with Inkscape (http://www.inkscape.org/) -->

<svg
   width="116mm"
   height="83.352997mm"
   viewBox="0 0 116 83.352997"
   version="1.1"
   id="svg1"
   xml:space="preserve"
   inkscape:version="1.4.3 (0d15f75, 2025-12-25)"
   sodipodi:docname="faces.svg"
   xmlns:inkscape="http://www.inkscape.org/namespaces/inkscape"
   xmlns:sodipodi="http://sodipodi.sourceforge.net/DTD/sodipodi-0.dtd"
   xmlns="http://www.w3.org/2000/svg"
   xmlns:svg="http://www.w3.org/2000/svg"><sodipodi:namedview
     id="namedview1"
     pagecolor="#ffffff"
     bordercolor="#000000"
     borderopacity="0.25"
     inkscape:showpageshadow="2"
     inkscape:pageopacity="0.0"
     inkscape:pagecheckerboard="0"
     inkscape:deskcolor="#d1d1d1"
     inkscape:document-units="mm"
     inkscape:zoom="2.0334082"
     inkscape:cx="343.75784"
     inkscape:cy="652.84483"
     inkscape:window-width="1920"
     inkscape:window-height="1009"
     inkscape:window-x="-8"
     inkscape:window-y="-8"
     inkscape:window-maximized="1"
     inkscape:current-layer="layer1"><inkscape:page
       x="0"
       y="0"
       width="116"
       height="83.352997"
       id="page2"
       margin="0"
       bleed="0" /></sodipodi:namedview><defs
     id="defs1" /><g
     inkscape:label="Layer 1"
     inkscape:groupmode="layer"
     id="layer1"
     transform="translate(58.8,-94.000006)"><rect
       style="fill:none;fill-opacity:0.761671;stroke:none;stroke-width:0.0430899;stroke-linejoin:bevel;stroke-dasharray:none"
       id="rect1"
       width="116"
       height="82.952599"
       x="-58.799999"
       y="94" /><path
       style="fill:none;fill-opacity:0.761671;stroke:#9c9c9c;stroke-width:0.845;stroke-linejoin:bevel;stroke-dasharray:none;stroke-opacity:1"
       d="m 38.797955,176.85299 c 0,0 11.186339,-10.79271 11.117929,-29.23201 -0.06841,-18.43927 -15.424696,-47.921627 -42.469516,-48.313438 -25.43145,-0.368435 -57.806615,24.605988 -60.999206,40.352698 -3.192591,15.74672 2.716511,21.40139 0.946771,27.5881 -1.769739,6.18669 -4.057595,9.88227 -4.057595,9.88227"
       id="path1"
       sodipodi:nodetypes="czszzc" /><path
       d="m 8.6045772,175.07346 c 1.14324,-0.91026 3.2229698,-3.03146 4.6216098,-4.71377 1.54311,-1.85607 2.71827,-3.70955 2.98877,-4.71392 0.24518,-0.91036 0.37644,-3.38231 0.2917,-5.49326 -0.1263,-3.14496 -0.34882,-4.2361 -1.23241,-6.0421 -0.66573,-1.36071 -1.56335,-2.49053 -2.34593,-2.95281 -0.90678,-0.53565 -1.72689,-0.6872 -2.88112,-0.53237 -0.8874198,0.11899 -2.5444498,0.79448 -3.6822798,1.50101 -1.62883,1.01143 -1.89754,1.09466 -1.26357,0.39138 0.44286,-0.49129 1.69819,-1.34607 2.78965,-1.89955 1.51915,-0.77035 2.3684798,-0.9548 3.6222098,-0.78664 1.2335,0.16546 2.005,0.61341 3.1257,1.81485 0.96346,1.03288 1.72616,2.41448 2.16364,3.91936 0.51084,1.75722 0.63214,3.36293 0.4973,6.58236 -0.10256,2.44762 -0.40766,4.68612 -0.71763,5.26466 -0.29661,0.55357 -1.55179,2.15177 -2.7893,3.55156 -1.23752,1.39978 -2.79167,3.03029 -3.45366,3.62336 -0.6619898,0.59305 -1.8395898,1.72022 -2.6168798,2.5048 -0.77728,0.78458 -0.26105,-1.10864 0.8822,-2.01892 z m -10.4480198,0.50445 c -0.27678,-0.0992 -0.50324,-0.51916 -0.50324,-0.93313 0,-0.41399 0.20811,-1.20945 0.46246,-1.7677 0.2897198,-0.63586 1.13051979,-1.27013 2.25087979,-1.69799 1.62176001,-0.61937 1.76802001,-0.78495 1.56960001,-1.777 -0.14806,-0.74057 0.003,-1.2839 0.46665,-1.68182 0.37701,-0.3233 1.00231,-0.70017 1.38956,-0.83752 0.38725,-0.13725 1.11192,-0.0858 1.61038,0.11458 l 0.90629,0.36426 -1.20779,0.0316 c -0.66429,0.0175 -1.42075,0.16714 -1.68104,0.33269 -0.26029,0.16555 -0.53205,1.02332 -0.6039,1.90617 l -0.13071,1.60516 -1.61039,0.51747 c -0.88571001,0.28462 -1.83684001,0.81746 -2.11363,1.1841 -0.27678,0.36663 -0.50324,0.90372 -0.50324,1.19354 0,0.28982 0.19508,0.52695 0.43354,0.52695 0.23843999,0 1.44551999,-0.72467 2.68241,-1.61039 1.50817,-1.07997 2.67597,-1.61038 3.54557,-1.61038 1.00058,0 1.62686,-0.36545 2.74242,-1.60023 0.79514,-0.88013 1.56376,-2.07056 1.70804,-2.64541 0.14425,-0.57486 -0.0315,-2.23565 -0.39053,-3.69067 -0.35905,-1.45502 -0.85702,-2.89152 -1.10658,-3.19222 -0.24956,-0.30072 -0.75768,-0.54675 -1.12914,-0.54675 -0.37145,0 -0.89278,0.21741 -1.15848,0.48311 -0.36709,0.36711 -0.48312,0.36895 -0.48312,0.008 0,-0.26149 0.45252,-0.58902 1.00558,-0.72782 0.55308,-0.13877 1.26719,-0.15201 1.58693,-0.0294 0.31974,0.12264 0.86838,0.66113 1.21919,1.19654 0.35081,0.53542 0.83375,2.08574 1.0732098,3.44518 0.23946,1.35944 0.32173,2.92453 0.18282,3.47799 -0.13892,0.55346 -1.0331598,1.82097 -1.9872298,2.81669 -1.36691,1.42658 -2.0153,1.81043 -3.05821,1.81043 -0.86411,0 -1.97106,0.46997 -3.18912,1.354 -1.02609,0.74469 -2.22796001,1.53547 -2.67081001,1.75727 -0.44285,0.22181 -1.03165999,0.32209 -1.30843979,0.22283 z m 12.8397896,-5.15356 c 1.02796,-1.10286 2.16026,-2.58501 2.51621,-3.29365 0.40775,-0.81175 0.64461,-2.30127 0.64021,-4.02597 -0.005,-1.50563 -0.27042,-3.98088 -0.5924,-5.50057 -0.32197,-1.51969 -0.79394,-3.01432 -1.04879,-3.32141 -0.25487,-0.3071 -1.0843,-0.55836 -1.84317,-0.55836 -0.7588798,0 -1.8955998,0.26674 -2.5260198,0.59273 -0.68759,0.35557 -1.56557,1.43428 -2.19428,2.69594 -0.77507,1.55538 -1.04807,2.72559 -1.04807,4.49283 0,1.75642 0.23375,2.76786 0.88209,3.8169 0.48515,0.78497 0.66373,1.29228 0.39684,1.12734 -0.26688,-0.16495 -0.86669,-1.04759 -1.3329,-1.96145 -0.6751,-1.32329 -0.8015,-2.10888 -0.62088,-3.85883 0.12477,-1.20851 0.64576,-3.01145 1.15786,-4.00653 0.51209,-0.99509 1.40747,-2.16495 1.98972,-2.59966 0.58226,-0.43473 1.86181,-0.88093 2.8434398,-0.99158 1.31993,-0.14881 1.95708,-0.0289 2.44639,0.46046 0.36389,0.3639 0.86693,1.33489 1.11786,2.15777 0.25091,0.82287 0.55104,3.50161 0.66694,5.95275 0.17065,3.60926 0.0886,4.68092 -0.43162,5.63635 -0.35328,0.64885 -1.06671,1.63265 -1.58538,2.18622 -0.51868,0.55358 -1.47406,1.45592 -2.12306,2.00521 -0.6490198,0.5493 -0.3389698,0.0963 0.68901,-1.00649 z"
       style="fill:#000000;fill-opacity:0.189189;stroke-width:1.52162"
       id="path1-8"
       sodipodi:nodetypes="ssscsscsssssscssssscsssccccccsccssssssssssssscsssssssscccscssssssssscsssssssssc" /><path
       d="m -43.096194,170.49601 c -0.03,-1.04072 -0.15376,-2.61689 -0.27491,-3.50259 -0.12113,-0.88571 -0.49193,-2.33505 -0.82395,-3.22078 -0.33202,-0.8857 -0.5051,-2.02037 -0.38465,-2.52148 0.17864,-0.74316 -0.0107,-0.9911 -1.02588,-1.34508 -1.09923,-0.38319 -1.17514,-0.50369 -0.64885,-1.02997 0.32781,-0.3278 0.59601,-0.76425 0.59601,-0.96985 0,-0.20562 0.34136,-0.37385 0.75857,-0.37385 0.41722,0 2.18361,0.72373 3.92532,1.60826 1.74171,0.88455 3.80083,2.16778 4.57582,2.85165 l 1.40908,1.24336 -1.90189,-1.25341 c -1.04604,-0.68937 -3.03889,-1.7913 -4.42854,-2.44871 -1.38967,-0.65743 -2.84372,-1.19547 -3.23121,-1.19563 -0.3875,-1.9e-4 -0.70455,0.27142 -0.70455,0.60356 0,0.3567 0.37079,0.60552 0.90584,0.60783 0.49821,0.002 1.90168,0.46747 3.11881,1.034 1.21713,0.56653 2.48531,1.27587 2.81817,1.5763 0.33287,0.30044 1.68156,1.19391 2.99709,1.98549 1.31555,0.79158 2.12793,1.43922 1.8053,1.43922 -0.32263,0 -1.85191,-0.7453 -3.39838,-1.65624 -1.54648,-0.91093 -3.59676,-1.99795 -4.55619,-2.41557 -0.95943,-0.41764 -1.81998,-0.75934 -1.91233,-0.75934 -0.0924,0 -0.16793,0.68437 -0.16793,1.5208 0,0.83645 0.26927,1.90523 0.59837,2.37509 l 0.59836,0.85427 2.48079,-0.7721 c 1.36444,-0.42467 2.57472,-0.67819 2.6895,-0.5634 0.11473,0.11473 0.10469,0.31269 -0.0224,0.43978 -0.12706,0.12706 -1.28959,0.66131 -2.58332,1.18717 l -2.35226,0.9561 -0.0224,2.43839 c -0.0122,1.34113 -0.19346,2.60953 -0.40259,2.81867 -0.23862,0.23861 -0.40062,-0.32459 -0.43491,-1.51194 z m 1.86633,-14.64811 c -3.61124,-1.64964 -5.97544,-2.49283 -7.04543,-2.51276 -1.37776,-0.0257 -1.4794,2.47108 -1.00277,3.29789 l 0.86663,1.50328 -1.24037,-1.39388 c -0.76028,-0.85438 1.36068,-4.48664 3.00314,-4.14228 1.2396,0.26002 4.08441,1.52033 6.61504,2.93062 2.44206,1.36092 4.44011,2.54917 4.44011,2.64054 0,0.0914 -0.0453,0.16458 -0.10058,0.16268 -0.0554,-0.002 -2.54642,-1.12072 -5.5357,-2.48624 z"
       style="fill:#000000;fill-opacity:0.189189;stroke-width:1.52162"
       id="path1-4" /></g></svg>
