<?xml version="1.0" encoding="UTF-8"?>
<!-- Created with Inkscape (http://www.inkscape.org/) -->
<svg id="svg1"  inkscape:version="1.4.2 (f4327f4, 2025-05-13)" sodipodi:docname="brain_id_opt_3.svg" version="1.1" viewBox="0 0 210 297" xmlns="http://www.w3.org/2000/svg" xmlns:inkscape="http://www.inkscape.org/namespaces/inkscape" xmlns:sodipodi="http://sodipodi.sourceforge.net/DTD/sodipodi-0.dtd">
 <sodipodi:namedview id="namedview1" bordercolor="#000000" borderopacity="0.25" inkscape:current-layer="layer1" inkscape:cx="-623.5836" inkscape:cy="1162.5802" inkscape:deskcolor="#d1d1d1" inkscape:document-units="mm" inkscape:pagecheckerboard="0" inkscape:pageopacity="0.0" inkscape:showpageshadow="2" inkscape:window-height="1009" inkscape:window-maximized="1" inkscape:window-width="1920" inkscape:window-x="-8" inkscape:window-y="-8" inkscape:zoom="0.25417602" pagecolor="#ffffff"/>
 <g id="layer1" stroke-linejoin="round" inkscape:groupmode="layer" inkscape:label="Calque 1">
  <g id="g2" fill="#a85252" stroke="#3e3e3e" stroke-width=".29104">
   <rect id="rect1" x="29.81" y="43.428" width="20.242" height="27.234"/>
   <rect id="rect2" x="58.885" y="63.669" width="20.242" height="27.234"/>
  </g>
  <g id="g42" transform="translate(-459.3 -78.758)" fill-rule="evenodd" stroke="#818480" stroke-linecap="round" stroke-width="1.3">
   <g fill="#038103" fill-opacity="0">
    <path id="path1" class="leaflet-interactive" d="m391 478 14 16 5 14h6l3-3v-4l-1-6-3-5 1-10-2-4-4-3 5 6-2 4-10-8v-6l-11 5-1 2z"/>
    <path id="path2" class="leaflet-interactive" d="m440 484-10 4-4 4-7 3-1 11-7 3 5 43 6 14v10l4 4-1 15h2l6-5 10 2 17-1 13-7 7-7 6-12-2-15-2-2v-16l-5-8-4-16-15-15-4-1-5-7-8-1z" inkscape:label="Cerebellum"/>
    <path id="path3" class="leaflet-interactive" d="m327 318h-8l-6 2-15-1-10 2-13 5-3 4-28 9-8 7-2 8h-4l-5 5-3 7-7 7-1 5-8 9-6 16 1 5-2 10 3 5-1 12 4 14 3 3v2l9 9 4 7h2l9 8 5 1 11 6 13 4 19 3 13-1 9-3 4-2 8-8 4-8v-10l-4-12-7-7-17-6-9-6-4-4v-8l17-17 12-6 10-3 26-2 24 6 15 7 10 8h2l25 21 6 20v14l-9 9 1 19 3 3 8-6 12-6 12 2v2l4 4 4 1 5 5v2l9 8 4 16 4 4 2 22 5 7 8 2 10-10 3-7 8-10 3-9v-6l5-7 4-14-2-36-5-16-6-12 1-5-2-12-8-17-6-8-13-11h-2l-9-7-9-3v-4l-6-8-14-7-9-1-5-6-20-11h-14l-9-9-8-2-25-1-9 1-4 2-6-4z"/>
    <path id="path4" class="leaflet-interactive" d="m292 491-8 2 1 15 3 6 5 5 6 12 5 5 16 6h10l5-1 17-10-1-3-6-3 7-5 1-5 5-6-5-15-2-2-15 3-9-3-5 1v-2l-3 3v2l8 6v4l-11 3-4-4v-2l6-6 1-3-2-3-13 7-7-1v-4l-4-2z" inkscape:label="Cerebrum"/>
    <path id="path5" class="leaflet-interactive" d="m374 478-27 3-11 6h-14l-1 3 1 3 5-1 4 2 9 1 8-2 5-5h2l-3 3v2l2 2v4l4 10 9 1 12 5h6l7 5 5 11 1 13-7 21-5 6-3 1v8l4 8 12 14 3 7 3 15 15-3 3-1-1-23 4-6v-12l-4-2v-10l-9-23-1-17-3-12-7-19-17-17z"/>
    <path id="path6" class="leaflet-interactive" d="m358 509-4 4-2 5v12l4 14 7 13 11 11 6 3h6l4-4 7-18 1-13-2-8-4-8-4-4-8-1-13-5z"/>
    <path id="path7" class="leaflet-interactive" d="m331 456 9 6 30 14h20l3-3 10-4-1-2 3-2-2-4-1-9-8-15-4-3-9-2-9-1-21 4-13 7-6 10z"/>
    <path id="path8" class="leaflet-interactive" d="m387 433-1 1-15-3-15 2-17 8-4 4-4 8-7-4-1-3 9-10 25-11h17l7 3 4 4z" inkscape:label="Fornix_of_Brain"/>
   </g>
   <path id="path9" class="leaflet-interactive" d="m365 487v2l-6 5h-4l-8-4 4-4 13 1z" fill="#c31700" fill-opacity=".026895"/>
   <g fill="#038103" fill-opacity="0">
    <path id="path10" class="leaflet-interactive" d="m323 487 9 1 13-6 22-4h9l10 2 11 10 6 8 5 15 9 49 1-3 4 9v9l4 4-1 13-3 2 1 24-19 4-3-17-17-25v-11l-12-5-11-13-4-7-5-16v-12l6-9-5-16h8l4-5-2-2h-12l-4 3 2 3 4 1-4-1-8 3-14-3-5 1v-4z"/>
    <path id="path11" class="leaflet-interactive" d="m330 461-4 5h-5v-4l-6-17 1-1 10 8 3 7 2 1z" inkscape:label="Anterior_Commissure_of_Brain"/>
    <path id="path12" class="leaflet-interactive" d="m390 478-4 2 17 18 8 25 1-9-4-13-7-13-11-11z" inkscape:label="Cerebral_Aqueduct"/>
    <path id="path13" class="leaflet-interactive" d="m414 514-3 3v8l2 6v12l3 11-1-39z" inkscape:label="Choroid_Plexus"/>
    <path id="path14" class="leaflet-interactive" d="m366 431-21 6-7 5-2 4 17-10 17-3 13 3 13 9h2l-3-7-7-5-3 1-11-3z"/>
    <path id="path15" class="leaflet-interactive" d="m339 372-30 8-2 3-7 1-22 9h-6l-2 5-11 11v6l6 14 8 8 12 4v-2l3-3h2l-12-9-2-6 1-5 14-15 16-8 21-4h16l17 3 12 5 8 6 4 1 12 10 12 6 10 12 7 24-2 11-3 5h8l7-2 3-3v-10l-7-27-6-8-1-5-14-17-6-2-16-15-5 1-18-8z" inkscape:label="Cingulate_Gyrus"/>
    <path id="path16" d="m336 369-34 11-2 2h-4l-5 4-20 5-5 8-5 5h-2l-3 5 1 10 6 12 9 9 12 4-2-4-10-4-6-6-6-13-1-7 11-11 2-6h6l9-4h4l2-2 14-4 3-3 8-3 17-3 4-2 26 4 19 8h6l13 13 9 4 4 4 13 20 6 15 4 26-4 4-16 2v2h12l6-2 5-5v-4l-2-2v-8l-6-23-6-12-14-15-2-6h-4l-14-13h-2l-1-3h-6l-33-11-1 1z" inkscape:label="Cingulate_Sulcus"/>
    <path id="path17" class="leaflet-interactive" d="m331 392-19 3-17 7-14 12-2 4 1 7 10 8 21 6 2-4-5-10v-6l7-7 12-5 19 1 9 3 9 6 5 1 17 15 7 3 6 10 5 19 7 8 5-1 3-3 2-6-1-19-3-7-13-15-22-15-17-9-17-5z"/>
    <path id="path18" class="leaflet-interactive" d="m332 461 3-1 8 8 10 4 8 1 8 4h18l-2 2-15-1-20-5-13-7z" inkscape:label="Hypothalamic_Sulcus"/>
    <path id="path19" class="leaflet-interactive" d="m332 460v12l-5 5v2l-3 3 1 3-2 2h12l12-6 22-3-4-4-12-2-10-4-3-3h-2l-2-4-3-1z" inkscape:label="Hypothalamus"/>
    <path id="path20" class="leaflet-interactive" d="m403 491 5 9 2 8 6-1 3-4v-4l-4-9-4-2-7 2z"/>
    <path id="path21" class="leaflet-interactive" d="m366 452-2 2 1 3 4-2v-2z" inkscape:label="Interthalamic_Adhesion"/>
    <path id="path22" class="leaflet-interactive" d="m323 465-2 1v4l-5 9 3 1 3-4 4-9z" inkscape:label="Lamina_Terminalis"/>
    <path id="path23" class="leaflet-interactive" d="m315 479-8 9 1 3 11 1 3-3 2-3-5 1-2-2-1-6z" inkscape:label="Optic_Chiasm"/>
    <path id="path24" class="leaflet-interactive" d="m325 483v2z"/>
    <path id="path25" class="leaflet-interactive" d="m482 472 9 13 10 9v36l11 9 6-10 11-33-2-35-2-8-8-16-3-1-14 8-7 6-6 6-3 12z" inkscape:label="Cuneus"/>
    <path id="path26" class="leaflet-interactive" d="m329 462-3 3-1 5-6 11 5 1 8-10v-6l-3-5z" inkscape:label="Optic_Recess"/>
    <path id="path27" class="leaflet-interactive" d="m314 445 4 16v8l-4 9-8 8 1 1 11-11 3-7v-8l-4-12z" inkscape:label="Paraterminal_Gyrus"/>
    <path id="path28" class="leaflet-interactive" d="m515 434-23 13-8 8-2 12-2 5-3 1 2 2 5-5 3-15 9-8 6-2 11-8h4v-2z" inkscape:label="Parietooccipital_Sulcus"/>
    <path id="path29" class="leaflet-interactive" d="m384 458-12 14v4l2 2h16l1-13-1-3-5-4z" inkscape:label="Posterior_Commissure_of_Brain"/>
    <path id="path30" class="leaflet-interactive" d="m403 469 7 3 2 4 3 2v2l-3 3-6-5-3-6z" inkscape:label="Pineal_Gland"/>
    <path id="path31" class="leaflet-interactive" d="m318 492v4l-5 5-1 3 1 3 4 2 8-2 2-2-1-4-6-4-1-5z" inkscape:label="Pituitary_Gland"/>
    <path id="path32" class="leaflet-interactive" d="m409 397 23 28 9 30v13l-13 6-11-1-2 7 1 6 14 2 10-4 9 1 17-10 12-3 5-4 1-10 10-11 20-12 4 2-2-5 1-5-5-19-12-19-10-8-17-10-6-2-25 13-6 7-7 5-10 4h-5z" inkscape:label="Precuneus"/>
    <path id="path33" class="leaflet-interactive" d="m431 272-11 3-13 11v10l5 9 1 7 3 5h4l24-12 3-3 20-7 25-1 7 3 1-1-11-9-5-1-7-5-18-8z" inkscape:label="Septum_Pellucidum"/>
    <path id="path34" class="leaflet-interactive" d="m334 389-23 3-15 6-18 16-1 11 2 4 5 4 14 5 2 2 13 3-2-4-14-3-11-5-7-7 1-9 16-14 19-7 28-2 15 3 16 7 17 12 4 1 9 8h2l9 10 5 11 2 12-2 12-6 5 1 1 7-3 3-9v-10l-4-16-2-4-16-16-9-4-5-5-23-13-16-4z" inkscape:label="Sulcus_of_Corpus_Callosum"/>
    <path id="path35" class="leaflet-interactive" d="m370 434-13 1-14 6-7 5v4l-3 5 2 2 7-10 11-6 6-2h14l6 1 3 3h2l14 13v2l3 3 1-1-3-13-3-3h-2l-2-3-7-4-9-3z" inkscape:label="Stria_Medullaris_of_Thalamus"/>
    <path id="path36" class="leaflet-interactive" d="m291 436h-2l-5 5v4l7 15 5 5 2 12 7 3h6l4-4 3-7v-6l-4-16-11-7z" inkscape:label="Subcallosal_Area"/>
    <path id="path37" class="leaflet-interactive" d="m317 479-1 3 3 5 6-2-1-3-5-1z" inkscape:label="Tuber_Cinereum"/>
    <path id="path38" class="leaflet-interactive" d="m390 476 12 15 4-3 9 1 1-9-2-4-5-4 6 7-3 4-9-8v-6l-12 6z" inkscape:label="Superior_Colliculus"/>
    <path id="path39" class="leaflet-interactive" d="m481 475v-2l18 20 2 17v20l10 9-2 2-10-10-2-36-12-15z" inkscape:label="Calcarine_Sulcus"/>
    <path id="path41" class="leaflet-interactive" d="m415 515 10 16 7 7h2l-5 1-8 5-3 5v13l-2-8-1-17 1-13z" inkscape:label="4th_Ventricle"/>
    <path id="path42" class="leaflet-interactive" d="m392 372-2 4 1 6 12 11 12 6 7-1 6-3 11-8 4-6 20-8 5-4-4-9-5-5-9-4-10-1-2-4-6-4-20-10h-8l5 25-7 10z" inkscape:label="Paracentral_Lobule"/>
   </g>
  </g>
 </g>
</svg>
