<?xml version="1.0" encoding="UTF-8" standalone="no"?>
<!DOCTYPE svg PUBLIC "-//W3C//DTD SVG 1.1//EN" "http://www.w3.org/Graphics/SVG/1.1/DTD/svg11.dtd">
<svg width="100%" height="100%" viewBox="0 0 2547 2412" version="1.1" xmlns="http://www.w3.org/2000/svg" xmlns:xlink="http://www.w3.org/1999/xlink" xml:space="preserve" xmlns:serif="http://www.serif.com/" style="fill-rule:evenodd;clip-rule:evenodd;stroke-linejoin:round;stroke-miterlimit:2;">
    <g transform="matrix(1,0,0,1,-1857.814393,128.198027)">
        <g id="brain_main_sketch" transform="matrix(4.166666,0,0,4.166666,-754.649421,-366.052208)">
            <path d="M808.129,381.372C807.635,381.447 807.142,381.513 806.653,381.445C796.936,380.107 787.162,379.001 777.576,376.919C770.748,375.436 763.99,373.448 757.532,370.777C751.803,368.407 746.894,364.332 741.202,361.873C738.735,360.808 735.663,361.575 733.295,360.306C727.243,357.065 722.421,351.813 716.369,348.571L695.281,317.797L696.366,320.43C691.566,311.172 686.454,302.078 681.655,292.82C681.529,292.577 681.659,292.271 681.627,292C681.009,286.809 681.272,281.423 679.704,276.437C678.736,273.358 674.637,271.655 674.225,268.454C673.495,262.772 676.489,257.147 676.49,251.418C676.491,248.463 673.7,245.752 674.231,242.846C676.145,232.371 678.854,221.832 683.634,212.318C686.206,207.196 692.419,204.772 695.712,200.082C697.243,197.9 696.073,194.463 697.668,192.327C700.951,187.935 706.368,185.495 709.805,181.221C712.181,178.267 711.815,173.331 714.812,171.009C720.056,166.944 726.888,165.399 732.863,162.495C738.335,155.107 740.537,144.193 748.341,139.319C760.741,131.574 776.963,132.976 790.73,128.056C792.994,127.247 793.186,123.565 795.35,122.519C802.295,119.159 809.833,117.111 817.307,115.2C822.575,113.853 828.001,112.739 833.438,112.779C840.935,112.834 848.271,115.333 855.767,115.482C862.986,115.626 870.131,113.511 877.349,113.655L904.219,120.861C910.778,120.548 916.9,116.948 923.459,116.636C936.049,116.036 948.693,116.973 961.243,118.143C965.6,118.549 970.283,118.994 973.973,121.345C979.27,124.72 981.406,132.412 987.248,134.714C988.042,135.026 988.856,135.228 989.685,135.346C989.687,135.085 989.691,134.824 989.7,134.562C990.562,134.867 991.426,135.17 992.291,135.47C997.453,135.306 1002.996,133.086 1007.881,134.704C1018.165,138.111 1027.429,144.155 1036.433,150.244C1036.88,150.488 1037.305,150.781 1037.703,151.105C1038.013,151.315 1038.323,151.525 1038.632,151.734C1040.06,152.703 1041.056,154.14 1042.008,155.629C1043.516,157.357 1044.989,159.118 1046.533,160.812C1047.91,161.321 1049.665,160.865 1051.175,161.033C1053.731,161.318 1056.456,160.929 1058.843,161.887C1066.372,164.906 1074.777,167.159 1080.582,172.826C1085.047,177.184 1085.14,184.71 1088.297,190.017C1091.109,190.132 1093.978,192.278 1096.564,193.619C1103.624,197.279 1110.538,201.243 1117.251,205.513C1117.85,205.368 1118.448,205.2 1118.895,205.531C1121.981,207.815 1125.019,210.176 1127.979,212.63C1131.584,215.141 1135.038,217.857 1137.781,221.234C1138.031,221.543 1138.281,221.852 1138.529,222.163C1138.736,222.369 1138.942,222.575 1139.148,222.782C1142.793,226.447 1145.897,230.701 1148.413,235.217C1153.089,243.61 1157.519,252.234 1160.623,261.327C1162.506,266.841 1163.212,272.723 1163.635,278.55C1163.752,279.034 1163.862,279.52 1163.963,280.008C1165.126,285.679 1165.969,291.412 1167.033,297.102C1168.517,299.641 1170,302.183 1171.057,304.904C1174.161,312.896 1177.546,320.97 1178.69,329.468C1180.03,339.433 1181.045,349.476 1181.566,359.535C1182.583,367.897 1183.279,376.247 1182.103,384.523C1179.605,402.095 1172.166,418.655 1165.653,435.166C1165.509,435.53 1165.356,435.889 1165.196,436.245C1164.719,437.394 1164.182,438.515 1163.568,439.595C1162.499,441.477 1161.24,443.23 1159.888,444.921C1157.958,447.713 1156.066,450.524 1154.831,453.655C1154.557,453.045 1154.239,452.466 1153.883,451.914C1153.082,452.849 1152.297,453.795 1151.545,454.764C1144.578,463.738 1137.767,472.831 1130.801,481.805C1127.537,477.019 1121.355,475.15 1115.986,472.469C1117.033,477.831 1117.762,483.25 1117.526,488.669C1117.371,492.217 1114.381,495.038 1112.813,498.225C1111.244,501.412 1110.258,504.957 1108.115,507.79C1104.973,511.945 1101.395,515.906 1097.153,518.928C1090.889,523.391 1084.337,527.984 1076.919,530.016C1068.43,532.34 1059.365,531.924 1050.566,531.685C1046.344,531.571 1042.286,528.913 1038.139,528.821C1042.383,527.841 1046.628,526.867 1050.942,526.317C1059.067,525.283 1067.557,527.056 1075.478,524.97C1082.314,523.17 1088.364,518.983 1094.16,514.937C1098.02,512.242 1101.277,508.683 1104.152,504.955C1106.093,502.436 1107.969,499.574 1108.429,496.427C1109.799,487.059 1108.582,477.442 1109.592,468.04C1109.139,467.556 1108.72,467.039 1108.34,466.482C1104.508,460.862 1107.111,452.933 1106.494,446.159C1106.226,443.216 1106.5,440.148 1106.179,437.217C1104.719,434.293 1102.064,431.899 1100.435,429.026C1100.03,428.618 1099.697,428.164 1099.485,427.63C1096.445,419.948 1097.116,411.005 1093.492,403.581C1093.317,403.221 1093.127,402.869 1092.925,402.526C1088.99,398.539 1072.175,381.52 1072.15,381.501C1070.455,380.228 1067.573,381.344 1065.988,379.938C1063.671,377.882 1062.695,374.552 1060.98,371.973L1031.863,381.734C1031.02,382.502 1030.176,383.269 1029.329,384.035C1027.454,385.73 1024.038,386.533 1023.619,389.026C1022.571,395.265 1027.069,401.852 1025.312,407.929C1024.457,410.889 1017.848,408.997 1016.993,411.957C1016.595,412.804 1016.183,413.644 1015.765,414.481L1031.67,422.697C1030.985,425.883 1030.443,429.098 1029.757,432.284C1029.711,432.499 1029.375,432.689 1029.479,432.883C1031.544,436.763 1034.003,440.422 1036.127,444.269L1037.283,444.293L1037.916,450.674C1033.395,452.671 1028.622,454.063 1024.101,456.06C1022.604,456.721 1020.379,457.055 1019.913,458.624C1018.19,464.429 1018.104,470.607 1017.317,476.626C1019.298,480.707 1021.306,484.773 1022.379,489.155C1023.529,493.848 1021.155,498.948 1022.269,503.65C1022.697,505.459 1025.439,506.042 1026.524,507.463L1027.578,507.992L1027.489,509.34C1027.981,509.906 1028.291,510.546 1028.277,511.315C1028.233,513.842 1027.706,516.308 1026.979,518.748C1026.833,520.493 1026.657,522.239 1026.519,523.983L1026.36,526.379C1026.286,527.838 1026.262,529.294 1026.327,530.744L1026.806,530.746L1026.336,530.917C1026.34,531.016 1026.346,531.115 1026.352,531.214C1028.701,530.868 1031.032,530.409 1033.355,529.904C1030.746,531.077 1028.355,532.96 1025.829,534.404L1023.482,569.836L1023.62,573.417L997.332,578.931L991.945,580.177C991.927,580.142 991.91,580.107 991.893,580.072L990.262,580.414L973.228,534.446C969.931,531.412 966.688,528.343 964.717,524.429C961.108,517.262 962.021,508.45 959.763,500.791C958.415,500.656 957.076,500.402 955.798,500.102C952.17,499.247 948.923,497.138 945.778,495.137C944.209,494.138 943.143,492.508 941.818,491.202C937.373,486.823 932.418,482.911 928.467,478.082C926.11,475.202 924.894,471.554 923.082,468.304C921.147,464.834 918.867,461.542 917.228,457.924C916.081,455.392 916.179,452.353 914.772,449.957C913.837,448.365 912.023,447.473 910.486,446.449C909.401,445.726 907.965,445.548 906.929,444.784C901.437,448.317 896.028,451.997 890.223,454.966C887.71,456.252 884.749,456.485 881.935,456.701C876.659,457.107 871.346,457.086 866.061,456.824C865.051,456.774 864.165,456.118 863.214,455.773C855.71,453.051 847.816,451.232 840.696,447.621C837.829,446.167 836.274,442.935 833.814,440.865C833.124,440.283 832.107,440.236 831.346,439.751C829.964,438.869 828.85,437.591 827.422,436.787C826.037,436.007 824.224,436.036 822.985,435.041C820.028,432.666 817.837,429.46 815.068,426.867C814.509,426.344 813.527,426.356 813.059,425.749C811.341,423.525 808.955,421.354 808.655,418.559C807.331,406.238 808.753,393.739 808.129,381.372ZM1033.355,529.904C1034.376,529.445 1035.429,529.095 1036.537,528.923C1037.073,528.839 1037.606,528.809 1038.139,528.821C1036.545,529.188 1034.952,529.557 1033.355,529.904ZM730.421,165.296L727.71,167.417C728.697,166.8 729.595,166.087 730.421,165.296ZM877.082,117.646C870.137,118.272 863.533,121.214 856.589,121.839C849.094,122.514 841.51,120.845 834.016,121.525C829.279,121.955 824.673,123.488 820.212,125.138C814.381,127.295 808.417,129.442 803.254,132.906C801.08,134.364 801.245,138.286 798.893,139.438C785.61,145.943 769.135,146.242 757.465,155.329C750.213,160.977 753.43,174.841 746.177,180.489C743.064,183.286 737.231,181.187 734.118,183.984C731.239,186.57 732.163,191.59 730.145,194.892C727.825,198.686 723.524,201.039 721.327,204.906C720.107,207.052 721.528,210.103 720.29,212.238C717.101,217.735 711.79,221.769 708.42,227.157C704.938,232.725 701.877,238.653 699.862,244.904C699.191,246.984 700.925,249.258 700.596,251.418C699.912,255.917 696.924,260.003 696.874,264.554C696.845,267.194 700.504,269.021 700.376,271.657C700.059,278.145 697.176,284.248 695.604,290.55C695.528,290.856 695.388,291.168 695.432,291.481C696.349,297.989 696.616,304.659 698.48,310.962C699.124,313.138 701.723,314.238 702.759,316.256C703.219,317.153 702.171,318.453 702.749,319.278C708.575,327.588 715.801,334.856 721.627,343.166L720.163,342.313C725.838,345.796 730.749,350.52 736.59,353.734C738.694,354.893 741.459,354.198 743.65,355.185C749.418,357.781 754.429,361.903 760.248,364.384C766.313,366.971 772.685,368.87 779.119,370.311C788.28,372.363 797.628,373.485 806.919,374.836C806.93,374.838 825.568,373.434 825.592,373.43C830.039,372.59 834.245,370.749 838.472,369.131C840.325,368.422 842.276,367.742 843.794,366.463C847.864,363.034 851.865,359.406 855.063,355.152C857.511,351.895 859.637,348.192 860.517,344.214C861.514,339.708 861.363,334.91 860.546,330.367C859.494,324.514 857.91,318.591 854.979,313.416C852.768,309.513 849.474,305.965 845.521,303.843C839.346,300.528 832.3,299.208 825.653,296.942L823.235,296.946C823.936,297.183 824.637,297.421 825.337,297.662C825.672,297.776 825.935,298.04 826.235,298.228C831.975,301.836 839.766,303.364 843.457,309.052C848.32,316.548 848.089,326.315 850.105,335.02C850.316,335.933 850.113,336.894 850.12,337.831C850.141,340.266 850.79,342.776 850.189,345.136C849.133,349.281 847.538,353.366 845.245,356.976C843.391,359.897 841.17,363.065 837.969,364.379C834.582,365.77 830.56,365.267 826.985,364.474C822.441,363.466 817.925,361.742 814.103,359.084C812.972,358.298 813.631,356.369 813.384,355.014C812.465,349.987 812.395,344.723 810.603,339.937C809.875,337.994 807.623,337.048 806.12,335.617C805.068,334.615 803.721,333.862 802.936,332.638C801.056,329.704 800.427,326.007 798.229,323.303C797.247,322.094 795.398,321.978 793.907,321.528C792.659,321.152 791.195,321.474 790.056,320.839C787.478,319.401 784.645,317.924 783.022,315.458C782.018,313.934 782.618,311.785 782.912,309.984C783.607,305.726 782.625,300.134 785.968,297.407C786.715,296.799 787.534,296.326 788.406,295.953C786.611,295.028 784.823,294.092 783.043,293.14C780.956,292.023 778.877,290.759 777.234,289.054C774.755,286.481 773.109,283.21 770.827,280.46C768.364,277.491 765.575,274.807 763.019,271.918C762.749,271.612 762.311,271.291 762.36,270.885C763.906,257.904 766.223,245.022 767.769,232.041L772.684,231.86C773.56,231.093 774.41,230.302 775.149,229.408C778.67,225.157 780.047,218.465 784.65,215.688C784.809,215.318 784.984,214.954 785.175,214.597C786.249,214.443 787.322,214.285 788.394,214.121C792.616,212.739 797.093,212.252 801.624,211.926C808.417,210.729 815.199,209.464 821.997,208.302C823.912,206.821 825.588,204.813 827.838,203.992C829.635,203.336 831.676,204.975 833.546,204.574C852.676,200.475 871.409,194.655 890.539,190.556L914.003,191.777L969.125,207.143C971.318,203.279 974.169,199.441 973.255,195.456C977.398,191.817 983.868,191.618 988.01,187.979C992.259,184.246 997.477,179.672 997.656,174.018C998.026,162.304 991.354,151.18 989.944,139.614C988.431,139.593 986.955,139.373 985.54,138.814C979.522,136.438 977.255,128.621 971.874,125.028C968.667,122.886 964.498,122.541 960.657,122.196C948.345,121.088 935.944,119.964 923.603,120.685C916.862,121.08 910.67,125.118 903.928,125.512L877.082,117.646ZM826.722,290.919C834.074,293.578 842.044,294.774 848.874,298.561C853.624,301.195 857.641,305.412 860.37,310.108C863.77,315.956 865.573,322.707 866.777,329.364C867.746,334.718 867.974,340.374 866.806,345.689C865.874,349.928 863.769,353.906 861.279,357.501L903.134,356.313C913.997,352.579 924.86,348.767 935.997,345.966C941.123,344.677 946.468,344.254 951.753,344.185C956.391,344.125 961.03,344.777 965.598,345.581C967.722,345.955 970.157,346.206 971.712,347.7C975.719,351.547 979.138,355.956 982.467,360.425L986.597,361.846C986.46,363.086 986.362,364.33 986.272,365.575C986.852,366.465 987.265,367.461 987.648,368.463C988.334,369.227 988.995,370.013 989.624,370.827C994.266,376.832 997.311,383.945 1000.489,390.838C1000.502,390.866 1000.515,390.895 1000.529,390.923L1001.359,390.593L1014.552,382.799C1014.532,382.613 1014.51,382.428 1014.486,382.243L1013.308,382.159L1014.429,381.832C1013.933,378.427 1012.809,375.06 1011.544,371.701C1010.231,371.775 1008.917,371.838 1007.602,371.887L1008.234,362.923C1006.784,358.657 1005.784,354.364 1006.224,349.985C1006.73,344.943 1013.399,343.051 1017.344,339.536C1018.607,336.381 1019.937,333.245 1021.068,330.052C1021.332,325.634 1020.479,320.997 1019.706,316.668C1019.215,313.923 1018.797,311.096 1018.321,308.272C1016.432,301.798 1014.44,294.977 1013.388,291.373C1012.701,290.069 1011.92,288.815 1011.025,287.626C1004.401,278.819 995.454,272.154 986.424,265.625C984.357,264.77 982.337,263.835 980.497,262.605C978.048,260.969 975.807,259.057 973.618,257.074C973.029,257.228 972.417,257.44 971.97,257.138C967.589,254.18 963.946,250.201 959.776,246.967C958.731,246.872 957.677,246.789 956.805,246.276C954.328,244.822 952.18,242.87 949.976,241.004C945.02,238.41 939.865,236.178 934.575,234.409C923.093,230.568 911.413,226.533 899.344,225.573C886.628,224.562 873.826,226.801 861.194,228.574C861.084,228.59 860.973,228.606 860.863,228.623C859.022,229.018 857.184,229.43 855.349,229.852C852.427,230.696 849.566,231.797 846.763,232.956C845.228,233.591 843.683,234.226 842.146,234.884C831.375,243.364 821.03,252.377 810.368,260.993C808.599,262.783 807.13,264.269 806.221,265.189L826.722,290.919ZM860.21,358.992C856.654,363.786 852.183,367.882 847.608,371.715C845.703,373.311 843.27,374.175 840.956,375.082C838.424,376.074 835.896,377.128 833.325,378.031L834.244,378.409L834.252,383.12L860.237,374.728L860.222,365.548C860.127,365.543 860.031,365.539 859.936,365.535L860.222,365.505L860.21,358.992ZM1019.499,144.426C1015.429,142.181 1011.222,140.237 1006.816,138.823C1004.872,138.199 1002.83,138.15 1000.75,138.334C1006.988,140.399 1013.251,142.391 1019.499,144.426ZM1082.429,186.942C1081.315,183.039 1080.573,178.876 1077.802,176.132C1072.452,170.833 1064.647,168.695 1057.633,165.951C1055.771,165.222 1053.727,165.227 1051.699,165.166L1082.429,186.942ZM1114.846,467.078C1119.043,470.721 1126.228,471.554 1129.807,475.777C1135.76,468.011 1141.554,460.124 1147.533,452.378C1147.668,452.204 1147.804,452.03 1147.941,451.856C1143.624,443.853 1134.241,438.18 1131.783,429.322C1129.341,420.523 1129.965,411.259 1130.284,402.02C1129.367,401.377 1128.035,401.187 1127.462,400.235C1125.601,397.146 1124.263,393.716 1123.363,390.224C1123.098,389.2 1124.462,388.119 1124.081,387.131C1123.022,384.385 1121.892,381.667 1120.721,378.966C1116.163,372.182 1113.023,364.483 1108.943,357.391C1107.469,355.522 1106.365,354.121 1105.87,353.493C1105.45,354.415 1105.038,355.34 1104.637,356.271L1100.189,351.823C1095.542,352.92 1090.587,353.121 1086.253,355.099C1078.915,358.447 1072.487,363.512 1065.577,367.681L1070.458,376.411L1069.315,375.76C1069.853,376.229 1070.408,376.675 1070.977,377.102C1072.154,377.162 1073.385,377.126 1074.261,377.798C1076.077,379.192 1077.74,380.762 1079.336,382.406C1081.187,383.551 1082.989,384.762 1084.623,386.189C1085.078,386.586 1084.721,387.335 1084.535,388.021C1085.321,388.869 1086.115,389.709 1086.929,390.526C1088.886,392.491 1091.265,394.158 1093.368,396.02C1095.16,397.427 1096.761,398.983 1097.82,400.976C1101.725,408.321 1100.726,417.474 1103.801,425.203C1104.873,427.897 1108.886,428.676 1109.921,431.384C1110.528,432.972 1110.773,434.644 1110.872,436.349C1111.069,436.834 1111.229,437.334 1111.34,437.855C1112.915,445.224 1110.773,452.952 1111.29,460.467C1111.427,461.156 1111.606,461.832 1111.835,462.491C1112.587,463.204 1114.053,463.568 1114.282,464.578C1114.471,465.409 1114.66,466.243 1114.846,467.078ZM822.255,380.489L817.835,383.333C822.438,389.677 824.261,397.757 828.864,404.101C830.635,406.541 834.099,407.135 836.462,409.007C837.011,409.443 837.265,410.195 837.418,410.879C838.328,414.928 839.312,418.993 839.634,423.131C839.778,424.985 838.889,426.79 838.8,428.647C838.711,430.5 838.907,432.358 839.102,434.202C839.169,434.839 839.189,435.556 839.582,436.061C841.102,438.013 842.531,440.262 844.719,441.418C851.049,444.762 858.03,446.695 864.688,449.325C865.54,449.661 866.336,450.257 867.249,450.318C871.926,450.633 876.63,450.703 881.31,450.441C883.574,450.315 885.963,450.174 887.99,449.159C893.199,446.549 898.091,443.352 903.047,440.275C902.347,439.307 901.667,438.321 900.971,437.355C900.65,436.911 900.212,436.364 900.348,435.832C900.85,433.874 901.249,431.857 901.657,429.839L898.72,428.346L903.206,423.191C903.968,420.575 904.971,418.072 906.488,415.823C908.001,413.58 910.139,411.901 912.44,410.368C912.606,401.665 912.845,392.962 913.014,384.258L912.396,382.707C911.882,382.419 911.394,382.134 911.16,381.758C910.532,382.329 909.878,382.866 909.18,383.35C905.443,385.943 901.11,387.551 897.062,389.625C897.009,389.652 896.943,389.633 896.887,389.648C894.138,390.406 891.467,391.523 888.647,391.944C885.741,392.378 882.747,391.802 879.835,392.196C878.365,392.395 876.902,392.641 875.443,392.912L873.766,382.363L869.649,383.664L871.518,382.313L867.45,382.48L867.447,383.67L874.005,393.187C869.775,394.015 865.571,395.002 861.311,395.64L863.012,381.722L861.298,379.114L860.251,382.638L860.245,379.261L830.205,387.439L830.214,380.887L827.776,379.652C827.483,379.717 827.19,379.778 826.895,379.835C825.359,380.132 823.811,380.338 822.255,380.489ZM874.89,394.471L874.005,393.187C874.484,393.093 874.963,393.001 875.443,392.912L875.778,395.018L874.887,393.227L874.89,394.471ZM874.89,394.471L879.362,400.96L860.017,406.23L860.691,400.715L861.319,401.345L874.898,397.569L874.89,394.471ZM856.838,396.857L856.832,394.735L856.215,396.233L856.214,396.232L856.215,396.234L856.208,396.25L860.251,382.638L860.274,395.788C860.62,395.741 860.966,395.692 861.311,395.64L860.691,400.715L856.838,396.857ZM856.838,396.857L856.84,397.753L856.215,396.234L856.215,396.233L856.838,396.857ZM803.986,303.757L803.83,304.806L806.886,307.325L806.373,305.011C806.218,304.91 806.061,304.81 805.905,304.711C805.266,304.392 804.626,304.075 803.986,303.757ZM808.927,306.783C808.03,309.625 807.153,312.473 806.246,315.312C805.778,316.779 804.529,318.182 804.799,319.698C805.369,322.893 807.021,325.831 808.627,328.652C809.402,330.013 810.764,330.943 811.846,332.075C813.39,333.692 815.761,334.791 816.507,336.899C818.118,341.445 817.911,346.441 818.625,351.211C818.817,352.496 818.221,354.239 819.225,355.064C821.728,357.12 824.962,358.235 828.109,359.002C830.594,359.607 833.394,360.015 835.781,359.097C838.024,358.233 839.649,356.088 840.941,354.062C842.887,351.014 844.361,347.623 845.326,344.138C845.333,344.113 845.416,335.627 845.41,335.598C843.652,327.631 843.951,318.731 839.621,311.817C839.619,311.814 823.544,301.444 823.538,301.442C822.246,300.989 820.951,300.545 819.654,300.107L817.634,305.881C816.306,304.79 814.918,303.787 813.483,302.852L811.93,304.632C814.546,307.005 817.153,309.387 819.733,311.798C816.529,310.084 813.297,308.422 810.051,306.786L809.603,307.3C809.38,307.125 809.154,306.952 808.927,306.783ZM890.875,194.637C889.222,195.381 887.577,196.142 885.938,196.916C887.617,196.563 889.297,196.218 890.98,195.885C891.554,195.451 892.124,195.018 892.719,194.701L890.875,194.637ZM967.275,211.15L946.838,205.35C952.149,207.943 957.377,210.783 962.983,212.574C963.752,212.82 964.577,212.826 965.423,212.728C965.963,212.513 966.506,212.249 967.046,212.006C967.11,211.72 967.187,211.435 967.275,211.15ZM915.798,196.541L913.908,196.004L915.984,195.513L905.151,195.135C908.71,195.519 912.262,195.984 915.798,196.541ZM976.145,198.48L978.494,208.257C985.837,212.314 994.443,213.946 1001.631,218.3C1004.316,219.927 1005.698,223.113 1007.359,225.777C1008.197,227.122 1008.41,228.77 1009.058,230.215C1009.259,230.662 1009.51,231.12 1009.893,231.425C1010.887,232.215 1011.868,233.237 1013.12,233.447C1014.809,233.731 1016.599,233.38 1018.219,232.824C1021.112,231.83 1023.857,230.404 1026.494,228.854C1029.179,227.276 1031.593,225.277 1034.13,223.472C1036.48,221.8 1039.116,220.455 1041.298,218.587C1042.421,217.205 1043.462,215.744 1044.554,214.333C1045.726,212.061 1046.69,209.623 1048.724,208.2C1052.377,205.645 1056.896,204.748 1061.163,203.324C1068.197,199.157 1075.104,194.688 1082.618,191.66L1044.676,166.214C1041.519,162.851 1038.882,159.024 1035.726,155.661C1035.002,154.891 1034.087,154.264 1033.1,153.884C1020.326,148.963 1007.326,144.643 994.528,139.786C995.209,151.618 1002.896,163.015 1002.074,174.94C1001.622,181.513 995.644,186.722 990.766,191.151C986.73,194.815 980.182,194.816 976.145,198.48ZM818.223,293.905C818.156,293.812 818.088,293.72 818.02,293.627C813.88,291.322 810.11,288.331 806.383,285.397C803.762,283.333 800.375,281.453 799.345,278.279C798.717,276.344 798.276,274.251 798.123,272.147C797.928,271.845 797.739,271.54 797.555,271.23C795.954,268.538 797.572,264.551 799.415,262.018C805.743,253.325 813.038,245.163 821.426,238.435C827.112,233.874 834.471,231.928 840.992,228.671C842.749,227.794 844.347,226.479 846.259,226.032C849.096,225.37 851.938,224.709 854.787,224.074C856.264,223.678 857.756,223.347 859.263,223.102C865.586,221.771 871.945,220.63 878.362,219.946C886.469,219.081 894.703,219.24 902.82,220.002C911.577,220.825 920.321,222.302 928.788,224.683C935.241,226.497 941.448,229.265 947.313,232.513C951.632,234.905 954.852,238.969 959.108,241.473C960.901,242.528 963.449,241.823 965.156,243.012C971.654,247.539 976.749,253.902 983.312,258.334C988.93,262.129 996.247,263.187 1001.453,267.53C1007.729,272.765 1013.444,279.119 1017.033,286.461C1017.051,286.497 1017.069,286.534 1017.087,286.57C1021.418,293.103 1022.732,301.374 1023.925,309.436C1024.563,312.235 1025.227,315.023 1026.014,317.765C1026.583,319.746 1028.124,321.684 1027.725,323.706C1027.383,325.439 1026.932,327.144 1026.417,328.832C1026.44,332.15 1026.046,335.412 1024.903,338.474C1024.285,340.132 1023.059,341.431 1021.587,342.576C1021.453,342.986 1021.322,343.397 1021.195,343.808L1029.084,342.359L1037.211,338.748C1037.472,333.258 1038.235,327.778 1038.611,322.291C1037.855,321.635 1037.103,320.98 1036.571,320.145C1033.254,314.938 1030.073,309.61 1027.49,304.002C1018.626,284.764 1010.654,265.126 1002.131,245.735C1002.105,245.734 1002.078,245.732 1002.051,245.73C997.206,245.412 992.337,244.612 987.722,243.099C985.958,242.521 984.491,241.098 983.38,239.61C977.954,232.347 970.345,225.852 967.556,217.334C965.695,217.565 963.639,218.412 961.91,217.848C952.055,214.639 943.272,208.452 933.263,205.758C927.816,204.293 922.278,203.163 916.694,202.284C911.354,201.79 906.001,201.352 900.759,200.39C899.022,200.241 897.285,200.109 895.548,199.99C893.479,199.849 892.015,202.322 889.998,202.803C888.603,203.135 887.2,203.427 885.792,203.694C874.446,209.413 863.452,215.875 851.837,221.026C847.86,222.79 843.205,222.508 839.144,224.071C827.758,228.455 816.745,233.757 805.538,238.583C804.866,240.402 804.223,242.242 802.907,243.591C799.006,247.59 794.089,250.45 789.396,253.507C787.48,255.258 785.609,257.046 784.067,259.115L782.793,259.14C782.687,261.404 782.586,263.668 782.607,265.932C782.622,267.508 782.669,269.089 782.788,270.662C783.96,273.054 785.212,275.413 786.33,277.826C786.86,278.971 787.213,280.226 787.767,281.356C792.904,285.796 799.381,288.426 805.475,291.573C805.578,291.495 805.681,291.416 805.782,291.333C805.988,291.387 806.208,291.382 806.414,291.436C806.729,291.518 807.031,291.64 807.34,291.741C810.617,292.819 813.901,293.874 817.181,294.944L818.223,293.905ZM1015.47,371.451C1016.459,374.685 1017.14,377.915 1016.809,381.137L1017.91,380.815L1036.772,369.671C1029.669,370.213 1022.576,370.951 1015.47,371.451ZM1158.007,288.872C1157.903,288.561 1157.805,288.247 1157.714,287.931C1157.073,285.711 1158.806,283.448 1159.208,281.151C1159.162,280.818 1159.114,280.486 1159.063,280.154C1159.053,280.089 1151.887,252.381 1151.872,252.349C1148.619,245.433 1144.783,238.749 1140.435,232.436C1133.575,225.188 1125.087,219.343 1118.654,211.728C1114.583,209.021 1110.424,206.444 1106.202,203.973L1088.232,195.169C1081.455,198.926 1075.008,203.294 1068.103,206.815C1063.178,209.327 1057.268,209.938 1052.784,213.171C1049.954,215.211 1049.494,219.422 1047.099,221.96C1044.565,224.645 1041.177,226.372 1038.227,228.594C1035.514,230.638 1032.984,232.944 1030.112,234.758C1027.03,236.705 1023.845,238.573 1020.427,239.84C1018.182,240.671 1015.596,240.181 1013.337,240.971C1012.923,241.116 1012.528,241.3 1012.145,241.508C1018.152,249.411 1024.663,256.963 1030.097,265.267C1030.866,266.441 1031.611,267.634 1032.329,268.845C1040.346,277.13 1048.14,285.584 1054.487,295.135C1058.469,301.129 1056.289,309.43 1056.605,316.619C1056.673,318.171 1056.048,319.679 1055.632,321.176C1055.4,322.01 1054.821,322.735 1054.666,323.586C1053.413,330.451 1052.672,337.403 1051.419,344.267L1049.505,344.674C1047.816,347.056 1045.658,349.129 1043.002,349.942C1033.979,352.703 1023.967,350.66 1014.794,352.688L1013.692,365.812C1024.429,365.162 1035.103,363.51 1045.852,363.058C1048.854,362.932 1051.819,363.764 1054.803,364.113C1055.141,364.152 1055.486,364.236 1055.834,364.332C1056.814,364.387 1057.771,364.507 1058.683,364.755C1058.823,364.721 1058.961,364.673 1059.095,364.608C1067.798,360.384 1075.275,353.839 1084.106,349.891C1089.683,347.397 1096.202,347.691 1101.894,345.47C1102.658,345.172 1103.453,344.818 1104.213,344.399C1104.346,343.925 1104.486,343.452 1104.629,342.98L1104.43,341.089C1104.632,341.282 1104.835,341.474 1105.038,341.665C1105.836,339.147 1106.688,336.641 1107.243,334.062C1108.18,329.702 1107.527,324.963 1109.192,320.825C1110.237,318.227 1113.082,316.797 1115.006,314.762C1117.317,312.317 1119.396,309.636 1121.896,307.383C1123.077,306.319 1125.015,306.166 1125.96,304.887C1126.792,303.763 1126.434,302.127 1126.785,300.774C1127.658,297.413 1128.758,294.114 1129.631,290.754L1158.007,288.872ZM1153.776,443.121C1156.04,439.698 1158.85,436.549 1160.367,432.753C1161.458,430.02 1162.583,427.289 1163.709,424.553C1163.71,424.548 1163.711,424.544 1163.712,424.539C1164.302,421.458 1162.604,418.061 1163.718,415.128C1165.29,410.99 1169.648,408.362 1171.403,404.298C1171.697,403.617 1171.991,402.931 1172.281,402.241C1174.266,396.212 1175.888,390.093 1176.845,383.828C1177.053,382.465 1177.209,381.1 1177.321,379.732C1177.412,375.568 1177.402,371.4 1177.3,367.232C1176.679,358.071 1175.058,348.86 1174.586,339.707C1174.449,337.046 1175.029,334.243 1174.159,331.725C1170.238,320.382 1164.51,309.722 1160.358,298.467C1158.51,299.054 1156.593,299.472 1154.718,299.993L1145.732,314.272C1142.177,313.497 1138.601,312.819 1135.046,312.046C1129.581,315.591 1124.164,319.187 1119.339,323.429C1119.012,323.885 1118.719,324.365 1118.467,324.875C1118.332,325.149 1118.203,325.426 1118.081,325.704C1118.021,326.8 1118.124,327.977 1117.705,328.95C1117.184,330.158 1116.645,331.358 1116.092,332.552C1115.434,335.916 1115.004,339.368 1114.022,342.632C1113.533,344.255 1112.509,345.666 1111.753,347.182C1111.719,347.25 1111.71,347.353 1111.682,347.427C1119.717,353.943 1128.4,359.725 1136.092,366.629C1141.106,369.435 1146.288,371.978 1151.049,375.185C1151.745,375.654 1151.942,376.778 1151.768,377.6C1150.79,382.209 1149.399,386.746 1147.669,391.129C1146.946,392.959 1145.372,394.341 1144.47,396.09C1143.243,398.472 1141.582,400.814 1141.304,403.479C1140.857,407.765 1140.075,412.18 1139.683,416.557C1139.508,419.115 1139.61,421.626 1140.463,424.019C1142.883,430.815 1148.506,436.044 1152.642,442C1153.042,442.36 1153.422,442.733 1153.776,443.121ZM1106.001,353.207L1106.294,353.117C1106.256,353.06 1106.218,353.004 1106.18,352.948L1106.089,353.016C1106.06,353.08 1106.03,353.144 1106.001,353.207ZM1039.862,374.402L1055.05,369.965C1052.261,369.601 1049.481,368.98 1046.676,369.086C1046.328,369.099 1045.981,369.113 1045.633,369.128C1043.703,370.879 1041.782,372.64 1039.862,374.402ZM1029.271,447.613C1027.378,445.554 1025.641,443.296 1023.317,441.785C1022.007,440.934 1020.198,441.596 1018.636,441.563C1018.378,441.557 1018.123,441.716 1017.868,441.669C1015.813,441.291 1013.78,440.803 1011.739,440.354C1011.924,445.851 1012.111,451.347 1012.296,456.844C1012.465,458.273 1012.626,459.703 1012.772,461.134C1012.993,463.293 1012.78,465.551 1013.425,467.618C1013.9,463.193 1014.451,458.786 1015.738,454.553C1016.302,452.7 1018.88,452.252 1020.621,451.403C1023.45,450.023 1026.364,448.825 1029.271,447.613ZM966.476,500.072L978.803,532.651C982.014,535.715 985.138,538.834 987.1,542.727C991.947,552.342 990.921,564.22 995.58,573.907L1018.019,569.068L1016.453,533.582L1020.492,530.855C1020.497,530.323 1020.511,529.791 1020.531,529.258C1019.269,522.205 1018.252,515.108 1016.922,508.067C1016.879,507.835 1016.475,507.797 1016.422,507.567C1015.095,501.81 1013.918,496.02 1012.7,490.239C1012.142,488.308 1011.571,486.38 1010.996,484.453L1008.759,484.305C1006.934,476.111 1005.388,467.86 1003.932,459.591C1003.531,458.232 1003.184,456.861 1002.946,455.466C1002.735,454.234 1002.625,452.992 1002.573,451.745C1001.462,445.257 1000.371,438.765 999.21,432.287C998.448,432.032 997.597,431.916 996.835,431.704C995.669,431.378 994.259,431.751 993.257,431.07C991.398,429.806 990.515,427.405 988.656,426.141L996.721,419.129C996.155,416.313 995.563,413.501 994.938,410.697C994.931,410.663 994.923,410.63 994.916,410.597C992.857,405.601 990.851,400.584 988.724,395.618L989.824,395.18C989.033,393.107 988.249,391.031 987.527,388.939C987.496,388.849 987.43,388.77 987.355,388.712C984.356,386.41 981.423,384.015 978.314,381.865C977.538,381.329 976.636,380.99 975.744,380.685C974.494,380.256 973.092,380.262 971.91,379.67C967.535,377.477 963.652,374.337 959.168,372.376C958.086,371.902 956.775,372.837 955.63,372.548C953.375,371.978 951.447,370.428 949.192,369.855C945.532,368.926 941.782,368.112 938.006,368.075C934.916,368.043 931.818,368.011 928.72,368.019L929.206,368.292C930.333,368.4 931.46,368.503 932.59,368.581C933.234,368.625 933.882,368.558 934.526,368.603L935.586,371.995L936.835,371.95L935.734,372.471L940.248,386.922L929.112,382.611C927.2,382.896 925.519,384.15 923.607,384.435C922.379,384.617 921.068,384.769 919.831,384.609L925.857,400.742C929.701,401.903 933.976,400.993 937.82,402.154C943.983,404.015 949.392,407.981 955.591,409.722C958.589,410.564 962.052,408.587 964.934,409.766C969.471,411.623 973.892,414.488 976.832,418.411C980.734,423.618 982.502,430.146 984.774,436.244C985.217,437.431 985.037,438.753 985.06,440.031C985.362,441.451 985.594,442.883 985.738,444.324C985.797,444.926 985.824,445.528 985.825,446.13C986.414,449.76 986.991,453.39 986.289,456.941C984.062,468.209 980.919,479.565 975.38,489.627C975.186,489.978 974.971,490.311 974.737,490.629C974.398,491.342 974.052,492.052 973.698,492.758C972.177,495.793 969.711,498.745 966.57,500.034C966.539,500.047 966.507,500.059 966.476,500.072ZM924.958,407.462C924.513,411.282 922.081,415.071 922.614,418.906C923.301,423.845 926.999,427.879 928.753,432.546C928.895,432.923 928.251,433.196 928.131,433.58C927.456,435.745 927.305,438.083 926.381,440.153C925.858,441.325 924.534,441.978 923.888,443.086C923.033,444.554 921.936,446.093 921.93,447.791C921.922,450.359 922.901,452.866 923.848,455.253C925.2,458.662 927.125,461.814 928.79,465.081C929.793,467.051 930.596,469.151 931.596,471.125C933.064,473.154 934.515,475.215 936.02,477.227C939.037,480.54 942.438,483.521 945.558,486.745C946.101,487.306 946.565,487.987 947.058,488.624C950.598,490.83 955.013,491.528 959.057,492.867C959.944,493.042 960.827,493.229 961.7,493.444C962.844,492.699 964.099,492.047 965.314,491.361C969.275,482.967 974.308,475.064 978.18,466.628C978.927,463.754 979.579,460.856 980.168,457.962C980.154,457.035 980.141,456.108 980.216,455.203C980.249,454.799 980.29,454.394 980.336,453.99C979.945,449.059 979.04,437.724 979.034,437.709C977.024,432.451 975.351,426.882 972.009,422.353C969.81,419.371 966.436,417.172 962.952,415.911C960.251,414.933 957.102,416.728 954.335,415.956C948.027,414.195 942.498,410.177 936.184,408.438C932.57,407.443 928.701,407.782 924.958,407.462ZM917.549,395.64C917.397,399.502 917.24,403.363 917.1,407.224L920.093,403.783C919.307,401.455 918.634,399.088 917.977,396.714L917.549,395.64ZM907.046,371.847L895.701,375.432C895.798,375.506 895.895,375.579 895.993,375.652C896.286,375.868 899.262,376.115 901.844,376.292C902.177,376.148 902.508,376.007 902.838,375.87C902.804,375.856 902.77,375.842 902.736,375.828C903.637,375.541 904.393,375.013 905.068,374.349L904.264,373.135L906.178,373.065C906.476,372.674 906.763,372.264 907.046,371.847ZM873.021,377.684L872.262,372.91C872.254,372.906 872.246,372.902 872.238,372.898C872.314,373.128 872.141,373.331 871.964,373.539L871.968,377.631C872.319,377.652 872.67,377.67 873.021,377.684ZM930.402,371.47L930.267,371.333L928.43,371.663L928.154,372.255L930.402,371.47ZM916.048,371.168C915.343,371.221 914.644,371.327 913.951,371.502C913.225,371.685 912.696,372.199 912.244,372.845L915.336,372.732C915.608,372.221 915.85,371.702 916.048,371.168ZM920.069,371.315C919.084,371.197 918.103,371.119 917.13,371.125L917.593,372.237C918.419,371.929 919.244,371.622 920.069,371.315ZM927.447,372.292C927.416,372.29 927.385,372.288 927.354,372.286C926.826,372.254 926.295,372.203 925.763,372.141L924.834,372.307C924.834,372.306 924.833,372.305 924.833,372.304C924.808,372.206 924.782,372.108 924.756,372.009C924.592,371.986 924.427,371.962 924.263,371.938L923.775,372.425L924.28,372.407L923.687,372.513L921.69,374.511L925.151,373.303C925.045,372.996 924.938,372.69 924.855,372.386L927.447,372.292ZM924.855,372.386L924.28,372.407L924.834,372.307C924.841,372.334 924.848,372.36 924.855,372.386Z" style="fill:rgb(128,128,128);"/>
        </g>
    </g>
</svg>
