<svg pointer-events="none"  width="1158" xmlns="http://www.w3.org/2000/svg" height="863" style="pointer-events: none;
  width: 1158px;
  height: 863px;border-width: 0;
  border-style: solid;
  box-sizing: border-box; border-color: var(--chakra-colors-gray-200);
  word-wrap: break-word;display: block;transform-origin: 0 0; position: absolute;
  left: 0;
  top: 0; -moz-user-select: none; will-change: transform;; max-width: none !important;
  max-height: none !important; transform: translate3d(-93px, -72px, 0px);" viewBox="-93 -72 1158 863"><g>
  
  <path id="toto" class="leaflet-interactive" stroke="#038103" stroke-opacity="1" stroke-width="0" stroke-linecap="round" stroke-linejoin="round" fill="#038103" fill-opacity="1" fill-rule="evenodd" d="M736 246L736 248L719 243L702 243L686 246L675 250L657 260L650 270L647 278L643 278L636 273L633 267L634 264L648 251L674 237L684 234L694 232L711 232L729 239L734 244z"></path>
  
  <path class="leaflet-interactive" stroke="#038103" stroke-opacity="0" stroke-width="0" stroke-linecap="round" stroke-linejoin="round" fill="#038103" fill-opacity="0" fill-rule="evenodd" d="M700 334L698 340L692 344L681 343L672 338L674 334L678 332L700 333z"></path><path class="leaflet-interactive" stroke="#038103" stroke-opacity="0" stroke-width="0" stroke-linecap="round" stroke-linejoin="round" fill="#038103" fill-opacity="0" fill-rule="evenodd" d="M633 333L648 335L669 325L704 319L718 319L735 322L743 330L745 330L758 345L764 355L771 376L778 409L779 426L781 429L780 432L782 434L783 443L784 445L785 444L785 453L787 456L788 451L791 456L794 466L794 480L799 483L798 509L794 510L794 530L796 547L795 549L765 555L760 528L752 514L734 492L730 482L730 473L732 470L724 469L712 461L702 451L691 435L685 421L680 403L681 381L685 373L689 370L681 343L694 343L699 338L700 333L697 331L689 333L678 332L674 334L672 338L675 341L681 343L675 341L661 346L655 346L634 341L631 342L631 336z"></path><path class="leaflet-interactive" stroke="#038103" stroke-opacity="0" stroke-width="0" stroke-linecap="round" stroke-linejoin="round" fill="#038103" fill-opacity="0" fill-rule="evenodd" d="M643 292L638 299L630 298L627 282L621 270L620 263L629 268L641 281L643 288L646 289L645 292z"></path><path class="leaflet-interactive" stroke="#038103" stroke-opacity="0" stroke-width="0" stroke-linecap="round" stroke-linejoin="round" fill="#038103" fill-opacity="0" fill-rule="evenodd" d="M742 318L735 322L738 326L745 330L760 347L764 354L775 391L777 378L769 352L757 333L742 318z"></path><path class="leaflet-interactive" stroke="#038103" stroke-opacity="0" stroke-width="0" stroke-linecap="round" stroke-linejoin="round" fill="#038103" fill-opacity="0" fill-rule="evenodd" d="M781 378L777 380L775 393L779 407L779 423L782 434L782 440L784 442L782 378z"></path><path class="leaflet-interactive" stroke="#038103" stroke-opacity="0" stroke-width="0" stroke-linecap="round" stroke-linejoin="round" fill="#038103" fill-opacity="0" fill-rule="evenodd" d="M703 243L689 245L667 253L661 258L659 258L653 265L655 267L660 262L683 250L710 246L719 247L733 252L744 258L751 265L754 264L752 258L748 253L737 245L736 248L723 244L703 243z"></path><path class="leaflet-interactive" stroke="#038103" stroke-opacity="0" stroke-width="0" stroke-linecap="round" stroke-linejoin="round" fill="#038103" fill-opacity="0" fill-rule="evenodd" d="M658 146L653 149L623 155L610 161L607 164L586 170L581 173L571 175L559 181L549 181L546 190L536 201L529 206L529 216L533 228L542 242L553 253L569 259L577 250L580 249L568 244L560 237L557 228L557 222L560 215L575 199L585 191L597 185L617 178L642 174L666 174L688 178L713 187L731 199L737 201L750 212L773 226L786 241L793 253L799 277L798 295L796 303L792 308L793 309L810 308L815 306L822 299L821 284L816 268L813 249L802 228L799 225L797 217L794 216L794 214L778 194L761 185L746 169L744 169L740 165L730 165L700 153L694 153L673 148L663 148L661 146L658 146z"></path><path class="leaflet-interactive" stroke="#038103" stroke-opacity="0" stroke-width="0" stroke-linecap="round" stroke-linejoin="round" fill="#038103" fill-opacity="0" fill-rule="evenodd" d="M654 142L650 142L647 145L643 145L636 148L627 149L614 156L610 156L590 163L581 169L573 170L555 177L549 177L543 185L541 191L534 197L529 199L524 207L525 220L528 225L530 233L536 241L536 243L549 256L569 264L569 258L554 253L541 241L533 227L530 218L529 207L546 191L549 181L561 181L564 178L578 173L582 173L592 168L601 165L607 165L609 161L617 159L619 157L637 153L640 151L654 149L660 146L662 148L679 149L702 154L732 166L741 165L762 186L776 193L786 203L786 205L794 214L794 216L797 217L799 225L804 232L806 238L810 242L814 254L815 267L820 280L822 296L821 301L816 305L808 308L792 308L788 310L788 312L810 312L816 310L824 303L824 301L826 301L826 293L823 289L823 281L818 264L816 250L809 233L801 219L789 207L782 198L780 192L775 187L773 187L755 174L755 172L749 166L744 165L743 162L742 163L740 161L729 160L682 144L654 142z"></path><path class="leaflet-interactive" stroke="#038103" stroke-opacity="0" stroke-width="0" stroke-linecap="round" stroke-linejoin="round" fill="#038103" fill-opacity="0" fill-rule="evenodd" d="M646 180L629 181L612 185L607 188L596 191L582 199L576 205L574 205L565 214L563 218L561 227L565 236L570 240L574 241L578 245L588 249L613 255L616 253L616 247L609 234L609 222L618 213L628 207L639 204L674 206L694 215L703 221L708 222L715 228L723 232L723 234L735 245L744 249L753 260L761 281L764 296L768 300L768 302L776 310L779 311L788 305L791 298L793 287L790 262L781 245L767 230L731 205L726 204L717 197L701 189L695 188L687 184L660 179L646 180z"></path><path class="leaflet-interactive" stroke="#038103" stroke-opacity="0" stroke-width="0" stroke-linecap="round" stroke-linejoin="round" fill="#038103" fill-opacity="0" fill-rule="evenodd" d="M647 292L648 290L652 290L656 296L665 302L682 309L694 311L708 317L737 317L737 320L708 319L676 310L655 299z"></path><path class="leaflet-interactive" stroke="#038103" stroke-opacity="0" stroke-width="0" stroke-linecap="round" stroke-linejoin="round" fill="#038103" fill-opacity="0" fill-rule="evenodd" d="M648 290L645 293L648 306L639 318L635 326L636 329L633 332L634 333L649 334L654 333L668 325L708 319L699 312L688 309L682 309L672 305L657 297L651 290L649 290z"></path><path class="leaflet-interactive" stroke="#038103" stroke-opacity="0" stroke-width="0" stroke-linecap="round" stroke-linejoin="round" fill="#038103" fill-opacity="0" fill-rule="evenodd" d="M762 341L770 355L774 368L781 367L784 365L788 360L788 353L787 346L783 338L775 335L765 338z"></path><path class="leaflet-interactive" stroke="#038103" stroke-opacity="0" stroke-width="0" stroke-linecap="round" stroke-linejoin="round" fill="#038103" fill-opacity="0" fill-rule="evenodd" d="M703 276L699 279L699 281L702 284L708 281L708 279L703 276z"></path><path class="leaflet-interactive" stroke="#038103" stroke-opacity="0" stroke-width="0" stroke-linecap="round" stroke-linejoin="round" fill="#038103" fill-opacity="0" fill-rule="evenodd" d="M632 298L629 299L628 309L621 318L622 321L623 320L625 322L635 308L637 300L633 298z"></path><path class="leaflet-interactive" stroke="#038103" stroke-opacity="0" stroke-width="0" stroke-linecap="round" stroke-linejoin="round" fill="#038103" fill-opacity="0" fill-rule="evenodd" d="M621 321L619 321L607 334L609 340L628 341L630 339L630 337L635 331L634 330L631 333L627 333L623 329L621 321z"></path><path class="leaflet-interactive" stroke="#038103" stroke-opacity="0" stroke-width="0" stroke-linecap="round" stroke-linejoin="round" fill="#038103" fill-opacity="0" fill-rule="evenodd" d="M636 327L635 326L635 330L636 327z"></path><path class="leaflet-interactive" stroke="#038103" stroke-opacity="0" stroke-width="0" stroke-linecap="round" stroke-linejoin="round" fill="#038103" fill-opacity="0" fill-rule="evenodd" d="M892 309L905 330L921 344L922 404L939 418L949 402L954 382L963 365L967 348L964 291L961 278L949 253L943 250L920 264L909 273L898 283L894 302z"></path><path class="leaflet-interactive" stroke="#038103" stroke-opacity="0" stroke-width="0" stroke-linecap="round" stroke-linejoin="round" fill="#038103" fill-opacity="0" fill-rule="evenodd" d="M643 292L637 300L633 312L627 319L626 322L629 325L634 326L637 324L639 318L648 307L646 295L645 292L643 292z"></path><path class="leaflet-interactive" stroke="#038103" stroke-opacity="0" stroke-width="0" stroke-linecap="round" stroke-linejoin="round" fill="#038103" fill-opacity="0" fill-rule="evenodd" d="M619 265L618 270L625 294L625 304L620 315L605 332L606 333L624 316L629 307L630 297L628 285L621 271L621 267L619 265z"></path><path class="leaflet-interactive" stroke="#038103" stroke-opacity="0" stroke-width="0" stroke-linecap="round" stroke-linejoin="round" fill="#038103" fill-opacity="0" fill-rule="evenodd" d="M944 248L926 257L922 261L912 265L895 281L890 302L887 309L884 310L885 313L889 313L894 305L898 291L898 285L900 282L918 266L923 265L927 261L936 257L942 252L948 252L948 250L945 248z"></path><path class="leaflet-interactive" stroke="#038103" stroke-opacity="0" stroke-width="0" stroke-linecap="round" stroke-linejoin="round" fill="#038103" fill-opacity="0" fill-rule="evenodd" d="M733 285L727 291L725 296L713 308L713 318L739 320L742 317L744 308L743 297L741 291L735 285L733 285z"></path><path class="leaflet-interactive" stroke="#038103" stroke-opacity="0" stroke-width="0" stroke-linecap="round" stroke-linejoin="round" fill="#038103" fill-opacity="0" fill-rule="evenodd" d="M763 304L773 310L782 319L781 324L777 327L764 314L763 309z"></path><path class="leaflet-interactive" stroke="#038103" stroke-opacity="0" stroke-width="0" stroke-linecap="round" stroke-linejoin="round" fill="#038103" fill-opacity="0" fill-rule="evenodd" d="M625 341L625 349L616 358L616 364L621 369L638 366L640 364L640 358L635 353L628 349L628 341L626 341z"></path><path class="leaflet-interactive" stroke="#038103" stroke-opacity="0" stroke-width="0" stroke-linecap="round" stroke-linejoin="round" fill="#038103" fill-opacity="0" fill-rule="evenodd" d="M773 186L797 214L814 241L824 281L824 302L820 306L804 312L786 311L782 326L784 332L796 335L807 335L823 328L837 330L865 313L885 309L892 303L895 286L902 276L921 262L943 249L949 253L946 244L948 236L940 205L927 183L915 169L909 167L889 151L867 141L845 154L826 163L817 174L805 183L794 188L780 188z"></path><path class="leaflet-interactive" stroke="#038103" stroke-opacity="0.65" stroke-width="3" stroke-linecap="round" stroke-linejoin="round" fill="#038103" fill-opacity="0" fill-rule="evenodd" d="M639 204L631 206L617 213L609 223L609 233L616 246L617 256L621 260L625 260L655 245L658 242L684 233L714 232L723 235L723 233L713 225L677 207L669 205L639 204z"></path><path class="leaflet-interactive" stroke="#038103" stroke-opacity="0" stroke-width="0" stroke-linecap="round" stroke-linejoin="round" fill="#038103" fill-opacity="0" fill-rule="evenodd" d="M651 174L618 178L586 191L580 197L578 197L572 203L570 203L560 215L557 223L560 236L569 245L613 263L616 261L613 255L582 247L575 242L569 240L565 236L561 228L561 224L565 214L574 205L588 195L609 187L611 185L615 185L622 182L646 179L664 179L689 184L711 193L722 201L739 210L753 221L760 224L778 241L790 261L793 278L792 295L789 304L780 311L783 312L789 310L795 304L799 289L799 281L793 254L786 241L777 233L772 225L770 225L762 218L757 217L736 201L727 197L716 189L707 186L701 182L689 178L676 177L664 174L651 174z"></path><path class="leaflet-interactive" stroke="#038103" stroke-opacity="0" stroke-width="0" stroke-linecap="round" stroke-linejoin="round" fill="#038103" fill-opacity="0" fill-rule="evenodd" d="M709 247L687 249L662 261L655 266L650 282L652 284L655 281L657 275L663 269L683 258L694 255L712 255L722 257L727 261L733 263L749 279L753 281L753 283L759 291L762 289L755 266L749 264L748 261L728 250L718 247L709 247z"></path><path class="leaflet-interactive" stroke="#038103" stroke-opacity="0" stroke-width="0" stroke-linecap="round" stroke-linejoin="round" fill="#038103" fill-opacity="0" fill-rule="evenodd" d="M581 250L577 251L570 258L569 263L582 290L587 295L589 295L588 304L592 316L604 322L614 322L620 315L625 301L624 290L622 287L619 272L608 261L581 250z"></path><path class="leaflet-interactive" stroke="#038103" stroke-opacity="0" stroke-width="0" stroke-linecap="round" stroke-linejoin="round" fill="#038103" fill-opacity="0" fill-rule="evenodd" d="M623 321L621 324L627 333L631 333L636 328L633 325L629 325L623 321z"></path><path class="leaflet-interactive" stroke="#038103" stroke-opacity="0" stroke-width="0" stroke-linecap="round" stroke-linejoin="round" fill="#038103" fill-opacity="0" fill-rule="evenodd" d="M742 316L743 319L762 339L768 335L782 337L784 333L783 319L773 309L782 320L781 324L777 327L763 314L762 304L743 314z"></path><path class="leaflet-interactive" stroke="#038103" stroke-opacity="0.65" stroke-width="3" stroke-linecap="round" stroke-linejoin="round" fill="#038103" fill-opacity="0" fill-rule="evenodd" d="M889 313L890 310L904 328L919 344L921 357L922 404L938 419L935 421L919 405L919 377L916 346L896 322z"></path><path class="leaflet-interactive" stroke="#038103" stroke-opacity="0" stroke-width="0" stroke-linecap="round" stroke-linejoin="round" fill="#038103" fill-opacity="0" fill-rule="evenodd" d="M782 378L799 406L813 418L815 417L817 413L806 403L781 368L775 370L777 380L779 380z"></path><path class="leaflet-interactive" stroke="#038103" stroke-opacity="0" stroke-width="0" stroke-linecap="round" stroke-linejoin="round" fill="#038103" fill-opacity="0" fill-rule="evenodd" d="M782 378L798 404L805 412L812 417L801 419L790 429L787 442L787 456L785 452L783 433L783 394z"></path><path class="leaflet-interactive" stroke="#038103" stroke-opacity="0" stroke-width="0" stroke-linecap="round" stroke-linejoin="round" fill="#038103" fill-opacity="0" fill-rule="evenodd" d="M745 146L742 153L743 163L762 180L773 187L783 190L794 189L821 170L828 161L860 148L868 142L867 136L862 127L854 119L830 110L823 110L820 105L810 98L777 81L764 82L765 90L771 109L772 121L768 130L761 138z"></path><path class="leaflet-interactive" stroke="#038103" stroke-opacity="0" stroke-width="0" stroke-linecap="round" stroke-linejoin="round" fill="#038103" fill-opacity="0" fill-rule="evenodd" d="M743 319L755 330L765 345L773 362L774 368L783 367L786 365L788 362L788 352L786 343L783 338L784 322L779 313L774 310L782 320L779 326L773 324L765 316L762 304L745 312L743 315z"></path><path class="leaflet-interactive" stroke="#038103" stroke-opacity="0" stroke-width="0" stroke-linecap="round" stroke-linejoin="round" fill="#038103" fill-opacity="0" fill-rule="evenodd" d="M824 329L820 329L818 331L811 333L789 347L787 349L788 362L786 366L782 366L775 369L778 380L781 421L784 439L794 464L794 480L797 481L800 485L798 495L798 509L806 506L813 500L830 504L846 504L862 499L875 490L877 490L887 480L889 475L893 471L895 464L898 461L897 447L894 441L895 438L890 431L892 423L890 402L883 392L881 381L874 364L869 359L867 359L853 343L848 342L839 331L834 329L824 329z"></path><path class="leaflet-interactive" stroke="#038103" stroke-opacity="0" stroke-width="0" stroke-linecap="round" stroke-linejoin="round" fill="#038103" fill-opacity="0" fill-rule="evenodd" d="M640 58L634 60L629 59L615 62L595 60L575 64L555 72L553 76L550 78L529 84L506 93L498 98L492 104L488 117L481 118L474 124L469 136L458 148L455 157L447 165L441 174L435 190L432 224L436 230L435 248L442 273L452 285L452 287L472 309L474 309L488 320L496 322L499 325L506 328L520 333L558 341L576 341L596 336L607 329L621 314L625 304L624 287L620 275L610 261L572 245L560 235L558 231L558 221L560 217L578 198L585 193L596 188L599 185L615 179L647 174L661 174L680 177L690 181L697 182L720 192L739 205L741 205L745 209L747 209L751 213L753 213L772 228L789 246L797 276L798 292L797 297L792 304L783 312L784 329L782 337L785 344L788 347L794 345L809 334L821 329L833 329L839 331L848 342L853 343L862 352L862 354L874 364L881 381L883 393L890 403L892 415L890 431L893 434L895 440L902 447L908 450L914 450L921 445L922 442L927 438L934 424L946 409L952 395L953 382L957 378L961 370L966 355L967 347L966 324L964 314L964 292L962 282L957 266L949 253L947 245L948 235L946 231L946 223L940 205L925 179L916 169L910 167L902 159L897 157L893 153L877 144L867 141L868 136L866 131L856 121L833 110L823 110L820 107L820 105L815 101L790 88L785 84L777 81L758 82L745 68L731 64L717 62L693 62L675 64L672 67L668 67L667 64L660 61L640 58z"></path><path class="leaflet-interactive" stroke="#038103" stroke-opacity="0" stroke-width="0" stroke-linecap="round" stroke-linejoin="round" fill="#038103" fill-opacity="0" fill-rule="evenodd" d="M583 340L569 344L571 366L574 375L582 383L593 403L604 414L617 419L624 420L626 422L643 423L654 420L681 404L681 402L673 399L668 394L680 388L682 378L689 370L681 343L675 341L673 343L654 346L635 341L631 343L630 340L627 344L627 348L629 351L638 355L640 364L638 366L622 369L616 365L616 357L625 349L625 341L621 341L608 349L596 351L591 348L588 341L583 340z"></path><path class="leaflet-interactive" stroke="#038103" stroke-opacity="0" stroke-width="0" stroke-linecap="round" stroke-linejoin="round" fill="#038103" fill-opacity="0" fill-rule="evenodd" d="M715 319L703 319L671 324L649 334L632 333L630 336L630 340L631 342L639 341L649 345L661 346L663 344L672 343L682 334L686 335L681 338L681 344L689 370L706 371L722 378L737 380L744 386L753 406L754 427L749 442L749 446L744 458L735 470L730 471L729 478L734 493L752 514L761 530L765 554L770 555L794 550L794 511L798 509L798 495L800 485L799 482L794 480L794 464L780 428L777 398L767 362L759 345L739 325L731 320L716 319z"></path><path class="leaflet-interactive" stroke="#038103" stroke-opacity="0" stroke-width="0" stroke-linecap="round" stroke-linejoin="round" fill="#038103" fill-opacity="0" fill-rule="evenodd" d="M690 370L685 373L680 385L681 408L690 433L699 447L715 464L726 470L736 470L745 456L754 427L754 411L748 393L738 380L722 378L705 371L690 370z"></path><path class="leaflet-interactive" stroke="#038103" stroke-opacity="0" stroke-width="0" stroke-linecap="round" stroke-linejoin="round" fill="#038103" fill-opacity="0" fill-rule="evenodd" d="M645 283L691 308L710 315L742 315L744 312L749 311L763 303L762 301L765 297L755 262L749 253L742 247L736 247L727 244L698 244L679 248L666 254L657 261L647 276z"></path></g></svg>