<?xml version="1.0" encoding="UTF-8" standalone="no"?>
<svg
   width="100%"
   height="100%"
   viewBox="0 0 2547 2412"
   version="1.1"
   xml:space="preserve"
   style="fill-rule:evenodd;clip-rule:evenodd;stroke-linejoin:round;stroke-miterlimit:2;"
   id="svg1"
   sodipodi:docname="tim_taylor_canva_select.svg"
   xmlns:inkscape="http://www.inkscape.org/namespaces/inkscape"
   xmlns:sodipodi="http://sodipodi.sourceforge.net/DTD/sodipodi-0.dtd"
   xmlns="http://www.w3.org/2000/svg"
   xmlns:svg="http://www.w3.org/2000/svg"><defs
   id="defs1"><inkscape:path-effect
     effect="bend_path"
     id="path-effect3"
     is_visible="true"
     lpeversion="1"
     bendpath="#path1"
     prop_scale="0.79224542"
     scale_y_rel="false"
     vertical="false"
     hide_knot="false"
     bendpath-nodetypes="cc" /><inkscape:path-effect
     effect="powerstroke"
     message=""
     id="path-effect1"
     is_visible="true"
     lpeversion="1.3"
     scale_width="1"
     interpolator_type="CentripetalCatmullRom"
     interpolator_beta="0.2"
     start_linecap_type="zerowidth"
     end_linecap_type="zerowidth"
     offset_points="80.5,0.5 | 209.5,0.5 | 261,0.5 | 276.5,0.5 | 293.5,0.5 | 301,0.5 | 307,0.5 | 332.5,0.5 | 358,0.5 | 390.5,0.5 | 423,0.5 | 450,0.5 | 490,0.5 | 517.5,0.5 | 532,0.5 | 554.5,0.5 | 579,0.5 | 610.5,0.5 | 640,0.5 | 646.5,0.5 | 654.5,0.5 | 666.5,0.5 | 674.5,0.5 | 680.5,0.5 | 689.5,0.5 | 715.5,0.5 | 741.5,0.5 | 745.5,0.5 | 746.5,0.5 | 750,0.5 | 757,0.5 | 774.5,0.5 | 794,0.5"
     linejoin_type="round"
     miter_limit="4"
     not_jump="false"
     sort_points="true" /><inkscape:path-effect
     effect="fill_between_many"
     method="bsplinespiro"
     autoreverse="false"
     close="false"
     join="false"
     linkedpaths="#path1,0,1"
     id="path-effect2" /></defs><sodipodi:namedview
   id="namedview1"
   pagecolor="#ffffff"
   bordercolor="#000000"
   borderopacity="0.25"
   inkscape:showpageshadow="2"
   inkscape:pageopacity="0.0"
   inkscape:pagecheckerboard="0"
   inkscape:deskcolor="#d1d1d1"
   inkscape:zoom="0.33457711"
   inkscape:cx="1273.2491"
   inkscape:cy="1206"
   inkscape:window-width="1920"
   inkscape:window-height="1009"
   inkscape:window-x="-8"
   inkscape:window-y="-8"
   inkscape:window-maximized="1"
   inkscape:current-layer="svg1" />
    <g
   transform="matrix(1,0,0,1,-1857.814393,128.198027)"
   id="g1">
        <g
   id="brain_main_sketch"
   transform="matrix(4.166666,0,0,4.166666,-754.649421,-366.052208)">
            <path
   id="path1"
   style="fill:#808080;fill-rule:nonzero;stroke:#808080;stroke-width:1"
   d="m 753.70128,-97.505443 c -6.55256,0.579269 -12.90561,2.513061 -19.1379,4.354684 -5.54265,1.672756 -11.05947,3.511885 -16.15651,6.033118 -1.68687,1.2001 -1.65934,3.412305 -3.60883,4.43422 -4.84081,1.901059 -10.0467,3.01231 -15.20365,4.098463 -8.05755,1.688473 -16.38086,3.131193 -23.51663,6.874073 -2.53042,1.250542 -4.7116,2.969359 -6.28798,5.02206 -3.78546,4.819383 -5.32823,10.547678 -9.10964,15.394106 -5.60514,2.73934 -12.03037,4.382217 -16.97284,8.007318 -1.9036,1.479153 -2.07337,3.730484 -2.75993,5.663395 -0.41838,1.47036 -1.34682,2.815753 -2.59392,3.936315 -3.13187,3.036507 -7.47757,5.175737 -10.0483,8.60249 -1.06139,1.920327 0.0931,4.173685 -1.28118,6.03266 -2.77169,3.748572 -7.89459,5.882992 -10.49562,9.7320737 -1.8451,3.260631 -3.17368,6.6958438 -4.30764,10.14910628 -1.63734,5.13908242 -2.72983,10.38019102 -3.43385,15.63492002 0.1608,2.318229 2.66661,3.98781 2.71552,6.338417 0.26604,4.389329 -2.07905,8.738633 -1.28597,13.091657 0.24991,1.801589 2.27845,2.80853 3.73784,3.940789 1.17232,0.816166 2.06399,1.889291 2.44554,3.127829 1.45926,3.691955 1.592,7.665023 2.40743,11.456673 -0.0976,0.639224 0.6237,1.070155 0.91162,1.610911 4.27122,5.708278 8.69981,11.335714 13.00363,17.025347 -0.98062,0.429902 0.16747,0.264699 0.178,0.239343 0.41606,0.277364 0.88283,0.556793 1.19859,0.989322 7.12425,7.340971 14.24851,14.68195 21.37276,22.022921 6.15999,2.195047 11.12878,6.086332 17.32821,8.161112 2.54326,0.60419 5.36381,-0.18607 7.83648,0.70305 5.94731,1.73337 11.1549,4.78345 17.30137,6.1119 10.98501,2.68897 22.42848,3.6417 33.92433,4.0869 4.27788,0.15862 8.5701,0.35352 12.85774,0.45107 0.47611,-0.0364 0.93775,-0.15448 1.40506,-0.23708 1.38158,9.90435 0.69018,20.00649 2.72499,29.81979 0.56747,2.15868 2.84348,3.52161 4.52104,5.08779 0.6671,0.43411 1.68932,0.35001 2.27082,0.91992 2.80947,1.88 5.08342,4.28234 8.16325,5.85013 1.53421,0.53305 3.36616,0.40431 4.76326,1.22264 1.52576,0.72102 2.80363,1.87687 4.64152,2.07467 1.53618,0.37527 2.55222,1.47874 3.66582,2.34616 1.46935,1.29154 3.06121,2.60486 5.20026,3.11929 7.01024,2.20294 14.54575,3.02034 21.76187,4.67909 0.96886,0.32947 1.99,0.61185 3.07031,0.45921 5.98854,-0.23084 11.94127,-0.68883 17.82921,-1.72003 2.09646,-0.35045 4.05315,-1.13144 5.80694,-2.14788 4.94014,-2.62783 9.55476,-5.64774 14.25951,-8.5771 1.34111,0.70525 3.04151,0.7047 4.37395,1.44055 1.74731,0.71722 3.62769,1.53603 4.44759,3.08075 1.18223,1.98576 1.33474,4.32361 2.85467,6.18294 2.39786,3.34968 5.50289,6.31787 7.70322,9.77037 1.30113,1.95976 2.76639,3.89131 4.76341,5.37404 4.1392,3.34311 9.04091,5.95797 13.36871,9.12003 1.20774,0.98629 2.41561,1.99064 4.03432,2.56037 3.26207,1.41259 6.62216,2.74203 10.38747,2.94865 0.89785,0.0834 1.80326,0.10814 2.70814,0.12833 2.32852,5.12574 2.35287,10.82428 4.70562,15.91544 0.99757,2.21026 2.68174,4.28682 4.75225,5.95654 1.7283,1.42911 3.61646,2.65094 5.53662,3.89542 6.33001,11.6349 12.66269,23.26878 18.99372,34.9033 0.54658,-0.0954 1.19441,-0.38675 1.66238,-0.32565 7.37366,-1.99053 14.835,-3.7307 22.25137,-5.59956 2.38139,-0.59005 4.76277,-1.18011 7.14416,-1.77016 -0.20207,-1.47489 -0.37727,-2.95147 -0.28715,-4.44436 0.0679,-8.81944 0.13843,-17.63893 0.20449,-26.45832 1.57043,-0.88172 3.04768,-1.87007 4.57975,-2.79559 -1.39095,0.3292 -2.79455,0.61679 -4.19836,0.90281 -0.54319,-3.4299 -0.28409,-6.96299 -0.16408,-10.44037 0.55501,-2.03672 1.00273,-4.13945 0.75235,-6.20976 -0.0904,-0.45274 -0.58627,-0.75063 -0.81574,-1.10872 0.0131,-0.48542 0.18128,-1.05916 -0.61474,-1.09207 -0.59193,-0.3074 -1.11288,-0.74267 -1.79481,-0.96065 -1.27958,-0.5079 -2.82537,-1.1074 -3.06586,-2.39979 -0.97319,-3.18057 0.26966,-6.59983 -0.24899,-9.75926 -0.40047,-1.99373 -1.46033,-3.83087 -2.48964,-5.6154 -1.06695,-1.80657 -2.30622,-3.53635 -3.5088,-5.28108 0.43143,-4.92172 0.11615,-9.91414 1.55459,-14.76528 0.60342,-1.35359 2.49746,-1.72147 3.89264,-2.32476 4.21724,-1.87583 8.6803,-3.32125 12.91105,-5.17437 -0.2866,-1.46329 -0.57311,-2.9266 -0.85971,-4.38989 -0.60957,0.0902 -1.17195,0.10437 -1.37762,-0.45152 -2.23116,-2.81933 -4.78475,-5.45915 -6.89131,-8.3411 -0.14859,-0.37835 0.41739,-0.63959 0.31212,-1.03253 0.42128,-2.33135 0.74559,-4.67134 1.16991,-7.0024 -5.31182,-1.79993 -10.62261,-3.60178 -15.93502,-5.40051 0.55628,-0.99819 0.95962,-2.05564 1.54898,-3.03559 1.07253,-1.16648 2.99254,-1.28417 4.56995,-1.64282 1.07279,-0.25301 2.61745,-0.46983 2.89592,-1.53609 0.7934,-3.20484 -0.9021,-6.24721 -1.91262,-9.2662 -0.64423,-1.90581 -1.22698,-3.94032 -0.71252,-5.93923 0.67997,-1.65349 2.79249,-2.42177 4.35365,-3.4343 1.24302,-0.79126 2.1788,-1.87396 3.34739,-2.71756 9.3008,-3.296514 18.6015,-6.593085 27.90221,-9.889554 1.96522,1.990535 2.99633,4.613865 5.56247,6.180812 1.78499,0.737384 4.00523,-0.194233 5.76409,0.655032 3.5,2.40935 6.9199,4.91169 10.3891,7.35676 3.7084,2.65151 7.4536,5.27629 11.139,7.94449 3.1171,3.87531 3.977,8.59935 5.2866,13.05713 0.6838,2.28462 1.4105,4.60005 2.7576,6.67531 0.5195,0.48584 1.0275,0.97119 1.4785,1.50622 1.7306,1.8267 4.0086,3.33185 5.356,5.38431 0.5078,2.60295 0.4291,5.2694 0.9474,7.8721 0.5398,4.03663 -0.3849,8.19055 0.9844,12.10119 0.5517,1.58008 1.6973,2.99245 3.1573,4.03925 -0.468,7.74196 1.3829,15.43936 0.4391,23.2014 -0.6411,3.39154 -3.2266,6.26676 -5.6125,9.01868 -2.455,2.76026 -5.3403,5.27139 -8.655,7.35112 -5.3563,3.57511 -11.0312,7.13456 -17.7111,8.75646 -7.7459,1.83583 -15.8972,1.02874 -23.67975,2.69284 -2.71911,0.54605 -5.4837,1.22312 -8.18236,1.93578 3.51343,0.40268 6.90443,1.61072 10.53703,1.24044 8.16754,-0.41734 16.44838,-0.7662 24.26478,-3.11072 3.8986,-1.17815 7.6386,-3.03585 11.0489,-5.08263 3.1983,-1.94615 6.3004,-4.00639 9.2777,-6.17783 3.4373,-2.6624 6.2768,-5.72399 8.7689,-9.00512 2.066,-3.02677 2.6524,-6.55494 4.9246,-9.50575 1.2874,-1.82793 2.7771,-3.83273 2.479,-6.0197 -0.1483,-4.11892 -1.2135,-8.17618 -2.4147,-12.13405 -0.3758,-0.74905 0.637,-0.27808 1.1033,-0.16122 4.3957,1.41649 9.2196,2.33039 12.8925,4.86404 0.4623,0.32384 0.8976,0.67358 1.3002,1.04715 6.4355,-7.84803 12.6722,-15.8135 19.1668,-23.63299 0.4826,-0.54363 0.9662,-1.08671 1.4476,-1.63098 0.3039,0.35026 0.6218,0.69233 0.9061,1.05391 1.3811,-2.97904 3.4245,-5.72678 5.5613,-8.3893 1.9374,-2.44594 3.138,-5.19361 4.1893,-7.94508 4.3008,-10.80486 9.0242,-21.61019 11.2575,-32.806286 0.8762,-4.431121 1.4087,-8.9376 1.0682,-13.383341 -0.2657,-4.390195 -1.1677,-8.701759 -2.08,-13.008459 -1.1595,-8.245608 -2.7644,-16.410738 -4.8003,-24.521845 -1.8366,-6.412729 -5.4381,-12.274769 -8.8158,-18.185966 -1.1271,-1.871662 -2.6251,-3.56985 -3.9889,-5.31505 -1.48,-4.866456 -2.7547,-9.784264 -4.3905,-14.6120884 -0.8052,-4.9311966 -1.9614,-9.83119033 -4.4502,-14.3094907 -3.7159,-6.9802919 -8.5712,-13.4851679 -13.694,-19.7978489 -2.6287,-3.110406 -5.7723,-5.933186 -9.2893,-8.37333 -3.014,-2.803905 -6.8576,-4.880956 -10.7636,-6.766874 -2.9702,-1.695304 -5.9958,-3.343184 -9.0972,-4.900246 -0.5985,-0.147117 -1.2115,0.451777 -1.7272,0.03989 -6.9557,-3.003385 -14.1246,-5.675456 -21.3811,-8.175468 -2.3036,-0.84119 -4.6229,-1.983715 -7.2658,-1.871879 -3.1265,-3.625435 -3.6998,-8.36307 -7.02699,-11.888676 -1.981,-1.935498 -4.74631,-3.203203 -7.51457,-4.261593 -5.09503,-1.850371 -10.59532,-2.814314 -15.93041,-4.117052 -2.41156,-0.401532 -4.8968,0.06203 -7.34128,-0.0022 -1.40794,0.0623 -2.93183,0.484736 -4.27127,0.05725 -1.65547,-1.323626 -3.34025,-2.629612 -4.91114,-4.018588 -1.07066,-1.245057 -2.42066,-2.342802 -4.12532,-2.995075 -1.92136,-0.920648 -3.89767,-1.774721 -5.8405,-2.670238 -7.6917,-3.434976 -15.67793,-6.641027 -24.32301,-8.228641 -3.66465,-0.491639 -7.20782,0.563435 -10.78112,1.244837 -1.25151,0.221897 -2.5331,0.531397 -3.79944,0.531641 -0.61495,-0.128325 -1.2299,-0.256642 -1.84484,-0.384967 0.2864,0.679697 -0.41986,0.517562 -0.99099,0.469322 -3.02627,-0.167686 -5.61311,-1.6443 -7.57517,-3.413543 -2.58467,-2.21097 -4.58709,-4.898656 -7.89722,-6.452626 -3.89285,-1.73502 -8.53242,-1.65855 -12.87377,-1.68479 -12.0523,-0.0321 -24.12968,0.12971 -36.13764,1.47689 -5.54607,0.64658 -10.49688,3.18466 -15.93631,4.308788 -1.15216,0.197141 -2.3425,0.548605 -3.49601,0.248527 -8.45371,-1.216822 -16.90742,-2.433651 -25.36112,-3.650472 -7.83109,0.478193 -15.35545,3.096277 -23.24306,3.038089 -6.7314,0.03006 -13.38923,-1.161667 -20.14332,-0.555514 z m 43.49097,-0.0668 c 8.76971,1.435045 17.53943,2.870091 26.30915,4.305135 6.7193,-0.878799 12.44898,-4.604978 19.23359,-5.259389 12.47058,-1.461412 25.04849,-1.370715 37.56297,-1.350653 3.63818,0.02317 7.51698,0.369762 10.44202,2.23267 3.97447,2.404728 6.22399,6.308439 10.49248,8.429771 1.93791,0.952673 4.28536,1.180679 6.53807,1.000409 1.6117,7.395136 6.42695,14.014255 8.56588,21.352388 0.60594,2.212212 1.10058,4.494364 0.89725,6.787589 -0.46297,3.214092 -3.00911,5.929126 -5.58464,8.292317 -1.9145,1.650603 -3.72759,3.46905 -6.21181,4.563212 -3.43643,1.655225 -7.4704,2.512054 -10.42182,4.814077 0.75281,2.464722 -0.61699,4.964444 -1.94524,7.173606 -0.55167,0.888192 -1.09515,1.778953 -1.63518,2.671782 -18.14888,-2.764457 -36.29773,-5.529003 -54.44661,-8.293501 -7.53882,0.230188 -15.07766,0.460369 -22.6165,0.69055 -18.30048,4.604997 -36.09831,10.554468 -54.41279,15.131654 -1.78853,0.377585 -3.51217,-0.649795 -5.27217,-0.117283 -2.21018,0.849388 -3.59932,2.619068 -5.44737,3.834633 -6.58745,1.410514 -13.14438,2.933979 -19.73103,4.341344 -4.24181,0.557146 -8.50352,1.287463 -12.52416,2.656038 -0.91724,0.179571 -1.83448,0.359141 -2.75172,0.538712 -0.23774,0.41676 -0.31444,0.915421 -0.89312,1.120324 -2.84088,1.943332 -3.98393,4.9298321 -5.48934,7.574417 -1.08266,2.0615315 -2.50445,4.0362562 -4.50415,5.60631435 -0.46728,0.49230575 -1.35007,0.27570316 -2.01194,0.43522316 -0.93406,0.0966694 -1.86812,0.19333949 -2.80218,0.29001669 -0.75534,10.2604398 -2.2213,20.5048988 -2.94993,30.7614068 3.05237,2.550338 6.56419,4.776362 9.48467,7.467177 2.37684,2.23049 4.24226,4.8228 7.31938,6.488681 3.04218,1.63918 6.58933,2.508401 9.8574,3.791074 0.70891,0.228454 -0.57397,0.587052 -0.87806,0.794321 -1.49761,0.71135 -2.76886,1.835362 -3.16246,3.239615 -0.86005,2.838794 -0.0736,5.754933 -0.64843,8.617834 -0.19565,1.21879 -0.29476,2.662037 0.92101,3.536509 1.81694,1.583449 4.34945,2.421257 6.74025,3.283035 1.2929,0.249587 2.67142,-0.05634 3.95896,0.250967 1.57074,0.170238 3.38321,0.332887 4.34871,1.483734 2.18104,2.111636 2.91147,4.947372 5.08922,7.049716 1.05643,0.810589 2.34759,1.38283 3.47558,2.122977 1.60204,0.859584 3.58938,1.595848 4.23738,3.206306 1.89862,3.696856 2.28699,7.773752 3.45162,11.652782 0.22653,0.859503 -0.17856,1.895743 0.53675,2.618441 4.63409,2.244761 9.97042,3.269624 15.3585,3.587094 3.36884,0.17693 7.26978,-0.20093 9.86335,-2.307789 2.33327,-1.856243 3.84612,-4.265296 5.26272,-6.621023 1.48227,-2.693946 2.53568,-5.547294 3.09011,-8.446723 0.19644,-2.161803 -0.76816,-4.23914 -0.60856,-6.403038 -0.0933,-1.209423 -0.74083,-2.323662 -1.00027,-3.507947 -1.57777,-5.336354 -2.32259,-10.977269 -5.7471,-15.748981 -1.27859,-1.862139 -3.16676,-3.421871 -5.48423,-4.413671 -4.27358,-1.933157 -9.32034,-2.673523 -13.59887,-4.664736 -0.71923,-0.195606 -1.53328,-0.248975 -2.20882,-0.497662 -0.74804,-0.293581 0.0167,-0.754182 0.54589,-0.72131 1.01906,-0.05435 2.05786,-0.273394 3.03112,0.04639 6.62397,1.267959 13.57904,1.845092 19.7487,4.280083 4.90571,2.028253 8.57227,5.619001 10.96711,9.617877 2.31872,3.824798 3.81768,7.970353 4.85099,12.171696 0.97683,4.466595 0.93817,9.275221 -1.3717,13.558028 -2.92633,5.599512 -8.04398,10.196385 -13.31416,14.420407 -2.15399,1.70629 -5.06191,2.4729 -7.64789,3.60357 -3.29289,1.30038 -6.60181,2.67704 -10.15174,3.39134 -5.92275,0.79542 -11.8449,1.61541 -17.76802,2.39551 -12.82682,-0.56709 -25.79102,-0.83081 -38.28232,-3.26095 -4.68428,-0.89934 -9.33435,-2.01186 -13.60416,-3.81407 -3.64274,-1.43486 -7.16312,-3.13907 -11.05265,-4.12425 -2.16628,-0.36588 -4.5894,0.23811 -6.65486,-0.638088 -5.74747,-2.141721 -10.67035,-5.439116 -16.2879,-7.771469 -0.56833,-0.57046 0.62253,-0.539112 -0.14419,-0.959513 -5.84853,-5.602687 -12.6431,-10.496955 -18.27301,-16.255564 -0.55528,-0.726442 0.2957,-1.618888 -0.13301,-2.34588 -1.25115,-1.52326 -3.77958,-2.169917 -4.48688,-4.030496 -2.13879,-4.901455 -2.80892,-10.142717 -4.04628,-15.241263 0.35602,-2.038456 1.05615,-4.084904 1.66972,-6.110445 1.00904,-3.285754 2.08716,-6.645471 1.94905,-10.050767 -0.39206,-1.506653 -2.17933,-2.324466 -3.10964,-3.575848 -1.04029,-1.206575 -0.65069,-2.800023 -0.38044,-4.180671 0.66575,-2.837111 2.41174,-5.507123 2.56505,-8.412416 -0.14654,-1.678381 -1.68079,-3.206317 -1.02589,-4.95011 1.74072,-5.433956 4.54767,-10.6356351 7.92524,-15.54694635 3.02527,-4.15083435 7.53347,-7.51588475 10.05382,-11.91650865 0.66322,-1.881913 -0.69391,-3.915673 0.52702,-5.726686 2.04767,-3.35091 6.23922,-5.4658 8.1296,-8.893055 1.20336,-2.531588 0.5129,-5.471164 2.36717,-7.832954 1.27982,-1.651301 3.73299,-2.190134 5.91971,-2.479449 2.21898,-0.336454 4.76626,-0.487912 6.39948,-1.970368 2.81163,-2.240817 3.5345,-5.571401 4.11505,-8.55425 0.6734,-3.421725 0.96438,-7.068367 3.26031,-10.127441 1.38129,-1.802088 3.57497,-3.041269 5.6348,-4.275333 7.12467,-4.034504 15.46435,-6.065843 23.43628,-8.564262 4.22922,-1.328351 8.36439,-2.717353 12.22161,-4.662981 1.3937,-1.00571 1.48092,-2.632316 2.27216,-3.921211 0.67185,-1.309985 2.29656,-1.980211 3.61584,-2.788149 5.10987,-2.84218 10.78229,-4.860647 16.34952,-6.972927 4.48039,-1.65784 9.21177,-2.944862 14.09666,-3.251255 7.23988,-0.567687 14.59974,0.101642 21.70148,-1.612127 5.45452,-1.259121 10.65333,-3.300838 16.24253,-4.12248 z m 122.02352,7.422463 c 2.2242,-0.249201 4.44697,0.03713 6.55492,0.555613 3.66034,0.792501 7.20303,1.888727 10.64803,3.143281 0.64685,0.47667 -0.19965,0.857148 -0.78189,0.633038 -6.00037,-1.131131 -12.00575,-2.245605 -17.99778,-3.402091 -0.75136,-0.264304 -0.26934,-0.735915 0.34523,-0.784173 0.40912,-0.05939 0.81982,-0.102534 1.23149,-0.145668 z m -7.24917,1.779107 c 12.78308,2.964768 25.73169,5.478212 38.48492,8.520627 2.14253,0.612784 3.55215,2.141994 5.12625,3.383596 2.19082,1.845437 4.24307,3.81878 6.59536,5.528131 12.74143,5.834798 25.50784,11.63652 38.23367,17.492 0.879,0.238403 -0.2774,0.487717 -0.61935,0.691851 -7.02601,2.938258 -13.28601,6.90267 -19.74267,10.597862 -4.09467,1.46272 -8.5857,2.474076 -12.01012,4.965869 -1.66937,1.338866 -2.27036,3.240949 -3.28911,4.891689 -1.00642,1.201849 -1.88537,2.493212 -3.00034,3.637005 -2.57985,2.005345 -5.66084,3.506294 -8.26382,5.492742 -2.75402,2.03822 -5.67761,3.93039 -8.87149,5.477478 -2.59878,1.227104 -5.31581,2.553183 -8.34146,2.757762 -1.41166,0.170681 -2.7451,-0.308737 -3.81497,-0.997235 -0.96475,-0.43423 -1.6934,-1.133089 -2.07406,-1.982098 -0.59377,-1.202373 -1.08642,-2.464489 -2.11684,-3.470002 -1.47067,-1.717164 -2.74195,-3.60312 -5.05501,-4.655185 -7.34732,-3.037918 -15.81369,-3.670474 -23.29342,-6.447349 -0.99392,-2.646323 -1.98492,-5.293454 -2.97845,-7.939893 2.88662,-2.56712 7.14405,-3.419194 10.74372,-5.058054 1.60673,-0.683496 2.95684,-1.675938 4.17499,-2.808507 3.18722,-2.786963 6.54404,-5.677063 8.1401,-9.322968 1.14295,-2.593849 0.67044,-5.385455 0.0735,-7.988658 -1.5284,-5.94085 -5.14507,-11.285693 -7.30637,-17.097755 -0.71028,-1.895845 -1.21195,-3.847084 -1.48953,-5.827565 0.2315,0.05289 0.46301,0.105771 0.69451,0.158657 z m 58.02124,15.929138 c 1.92347,-0.118189 3.85705,0.04656 5.65961,0.569942 5.99781,1.398836 12.32397,2.482478 17.49232,5.433699 1.91635,1.027522 3.48371,2.465165 4.42944,4.18522 0.96755,1.682514 1.65133,3.478245 2.34828,5.244288 0.29651,0.709025 -0.57742,0.470088 -1.01491,0.223866 -10.20597,-4.958205 -20.41194,-9.916417 -30.61792,-14.874629 -0.70411,-0.399115 -0.10925,-0.723609 0.52093,-0.724576 0.39408,-0.01929 0.78816,-0.03858 1.18225,-0.05779 z m -311.4774,22.968691 c 0.17725,0.635855 -0.57855,0.979856 -1.04174,1.392824 -0.51536,0.366293 -1.02765,0.827224 -1.62595,1.053898 -0.85103,0.190131 -0.5931,-0.686984 -0.055,-0.896728 0.72805,-0.495331 1.38936,-1.136773 2.15805,-1.543136 0.18823,-0.0022 0.37645,-0.0046 0.56468,-0.0068 z M 814.852,-37.721223 c 0.81782,0.012 1.69067,-0.22614 2.435,0.119806 -0.40731,0.686494 -1.33685,0.976316 -1.95238,1.525156 -1.62365,0.476325 -3.33591,0.81392 -4.98863,1.250739 -0.89107,0.0041 -0.53996,-0.722463 0.0825,-0.894008 1.46784,-0.664101 2.91269,-1.412016 4.41063,-2.001114 z m 190.8848,-13.497716 c 6.0493,1.940608 12.1284,3.828219 18.1593,5.801691 4.1706,1.647971 8.3129,3.359998 12.3417,5.215814 6.7603,5.636174 15.2623,9.57984 22.3344,14.917047 4.5717,4.724763 8.7229,9.743074 12.2422,15.051021 2.8475,7.1693785 5.7318,14.3298886 8.5565,21.504796 0.469,1.094635 -0.2511,2.224248 -0.5891,3.282843 -0.476,1.1086 -0.7248,2.363304 -0.022,3.421594 0.4832,0.549749 0.065,0.674633 -0.6081,0.680616 -8.8957,1.137656 -17.7913,2.275304 -26.687,3.412952 -0.6534,2.779677 -1.6227,5.518055 -2.1688,8.309956 -0.052,1.179729 0.1614,2.593076 -1.066,3.480904 -1.1805,0.901657 -2.9134,1.187957 -3.8788,2.305826 -2.3712,2.098699 -4.2098,4.557656 -6.5911,6.645947 -1.7244,1.44715 -3.9528,2.776184 -4.4774,4.864757 -1.1038,3.626386 -0.1065,7.373373 -1.1079,11.011979 -0.4409,1.912445 -1.0762,3.793939 -1.649,5.685051 -0.4684,-0.366939 0.098,0.696234 -0.2626,0.935784 -0.1357,0.429556 -0.1042,0.95361 -0.7347,1.101739 -5.6118,2.900969 -12.4764,2.970541 -18.3245,5.392212 -8.6373,3.790275 -15.57175,9.693946 -24.03585,13.705822 -0.65021,0.221041 -1.35826,-0.111044 -2.04517,-0.04125 -1.27697,0.01515 -2.53402,-0.142368 -3.81004,-0.174065 -2.71996,-0.178854 -5.50252,-0.41409 -8.19713,0.0101 -10.1165,1.170954 -20.08134,3.143488 -30.18762,4.374631 0.10935,-3.725362 0.22035,-7.450741 0.32844,-11.176106 8.18847,-2.155052 16.88859,-1.537169 25.08827,-3.568199 2.04851,-0.48687 4.09902,-1.194742 5.58757,-2.513496 1.02229,-0.8333 1.79627,-1.740569 2.5609,-2.741143 0.56326,-0.14033 1.1265,-0.280999 1.68975,-0.421463 0.81306,-5.534978 1.09452,-11.103652 1.97624,-16.63218 0.35539,-0.894998 0.85144,-1.755077 1.01671,-2.693269 0.43392,-1.191748 0.48502,-2.430598 0.27092,-3.640981 -0.33604,-4.076903 0.28714,-8.236085 -1.05962,-12.182051 -0.54514,-1.724805 -1.76743,-3.210498 -3.1541,-4.539993 C 970.76123,22.935295 963.13175,17.160983 955.42513,11.527178 949.1622,4.1311757 941.25264,-2.1965397 934.0069,-8.9561621 c 1.41723,-0.8304393 3.09132,-1.2628469 4.78793,-1.4364469 1.65637,-0.175391 3.31992,-0.469047 4.78415,-1.188003 3.50853,-1.53564 6.78446,-3.434895 9.84281,-5.525558 2.85453,-2.067575 5.51721,-4.318906 8.5865,-6.179012 2.44396,-1.608292 5.17317,-3.236745 6.38597,-5.693647 1.0666,-2.008484 1.78937,-4.352956 4.07501,-5.719638 4.5289,-2.903928 10.36618,-3.745349 15.08532,-6.380024 6.14978,-3.203273 11.88782,-6.908926 17.95681,-10.212404 0.076,0.02394 0.1502,0.04796 0.2254,0.07196 z m -166.5763,12.416568 c 0.93173,0.127463 0.15592,0.764362 -0.0299,0.829068 0.71405,0.311263 0.12392,0.855091 -0.50712,0.737507 -3.3272,-0.177951 -6.62687,-0.28466 -9.96592,-0.339216 -0.78883,-0.272716 -0.14366,-0.876652 0.49827,-0.78279 3.3349,-0.148188 6.6698,-0.296376 10.0047,-0.444572 z m -19.48571,4.98107 c 2.47955,-0.02127 4.96738,-0.132615 7.42899,0.09445 4.52161,0.256407 9.04473,0.17866 13.57678,0.24666 6.0771,0.367184 12.15213,0.906593 18.0974,1.930139 9.10729,1.708831 17.32362,5.529898 26.44527,7.199334 1.83065,0.132468 3.53636,-0.650516 5.31251,-0.920681 2.65139,5.574278 8.28566,9.528376 13.27229,13.709514 1.56747,1.246511 2.93244,2.6552186 4.49847,3.9006677 1.15457,0.9098005 2.67095,1.439134 4.26417,1.6173005 4.28319,0.7115771 8.64725,0.9298033 13.01019,0.8271187 9.58494,15.0725168 18.62704,30.4079331 28.5743,45.3082981 2.77956,4.009839 5.97756,7.812727 9.36511,11.482337 0.55425,0.513342 1.25007,0.903968 1.91262,1.316379 -0.05,4.505735 -0.47279,9.013837 -0.40376,13.518155 -2.70157,1.189582 -5.36834,2.452567 -8.09194,3.595859 -2.73189,0.616999 -5.46367,1.234117 -8.19556,1.851029 0.23637,-0.592841 0.2864,-1.272613 0.63584,-1.812096 1.55347,-1.104219 2.78532,-2.559728 3.1432,-4.228053 0.66971,-2.222787 0.72938,-4.519781 0.58972,-6.773473 0.40445,-1.532272 0.89341,-3.075077 0.97361,-4.637231 -0.2716,-1.638025 -1.74916,-2.884971 -2.24016,-4.465668 -0.88516,-2.170946 -1.79487,-4.344023 -2.44498,-6.575866 -1.41958,-5.411828 -2.93871,-10.980277 -6.68721,-15.62637 -1.21107,-1.305622 -2.12127,-2.777694 -3.31605,-4.094357 -3.94659,-4.479542 -9.01815,-8.23476 -14.58464,-11.328382 -5.53994,-2.7876055 -12.41467,-3.0694633 -17.94951,-5.8827898 -6.37548,-3.0767094 -11.50683,-7.5824052 -17.92572,-10.5635478 -1.91081,-0.6223347 -4.19679,0.095713 -6.00861,-0.8239535 -4.47519,-1.8606708 -7.95212,-5.0335756 -12.70308,-6.5060909 -6.44457,-2.321748 -13.17202,-4.020634 -20.17492,-4.880883 -9.74022,-1.271541 -19.66878,-1.637679 -29.58347,-1.294679 -6.85447,0.256167 -13.71563,1.000688 -20.44932,2.306222 -5.66431,1.057318 -11.24841,2.409657 -16.81986,3.776975 -3.34967,0.957468 -6.82486,1.7580213 -10.11921,2.7366563 -1.97139,0.7828888 -3.58936,2.0539297 -5.54824,2.8626335 -5.85125,2.7443031 -12.3398,4.7789112 -17.27783,8.685352 -7.68246,5.9513715 -14.18464,12.8829022 -19.75875,20.2332102 -1.18817,1.770559 -2.15999,3.89913 -1.41598,5.876639 0.2529,0.776366 1.27656,1.235591 1.21849,2.095397 0.39259,1.694799 0.88533,3.417804 1.90704,4.924569 1.73615,2.10211 4.72969,3.08301 7.1806,4.508773 3.59259,1.956619 7.16796,3.883487 11.10959,5.341378 0.44524,0.311691 0.66032,0.623349 0.073,0.944957 -0.44056,0.263363 -0.69254,1.031319 -1.3114,0.821517 -3.53281,-0.657485 -7.05836,-1.347624 -10.59148,-1.998214 -0.49119,0.08938 -0.81232,0.363933 -1.33171,0.01475 -5.94884,-1.994677 -12.21445,-3.61883 -17.42596,-6.763419 -0.89142,-1.359669 -1.56355,-2.813239 -2.57768,-4.119966 -0.96122,-1.404283 -2.04917,-2.763218 -2.95418,-4.183965 -0.52042,-3.14068 -0.6374,-6.324059 -0.67024,-9.501938 0.51687,-0.136349 1.29052,0.08565 1.60604,-0.33032 1.3991,-1.675157 3.04292,-3.21995 4.80061,-4.645879 4.3896,-2.782149 9.06117,-5.399236 12.56979,-8.9767561 0.97909,-1.1418947 1.40074,-2.5083387 1.89218,-3.8157498 10.81605,-4.7065485 21.40037,-9.8314524 32.45909,-14.1612841 4.00798,-1.410553 8.52502,-1.526724 12.29893,-3.452675 10.6439,-4.822597 20.63402,-10.56906 31.02907,-15.731255 1.53096,-0.395217 3.11991,-0.677834 4.58873,-1.219936 1.58592,-0.770696 2.71804,-2.339114 4.72739,-2.410759 z m 70.0514,3.757606 c 0.82432,-0.05139 0.16222,0.694363 0.19361,1.091814 -0.0561,0.412142 -0.75195,0.458965 -1.10425,0.695966 -1.36391,0.711327 -3.06815,0.505144 -4.50916,0.161239 -5.14742,-1.06739 -10.01444,-2.797521 -14.94041,-4.36044 -0.66784,-0.458207 0.15877,-0.860275 0.7532,-0.65412 6.53567,1.02185 13.07134,2.043699 19.60701,3.065541 z m -71.85755,16.497268 c 7.31408,-0.617192 14.67009,-0.267368 21.85665,0.706236 7.39789,0.989836 14.6646,2.468798 21.92359,3.9340259 4.5302,0.9881888 8.97326,2.2366041 13.27125,3.7357878 2.35054,1.359046 4.61875,2.8869485 7.30624,3.7936754 0.79742,0.2249514 1.70653,0.064802 2.49096,0.2172007 4.25341,2.2814587 7.97423,5.166031 12.4157,7.1845526 0.60096,0.1314849 1.25041,-0.5460593 1.71273,-0.069335 3.42447,2.1543582 7.00335,4.2341612 11.15109,5.3131142 0.99302,0.21589 1.91803,0.547566 2.75027,1.034969 8.66614,4.320425 17.36271,8.902733 24.04637,15.231992 0.93841,0.942712 1.91474,1.900619 2.55342,3.005257 1.8918,4.329349 3.85325,8.640298 5.70198,12.981049 0.94365,3.565603 2.02371,7.083936 2.97727,10.648266 0.50837,2.10241 0.9425,4.245732 0.88503,6.405475 -0.92934,2.642236 -2.03743,5.242679 -3.09038,7.856223 -2.67372,2.302105 -6.35807,3.663348 -8.80571,6.156279 -1.08454,1.063291 -1.41279,2.468874 -1.27866,3.796952 0.0929,2.84307 1.08688,5.590457 2.35,8.177525 0.58529,0.839477 0.25041,1.839697 0.31816,2.769936 -0.0208,1.572236 -0.0416,3.144479 -0.0624,4.716715 1.2134,-0.127267 2.40044,-0.263155 3.61804,-0.407339 1.61681,2.922437 3.13413,5.954893 3.76984,9.13717 -4.23499,2.42985 -8.44308,4.89826 -12.6966,7.30193 -0.48702,0.12427 -1.17104,0.75031 -1.34417,0.0736 -3.92359,-5.89852 -7.68884,-12.054825 -13.67778,-16.73785 -0.44942,-0.795667 -0.92435,-1.588706 -1.57655,-2.284848 0.0173,-0.933543 0.0349,-1.86702 0.0873,-2.800615 -1.29532,-0.295284 -2.67329,-0.483362 -3.91797,-0.84431 -3.54351,-3.346481 -7.16222,-6.680987 -11.393,-9.459544 -2.01812,-1.027848 -4.5418,-0.841996 -6.83467,-1.070561 -5.03972,-0.345575 -10.14297,-0.35628 -15.18698,0.272553 -4.56343,0.485994 -9.14057,1.324322 -13.5136,2.670514 -10.02923,2.926021 -19.76557,6.508902 -29.51614,10.031078 -13.54377,1.297794 -27.0855,2.633861 -40.63052,3.908089 -0.98093,0.224582 -0.22143,-0.541447 -0.003,-0.914333 2.55572,-3.526213 4.42658,-7.463641 4.66431,-11.548514 0.35835,-4.426763 -0.61279,-8.768115 -2.08813,-12.981059 -1.21883,-3.564876 -2.8026,-7.108172 -5.03277,-10.273906 -2.32788,-3.353437 -5.54825,-6.305145 -9.51208,-8.444413 -2.88973,-1.588996 -6.36166,-2.609309 -9.793,-3.328461 -5.13869,-1.078539 -10.44482,-1.59735 -15.57038,-2.716694 -7.21838,-6.402865 -14.43813,-12.804701 -21.65864,-19.205948 1.48685,-1.383879 2.87136,-2.847392 4.42647,-4.178584 9.71278,-7.496668 19.09635,-15.2877119 28.94583,-22.6591769 4.29552,-1.8097775 8.54649,-3.7574948 13.0979,-5.0832821 2.51407,-0.663355 5.02269,-1.3512624 7.6096,-1.7745346 9.01689,-1.7310844 18.04742,-3.5482124 27.25332,-4.2768294 z M 1081.632,25.493525 c 4.727,8.728996 10.9994,16.838408 15.4392,25.702283 0.8922,2.227072 0.3838,4.675756 0.863,6.929992 1.0477,7.02242 3.0673,13.910261 4.108,20.944711 0.3151,3.351977 0.6365,6.70993 0.6972,10.077445 -0.2905,5.997851 -1.7331,11.948444 -3.5798,17.781224 -0.6254,1.59261 -1.3698,3.17802 -2.62,4.5325 -1.8029,2.14215 -4.2645,4.07304 -5.0311,6.66405 -0.4918,2.38619 1.1099,4.62803 0.6604,7.03425 -1.1295,2.62323 -2.0984,5.28991 -3.2944,7.8944 -1.4639,2.81929 -3.7301,5.29616 -5.5642,7.95802 -0.8757,-0.65043 -1.8346,-1.22256 -2.5152,-2.02846 -4.0673,-3.91491 -9.0443,-7.37463 -11.752,-12.14048 -1.7617,-2.97997 -1.5377,-6.43146 -1.2405,-9.68835 0.2373,-2.58989 0.4598,-5.18162 0.6691,-7.77124 0.3795,-2.18171 1.8286,-4.11668 2.9024,-6.11471 0.9665,-1.4434 2.3512,-2.7389 2.7844,-4.378997 1.2864,-3.401126 2.2894,-6.852921 2.8844,-10.348379 0.065,-0.664897 -0.3747,-1.310169 -1.1603,-1.511921 -4.6615,-2.090735 -9.6404,-3.670596 -14.4633,-5.49233 -7.9172,-4.94886 -16.7052,-8.945856 -24.9229,-13.572704 0.293,-1.17412 1.2195,-2.174762 1.6989,-3.304788 0.9831,-2.478342 1.1501,-5.091982 1.556,-7.649025 0.078,-0.849949 0.2527,-1.68496 0.7153,-2.465588 0.4877,-1.140117 1.2393,-2.278517 1.0366,-3.51204 -0.077,-0.586502 -0.029,-1.159711 0.337,-1.692439 0.3738,-0.801497 0.9527,-1.52097 1.7686,-2.071609 4.291,-3.456802 9.0421,-6.495726 13.8082,-9.487363 3.4372,0.349135 6.8849,0.639421 10.3217,0.989009 2.5957,-3.938369 5.1937,-7.875771 7.788,-11.814744 1.9774,-0.59128 3.9767,-1.128881 5.9288,-1.78028 0.059,0.105823 0.1179,0.211682 0.1769,0.317535 z m -329.35514,25.16515 c 1.35803,0.311948 2.7798,0.496711 4.09967,0.884745 5.35449,2.342917 10.70905,4.68571 16.06348,7.028702 3.35603,3.752368 4.43692,8.466003 5.53275,12.971438 0.44534,1.934293 0.99692,3.853231 1.58176,5.754754 0.12607,2.260373 0.29994,4.522334 0.39639,6.781729 -1.00256,3.712511 -2.71882,7.370584 -5.45026,10.501878 -1.31186,1.495773 -3.30309,2.616532 -5.53507,2.857699 -3.08351,0.367706 -6.17424,-0.148032 -9.13126,-0.743533 -1.9371,-0.448703 -3.86756,-1.059742 -5.45051,-2.079626 -1.03349,-0.964927 -0.38731,-2.384563 -0.84338,-3.525927 -0.89602,-3.642692 -0.98368,-7.460702 -2.88613,-10.870632 -1.14509,-1.522152 -3.36002,-2.119242 -4.86944,-3.344206 -1.33689,-0.848814 -2.73374,-1.701464 -3.55242,-2.95135 -1.61402,-2.045268 -3.27038,-4.181057 -3.81885,-6.631744 -0.0858,-1.453301 1.19022,-2.677012 1.42858,-4.093783 0.68516,-2.249878 1.36439,-4.500822 2.04333,-6.751817 0.5027,0.346753 0.9488,0.540887 1.31571,0.100985 2.22613,0.745437 4.4589,1.47833 6.67501,2.242276 -1.84062,-1.196786 -3.71202,-2.37116 -5.57021,-3.562881 0.64164,-0.696856 1.28479,-1.392789 1.92428,-2.090949 1.37578,0.619537 2.73922,1.258841 4.03568,1.982433 0.52208,-1.517242 1.04345,-3.034631 1.566,-4.551773 0.1483,0.03054 0.29659,0.06105 0.44489,0.09158 z m -14.8696,4.005806 c 0.85861,0.333736 1.9146,0.488683 2.61818,0.987626 0.20658,0.815944 0.7661,1.590906 0.61704,2.448143 -1.12614,-0.187399 -1.90878,-0.947687 -2.8717,-1.407286 -0.34519,-0.318833 -1.24195,-0.419597 -1.08876,-0.935387 0.15099,-0.347073 -0.0988,-1.231666 0.31666,-1.225265 0.13619,0.04406 0.27239,0.08811 0.40858,0.132169 z m 289.06304,17.111738 c 1.3479,0.947648 2.6957,1.895295 4.0436,2.842935 0.201,-0.457469 0.4095,-0.911992 0.619,-1.367137 0.1243,0.222649 0.1157,-0.577723 0.4188,-0.914739 0.2859,-0.275422 0.7099,-0.44968 0.9506,0.08229 0.8796,0.475948 -0.5995,0.478117 0.2663,0.911788 1.1965,1.122079 2.5778,2.125187 3.4743,3.441013 3.953,5.034279 7.2671,10.389101 11.7377,15.112751 1.3169,2.138447 2.6755,4.268813 3.8234,6.472452 0.2782,0.934419 -1.0611,1.777875 -0.4305,2.679675 1.0865,2.59277 2.5152,5.11593 4.5073,7.30854 0.7985,0.50312 1.8674,0.57632 2.7131,1.01794 0.2066,6.29925 0.1454,12.69088 1.9936,18.76958 0.6906,2.32212 1.6583,4.60696 3.4216,6.53405 4.2247,4.80334 10.7555,7.98095 14.6246,13.06057 -5.6286,6.88183 -11.0402,13.87921 -16.6247,20.78317 -2.5084,-2.22879 -6.2615,-2.95174 -9.6511,-3.91439 -2.0253,-0.56637 -4.0599,-1.2024 -5.7786,-2.25538 -0.3287,-0.7552 -0.4543,-1.59244 -0.906,-2.2982 -0.645,-0.53595 -1.7333,-0.6137 -2.2961,-1.2036 -0.6109,-1.06563 -0.8237,-2.23779 -0.8777,-3.4167 -0.4737,-5.46768 0.753,-11.0639 -1.1495,-16.34217 -0.3193,-0.57545 -0.5452,-1.16041 -0.5967,-1.80085 -0.2892,-1.2043 -0.5825,-2.48876 -1.4984,-3.47768 -1.6842,-1.51462 -4.6267,-1.8987 -5.7879,-3.84175 -3.2313,-5.57976 -2.9915,-12.14035 -6.4355,-17.65071 -1.124,-1.942 -3.0943,-3.42601 -5.2662,-4.57416 -2.7072,-1.62054 -5.604,-3.04603 -8.0167,-4.97096 -0.315,-0.3476 -1.0746,-0.57589 -1.0871,-1.00449 0.049,-0.42551 0.5667,-1.10775 -0.1565,-1.31698 -1.6061,-0.978859 -3.3756,-1.692691 -5.1028,-2.495599 -1.6925,-1.194903 -3.4102,-2.395044 -5.3421,-3.326175 -0.9312,-0.313592 -1.9466,-0.07824 -2.8798,-0.17159 -0.58245,-0.345068 -1.29393,-0.62449 -1.76472,-1.049789 -0.36814,-0.590136 0.66394,-0.496845 -0.1244,-1.063512 -1.42803,-1.792808 -2.85671,-3.58525 -4.28427,-5.378299 6.85887,-3.996429 13.08389,-8.79046 20.55229,-12.028291 4.0317,-1.626614 8.502,-2.130719 12.7198,-3.288558 0.063,0.045 0.128,0.08993 0.192,0.134902 z M 795.20016,94.655268 c 0.3196,4.235968 0.63698,8.472102 0.95407,12.708262 -8.50899,2.92573 -17.01712,5.85319 -25.52693,8.7772 -0.10207,-1.3294 -0.20029,-2.65908 -0.3014,-3.98855 -0.3597,-0.0994 -1.60563,-0.35804 -0.90939,-0.68433 1.01309,-0.57098 2.22958,-0.87201 3.30841,-1.36294 2.71435,-1.14442 5.52537,-2.13631 8.15458,-3.41624 2.09174,-1.06174 3.65914,-2.65809 5.40688,-4.05156 2.94574,-2.50797 5.75277,-5.200433 8.06274,-8.150777 0.6143,-0.410293 0.55766,-0.47008 0.85083,0.168951 z m 70.70564,1.627667 c 3.34392,-0.218338 6.70521,-0.53764 10.04126,-0.251841 2.21686,0.191539 4.45616,0.358647 6.61501,0.797971 1.87063,0.423616 3.57296,1.329319 5.54111,1.462533 1.16572,-0.136012 2.38735,-0.771644 3.53558,-0.27239 4.46001,1.281309 8.36638,3.523732 12.78843,4.870282 1.54519,0.2707 3.17343,0.24266 4.65867,0.72206 1.82376,0.55447 3.38051,1.53972 5.03528,2.34764 1.87537,1.01362 3.78525,1.99243 5.62552,3.04451 0.99795,1.74734 1.90808,3.5407 2.9081,5.292 -0.54075,0.22346 -1.35855,0.37525 -0.7222,0.90804 2.16923,3.55143 4.31582,7.12017 6.39569,10.70727 0.78491,2.24531 1.54476,4.49565 2.28271,6.75269 -2.39373,1.97707 -4.78419,3.95679 -7.17665,5.93489 1.70651,0.96492 2.61666,2.6905 4.54259,3.41462 1.18172,0.21054 2.4323,-0.0956 3.61125,0.17342 0.69037,0.0622 1.37674,0.14377 2.0531,0.2672 1.51728,5.1826 3.04215,10.36738 4.47077,15.56685 0.22463,2.08868 0.94826,4.09734 1.78101,6.05482 1.84585,6.28159 3.76674,12.53998 5.94626,18.74493 0.71482,-0.0136 1.42963,-0.0259 2.14438,-0.0405 1.00088,2.29362 2.14989,4.54619 2.84145,6.92776 1.24733,3.72452 2.49703,7.44827 3.83018,11.15096 0.81781,0.2817 0.6391,1.16892 0.93564,1.74548 1.516,5.07808 2.85223,10.18812 4.33222,15.26919 -0.0476,0.49206 0.15261,1.06422 -0.0119,1.507 -1.21728,0.79409 -2.43561,1.58702 -3.65331,2.38067 1.19239,9.34532 2.38565,18.69054 3.57747,28.03593 -7.37954,1.86258 -14.75796,3.72847 -22.13653,5.59383 -4.4677,-6.34939 -4.86339,-13.96774 -8.07082,-20.73054 -1.20609,-2.59245 -2.98317,-5.05843 -5.34478,-7.00014 -1.6474,-1.40904 -3.48719,-2.65346 -5.32308,-3.89281 -4.67367,-8.42583 -9.34504,-16.85257 -14.01784,-25.27874 2.73383,-1.02805 4.84178,-3.10734 6.16133,-5.25912 0.76134,-1.2089 1.22094,-2.52474 2.07352,-3.69643 4.76178,-8.40985 7.0943,-17.49896 8.58285,-26.55892 0.43126,-2.82891 -0.398,-5.58419 -1.10707,-8.34411 -0.10833,-1.65787 -0.68244,-3.25343 -1.09306,-4.85723 -0.0408,-1.1496 -0.0959,-2.33533 -0.80169,-3.34834 -2.50625,-4.63889 -4.61461,-9.61348 -8.92818,-13.35137 -3.10694,-2.60813 -7.14038,-4.29822 -11.37228,-5.35452 -3.00198,-0.49455 -5.93494,1.22617 -8.94176,0.65553 -6.33849,-1.00453 -11.89809,-3.93374 -18.28044,-4.80712 -3.64387,-0.36553 -7.37151,0.46968 -10.99476,-0.18587 -2.38329,-4.3497 -4.76763,-8.69901 -7.15355,-13.0477 2.31601,0.0724 4.72379,-0.27405 6.76467,-1.27046 0.94127,-0.3771 1.9149,-0.88702 2.95465,-0.94529 3.36307,0.80027 6.72613,1.60054 10.0892,2.4008 -2.04321,-4.36323 -4.0831,-8.72759 -6.12849,-13.090067 -1.67535,0.143336 -3.38265,0.149996 -5.04378,0.08184 -0.42395,-0.09535 -1.33663,-0.655827 -0.49193,-0.820043 0.84752,-0.235995 1.80777,-0.153498 2.69866,-0.267028 0.65852,-0.04657 1.31697,-0.09393 1.9755,-0.140503 z M 975.93578,89.06456 c 2.57595,-0.196728 5.13876,0.06304 7.70311,0.148774 0.81005,0.13977 0.44184,0.666931 -0.15323,0.821201 -4.71489,1.497529 -9.42968,2.99506 -14.14457,4.492589 -0.82128,0.15827 -0.74897,-0.43336 -0.2882,-0.786637 1.72852,-1.50092 3.45899,-3.000394 5.18638,-4.502208 0.56525,-0.06009 1.12985,-0.126398 1.69651,-0.173719 z m -9.42494,1.390548 c -0.31135,0.749468 -1.32817,0.994969 -2.01019,1.479562 -5.33423,3.066361 -10.65016,6.161244 -15.99579,9.20981 -0.56097,0.17838 -1.12182,0.35702 -1.68335,0.53426 0.25214,-2.836648 -0.69147,-5.581027 -1.90643,-8.197466 -0.1855,-0.455472 1.01587,-0.251905 1.43273,-0.421881 6.51333,-0.875151 13.00217,-1.889773 19.51262,-2.781681 0.21684,0.05913 0.43358,0.118267 0.65041,0.177396 z m -116.4556,9.441482 c 1.10379,-0.06365 2.24479,-0.156067 3.32729,-0.04267 0.85364,0.10298 0.23342,0.687533 -0.27289,0.822323 -0.7976,0.30845 -1.59562,0.6161 -2.39288,0.92516 -0.26938,-0.44587 -0.53836,-0.89191 -0.80916,-1.33717 -0.2117,0.59437 -0.50184,1.16684 -0.80257,1.73585 -1.33632,0.10409 -2.66804,0.36076 -4.00893,0.32886 0.44441,-1.03651 1.5088,-1.91174 2.85706,-2.09263 0.68511,-0.14948 1.48998,-0.291579 2.10207,-0.339736 z m 13.38736,-0.695135 c 0.65892,0.337267 0.77722,0.60997 -0.0848,0.767823 -0.65194,0.239082 -1.30388,0.478162 -1.95582,0.717252 0.34411,-0.822391 -0.76892,-0.45805 -0.14791,-0.0601 -0.07,0.28235 -0.77177,0.0876 -1.13396,0.23973 -0.39951,0.15533 -1.63659,-0.0842 -1.39725,0.3723 0.51158,0.52334 -0.56494,0.54206 -0.95813,0.77854 -0.88767,0.29783 -1.75621,0.69831 -2.65567,0.93284 -0.83494,0.2019 -0.57474,-0.53633 -0.17372,-0.8297 0.74562,-0.7066 1.49085,-1.41322 2.23748,-2.11879 0.62763,-0.07363 1.03149,0.22871 1.54237,0.0783 0.59455,0.0188 1.27076,-0.0692 1.82775,0.0388 0.41783,0.25177 0.28082,-0.849341 1.00418,-0.668447 0.58648,-0.08293 1.2363,-0.368671 1.78456,-0.329197 l 0.0714,0.05181 z m -7.41064,1.879345 c 0.0608,0.40958 0.43959,-0.0789 0,0 z m -14.76266,0.0727 c -0.0539,0.67711 -0.64724,1.1919 -1.04354,1.76123 -0.41212,0.11643 -1.66834,-0.0544 -0.95311,0.43936 0.54678,0.29018 -0.001,0.56498 -0.29474,0.83163 -0.34758,0.29458 -0.73401,0.55938 -1.15555,0.77898 -0.0171,-0.16756 -0.31072,0.23359 -0.68403,0.35556 -0.57829,0.28539 -1.17007,0.59259 -1.86545,0.48667 -1.69735,-0.008 -3.42017,0.10504 -5.09597,-0.0985 -0.31014,-0.16681 -1.45405,-0.5632 -0.71244,-0.74328 3.67203,-1.30901 7.4016,-2.51089 11.09589,-3.77846 0.23632,-0.0109 0.47262,-0.0222 0.70894,-0.0333 z m -33.92756,3.31904 c 0.51345,0.1648 0.33073,0.81761 0.54541,1.19163 0.29361,1.08385 0.59027,2.1671 0.88167,3.25141 -0.67819,0.0199 -1.35636,0.0414 -2.0345,0.065 -0.0913,-1.24279 -0.18468,-2.48542 -0.27654,-3.72817 0.59016,-0.22582 -0.23914,-1.1316 0.5296,-0.85065 0.1181,0.0236 0.23617,0.0472 0.35426,0.0708 z m -10.02048,5.80154 c 0.61005,0.71598 1.39842,1.38506 1.9024,2.12887 -0.26834,3.5571 -0.53669,7.11421 -0.80504,10.67132 3.64106,-0.73734 7.21736,-1.68642 10.8223,-2.54155 -2.18145,-2.23478 -4.36096,-4.47085 -6.5436,-6.70483 -0.034,-0.47382 -0.0683,-0.94761 -0.10008,-1.4216 1.48387,-0.13958 2.97776,-0.36032 4.45558,-0.44725 0.88634,0.007 0.0917,0.67445 1.02733,0.20434 0.45485,-0.051 1.25148,-0.6313 1.48089,-0.33292 0.73527,2.70514 1.46902,5.41059 2.20371,8.11585 2.55227,-0.58547 5.14089,-1.12412 7.78763,-1.17177 2.36837,-0.0823 4.66485,-0.3124 6.88077,-1.04504 1.93226,-0.60508 3.84758,-1.2831 5.75494,-1.91773 4.22415,-2.14731 8.89482,-3.8365 12.46817,-6.7528 0.37485,-0.37258 0.75048,-0.74326 1.06971,-0.14194 0.46193,0.38055 1.30075,0.38281 1.42162,1.00512 0.35217,0.52505 0.64205,1.06341 0.55899,1.68568 0.32567,6.71681 0.60162,13.43635 0.92877,20.15307 -2.57483,1.62649 -5.01872,3.54703 -6.32278,6.02833 -0.86684,1.51648 -1.45331,3.12404 -1.90178,4.74626 -1.24713,1.35194 -2.48902,2.7071 -3.73414,4.06027 0.90084,0.29977 1.80179,0.59935 2.70257,0.89925 -0.29467,1.73817 -0.60014,3.47615 -0.97378,5.20509 0.35456,0.75164 1.19554,1.2716 1.75085,1.92583 0.44339,0.44036 0.88632,0.88104 1.33017,1.32107 -4.95972,2.9738 -9.81014,6.10725 -15.12472,8.64173 -2.77586,1.08889 -5.88539,1.20524 -8.86089,1.5571 -3.69347,0.33486 -7.40711,0.56705 -11.11027,0.56746 -1.23759,-0.18757 -2.3426,-0.71608 -3.58194,-0.91562 -6.3624,-1.49092 -12.94533,-2.52163 -18.9919,-4.74114 -2.10477,-0.92529 -3.57315,-2.52515 -5.10364,-3.97386 -0.57035,-0.93021 -0.54422,-2.03 -0.79749,-3.04175 -0.33049,-1.67001 -0.45218,-3.39318 0.0315,-5.07236 0.37803,-1.28366 0.11799,-2.57931 -0.20678,-3.83143 -0.68252,-2.80179 -1.65435,-5.54786 -2.70544,-8.26043 -0.4712,-0.90046 -1.763,-1.16074 -2.75503,-1.55072 -2.19132,-0.70029 -4.6385,-1.31877 -6.02933,-2.98106 -4.63271,-4.77312 -6.84257,-10.84831 -11.71017,-15.48695 1.56498,-0.9473 3.08413,-1.98419 4.68015,-2.87317 1.82216,-0.28175 3.63315,-0.62711 5.40893,-1.08247 0.94673,0.31293 1.89303,0.62667 2.84015,0.93884 0.11785,1.63803 0.2328,3.27627 0.34969,4.91436 9.5154,-2.86055 19.03021,-5.72254 28.546,-8.58219 -0.008,0.90956 0.11938,0.22277 0.39308,-0.25626 0.12477,-0.0752 0.39449,0.27803 0.56278,0.35702 z m -3.42821,12.73088 c 0.30758,0.50069 0.0361,1.1995 0.29735,1.70075 1.00516,0.70729 2.01032,1.41458 3.01548,2.12186 0.0696,-0.92512 0.13912,-1.85023 0.20867,-2.77536 -0.6144,0.17836 -1.14053,0.2629 -0.96802,-0.41854 -0.19092,-2.54423 -0.38204,-5.08845 -0.57306,-7.63267 -0.66014,2.33465 -1.32027,4.6693 -1.98041,7.00396 z m 16.48274,-2.95862 c 0.45606,0.45176 0.82253,-0.44677 0,0 z m -16.75721,2.6296 c 0.9672,-0.35376 -0.81975,-0.43648 0,0 z m 59.04844,-3.25254 c 0.95203,1.60628 1.48883,3.36045 2.32756,5.00971 0.23689,0.4881 0.47364,0.97624 0.71062,1.46432 -1.02081,1.05319 -1.92571,2.20399 -3.01596,3.198 -0.56777,0.58683 -0.70145,-0.32219 -0.68222,-0.69311 -0.0751,-2.9295 -0.15016,-5.859 -0.22525,-8.78851 0.33758,-0.56939 0.25315,-0.58707 0.88525,-0.19041 z m -41.04844,4.67297 c 0.13976,0.53728 -0.9053,0.45313 -1.31957,0.69992 -4.05095,1.23773 -8.10086,2.47793 -12.15246,3.71412 -0.30664,-0.036 -0.1219,0.902 -0.2323,1.25498 -0.0432,0.56948 -0.0864,1.13896 -0.12955,1.70845 5.70331,-1.7157 11.40662,-3.4314 17.10993,-5.1471 -1.12311,-1.15129 -2.24622,-2.30259 -3.36933,-3.45388 0.0308,0.40785 0.0626,0.81564 0.0934,1.2235 z m 48.47115,3.93641 c 4.11124,-0.0377 8.41176,-0.67381 12.4603,0.23988 5.82251,1.12357 11.06527,3.67304 16.97673,4.45089 2.74559,0.11365 5.44853,-1.34834 8.16945,-0.62288 4.07075,0.92274 7.84322,2.85361 10.23422,5.72041 2.85476,3.2241 4.62379,6.98699 6.60683,10.60521 0.72549,4.30705 1.51488,8.60994 2.20064,12.91957 -0.10869,1.06087 0.0179,2.10975 0.0523,3.19095 -0.42564,2.36289 -0.85718,4.73209 -1.46966,7.06937 -3.28112,6.96005 -7.68043,13.57509 -11.02176,20.49387 -1.22378,0.66953 -2.46269,1.32186 -3.63633,2.0517 -1.56548,-0.17363 -3.18742,-0.3085 -4.6816,-0.62119 -3.44581,-0.57421 -7.1013,-0.89372 -10.20488,-2.29605 -1.78942,-1.7812 -4.11373,-3.09674 -6.22511,-4.5946 -1.87539,-1.31765 -3.86734,-2.55037 -5.53638,-4.04859 -1.45383,-1.41979 -2.95216,-2.81831 -4.33539,-4.28241 -1.45133,-2.11432 -2.74314,-4.31363 -4.38601,-6.33079 -2.33538,-2.99013 -4.61594,-6.07557 -5.87228,-9.51544 -0.438,-1.30338 -0.62317,-2.7469 0.11867,-4.03263 0.66388,-1.2104 1.31969,-2.46935 2.53078,-3.39824 1.26328,-1.02104 1.32031,-2.57439 1.6282,-3.88725 0.21386,-0.89768 0.22058,-1.86211 0.68962,-2.70393 0.4383,-0.26059 0.35762,-0.54869 0.0665,-0.86361 -2.05068,-3.32963 -5.47995,-6.11123 -6.42756,-9.87963 -0.67126,-2.85567 1.01366,-5.69355 1.48449,-8.43155 0.14066,-0.38413 -0.0142,-0.97391 0.24695,-1.22681 0.11047,-0.002 0.2209,-0.004 0.33135,-0.006 z m 85.81109,19.85913 c 2.01494,0.2109 3.99215,0.45961 6.01745,0.60097 0.9931,-0.22318 2.02928,-0.29168 3.03725,-0.46958 1.16888,-0.20748 2.33985,0.0837 3.2573,0.65621 2.15156,1.16521 3.88872,2.74389 5.76305,4.17559 -3.19484,1.33347 -6.3563,2.72346 -9.47054,4.18293 -1.26418,0.57244 -2.97553,0.95486 -3.51554,2.18067 -1.02276,3.44063 -1.28486,6.97524 -1.49471,10.4818 -0.18258,0.66289 -0.83266,0.38898 -0.99754,-0.0925 -0.78225,-1.97094 -0.62121,-4.08111 -1.17197,-6.09391 -0.3966,-1.61007 -0.62397,-3.24231 -0.77789,-4.88477 -0.41279,-3.6004 -0.82914,-7.20045 -1.23961,-10.80108 0.19755,0.0212 0.3951,0.0424 0.59275,0.0637 z"
   inkscape:linked-fill="path2"
   transform="translate(12.1945,-5.0212647)"
   inkscape:path-effect="#path-effect3"
   inkscape:original-d="m 832.43359,113.26562 c -6.79012,0.12596 -13.47682,1.97546 -20.03224,3.72005 -5.83265,1.5955 -11.65123,3.40282 -17.08898,6.10747 -1.82716,1.35547 -1.96539,4.14289 -4.04953,5.24987 -5.12723,1.94752 -10.57087,2.86716 -15.96224,3.75971 -8.42317,1.38375 -17.10146,2.43366 -24.73027,6.48851 -2.69947,1.34131 -5.07463,3.30427 -6.85223,5.74323 -4.26039,5.71848 -6.28015,12.78764 -10.53841,18.54054 -5.9773,2.93244 -12.71641,4.40907 -18.07813,8.51758 -2.07132,1.68681 -2.41563,4.50532 -3.26806,6.8754 -0.54147,1.81248 -1.5987,3.42068 -2.96709,4.71651 -3.4532,3.53424 -8.0886,5.82717 -10.99345,9.90434 -1.2374,2.31973 -0.21843,5.26271 -1.77335,7.4764 -3.13598,4.4638 -8.57122,6.67912 -11.53906,11.28516 -2.14523,3.93485 -3.7718,8.13703 -5.19935,12.37985 -2.07276,6.31871 -3.59223,12.81602 -4.71276,19.36624 -0.009,2.93316 2.44526,5.26565 2.31863,8.22927 -0.0566,5.5501 -2.79859,10.80942 -2.30981,16.36234 0.12165,2.29098 2.13441,3.74535 3.55174,5.30508 1.14556,1.13538 1.98281,2.5684 2.2824,4.16269 1.22445,4.78205 1.06196,9.79586 1.61602,14.64414 -0.14857,0.79572 0.56158,1.40461 0.8173,2.11186 3.96781,7.57923 8.10374,15.07118 12.10653,22.62994 -1.04202,0.45091 0.15249,0.34864 0.16525,0.31769 0.40748,0.38747 0.86703,0.78221 1.15957,1.35578 6.78235,9.89725 13.5647,19.79451 20.34705,29.69176 6.17703,3.33041 10.99988,8.6865 17.22657,11.86914 2.57304,0.99475 5.53657,0.25958 8.01548,1.60652 5.99281,2.72963 11.12487,7.04874 17.35323,9.28697 11.10766,4.39642 22.81809,6.64933 34.62067,8.26815 4.39254,0.59353 8.79713,1.23405 13.20433,1.7516 0.49294,-0.002 0.97713,-0.10814 1.46449,-0.1691 0.6767,12.59552 -0.79584,25.24918 0.56028,37.79022 0.42172,2.76974 2.66246,4.69504 4.27175,6.82111 0.65415,0.6079 1.71296,0.59614 2.26876,1.36713 2.75106,2.62534 4.91142,5.85893 7.96436,8.11612 1.53948,0.81229 3.43534,0.81888 4.81217,1.97769 1.51663,1.04814 2.74529,2.62086 4.62268,3.03906 1.55339,0.61385 2.51642,2.09652 3.59766,3.29102 1.41559,1.76116 2.95567,3.56102 5.1193,4.40555 7.05185,3.41863 14.74884,5.1414 22.05364,7.89391 0.97272,0.50396 2.00282,0.95345 3.1266,0.86076 6.18317,0.26073 12.34657,0.23223 18.48642,-0.52384 2.1849,-0.24816 4.25831,-1.05119 6.14054,-2.16929 5.28423,-2.85329 10.26282,-6.23013 15.3274,-9.48467 1.3277,1.01129 3.07847,1.16714 4.39493,2.21616 1.74502,1.06375 3.6194,2.26765 4.34726,4.28774 1.06769,2.60866 1.04868,5.56576 2.47359,8.04635 2.21661,4.43759 5.19004,8.46003 7.19553,13.00886 1.19207,2.58688 2.55526,5.15336 4.49974,7.20379 4.00998,4.58963 8.85988,8.33268 13.07767,12.71176 1.16922,1.3528 2.33721,2.72835 3.96093,3.5946 3.25226,2.0786 6.61169,4.06154 10.47289,4.6683 0.91814,0.18767 1.84849,0.30216 2.77863,0.41088 2.01148,6.66704 1.60746,13.84302 3.64649,20.46875 0.86067,2.87427 2.43833,5.64345 4.44439,7.93605 1.67185,1.95818 3.52389,3.67014 5.40717,5.41356 5.64128,15.22964 11.28538,30.45825 16.92774,45.6875 0.56994,-0.0698 1.25888,-0.3769 1.7361,-0.2569 7.74179,-1.82697 15.55499,-3.33069 23.33159,-5.00055 2.4963,-0.52356 4.9926,-1.04712 7.4889,-1.57068 -0.097,-1.8753 -0.1662,-3.75026 0.039,-5.62132 0.734,-11.0963 1.4707,-22.19242 2.2028,-33.28884 1.6833,-0.96539 3.2787,-2.07359 4.9258,-3.09765 -1.4569,0.28636 -2.9237,0.51918 -4.3906,0.75 -0.301,-4.36782 0.2318,-8.79168 0.6172,-13.15821 0.7248,-2.51288 1.3441,-5.11873 1.2422,-7.74804 -0.059,-0.57826 -0.5471,-0.99892 -0.7564,-1.47083 0.05,-0.60989 0.2664,-1.31666 -0.5507,-1.43138 -0.5863,-0.44147 -1.0899,-1.03738 -1.7756,-1.37458 -1.2792,-0.75718 -2.8256,-1.65419 -2.9759,-3.30329 -0.7625,-4.09353 0.7746,-8.28352 0.4785,-12.30859 -0.2622,-2.54672 -1.2151,-4.95702 -2.1405,-7.29828 -0.9625,-2.37248 -2.1082,-4.66414 -3.215,-6.97126 0.8148,-6.15609 0.8661,-12.46995 2.7124,-18.44448 0.7232,-1.64845 2.701,-1.93718 4.1829,-2.5682 4.4833,-1.97317 9.1873,-3.38188 13.6828,-5.32521 -0.1849,-1.86849 -0.3697,-3.73698 -0.5546,-5.60547 -0.6344,0.0574 -1.2145,0.0235 -1.3844,-0.69523 -2.0849,-3.7546 -4.5153,-7.3129 -6.4672,-11.13484 -0.1245,-0.48998 0.4779,-0.76674 0.3991,-1.27109 0.6093,-2.89609 1.1194,-5.81198 1.7318,-8.70743 -5.3335,-2.75492 -10.6658,-5.51216 -16,-8.26562 0.6479,-1.20539 1.1428,-2.49945 1.8234,-3.67882 1.1921,-1.3697 3.1778,-1.3411 4.8289,-1.64736 1.1236,-0.21975 2.7303,-0.35048 3.0973,-1.66713 1.0582,-3.96145 -0.4584,-7.9475 -1.2715,-11.84106 -0.5198,-2.45848 -0.9666,-5.07332 -0.2864,-7.54233 0.8246,-2.01893 3.0575,-2.79161 4.7411,-3.92253 1.3394,-0.88165 2.3844,-2.15849 3.6511,-3.11288 9.8243,-3.29361 19.6485,-6.5873 29.4727,-9.88086 1.8735,2.68676 2.7376,6.08413 5.2617,8.29297 1.7823,1.09261 4.1384,0.12423 5.8854,1.35528 3.4221,3.35529 6.7548,6.82028 10.1426,10.2177 3.6185,3.67934 7.2769,7.3284 10.8705,11.02663 2.9176,5.1655 3.4472,11.19164 4.4599,16.92399 0.532,2.93899 1.1059,5.92073 2.3366,8.65725 0.4983,0.65943 0.9847,1.31719 1.4088,2.03225 1.6443,2.45891 3.8764,4.56344 5.1091,7.27127 0.3268,3.32353 0.045,6.673 0.3827,9.99719 0.2518,5.1313 -1.013,10.27544 0.1023,15.32449 0.4491,2.03992 1.5222,3.92338 2.9466,5.37559 -1.0648,9.70306 0.2613,19.56351 -1.2949,29.24804 -0.9154,4.2105 -3.794,7.592 -6.4577,10.83666 -2.7355,3.24879 -5.8953,6.14435 -9.4647,8.4573 -5.784,4.00747 -11.8949,7.96591 -18.8946,9.39269 -8.1134,1.59794 -16.4452,-0.16854 -24.5834,1.20984 -2.8407,0.43707 -5.7381,1.03489 -8.5703,1.68359 3.5871,0.83039 6.9875,2.66335 10.7555,2.53166 8.4407,0.22657 16.9929,0.54978 25.2172,-1.68205 4.1027,-1.12422 8.0933,-3.1185 11.7586,-5.38116 3.4395,-2.15551 6.7886,-4.46348 10.0175,-6.92295 3.7395,-3.03516 6.8936,-6.62789 9.7065,-10.52898 2.3551,-3.62012 3.2245,-8.00765 5.7861,-11.51316 1.4632,-2.18259 3.1479,-4.56924 3.0057,-7.3498 0.1574,-5.19885 -0.6338,-10.40449 -1.5725,-15.49753 -0.3306,-0.97757 0.6767,-0.29144 1.1481,-0.10138 4.4191,2.18787 9.317,3.78247 12.9078,7.31016 0.4516,0.45024 0.8734,0.93058 1.2598,1.43793 7.2169,-9.28719 14.238,-18.74052 21.5136,-27.98633 0.5378,-0.63993 1.0766,-1.27908 1.6133,-1.91992 0.2865,0.46891 0.588,0.92879 0.8535,1.41015 1.6463,-3.62308 3.9571,-6.894 6.3576,-10.04905 2.1789,-2.90077 3.622,-6.24919 4.9116,-9.61616 5.2416,-13.206 10.9185,-26.37366 14.0609,-40.26252 1.2358,-5.49755 2.1234,-11.12161 2.1076,-16.74958 0.057,-5.55116 -0.5471,-11.06192 -1.1621,-16.5675 -0.5729,-10.48692 -1.6105,-20.91354 -3.0959,-31.31183 -1.4081,-8.2419 -4.6748,-15.95304 -7.7074,-23.70546 -1.0195,-2.45995 -2.434,-4.73567 -3.7067,-7.05821 -1.1574,-6.26251 -2.0995,-12.57076 -3.4202,-18.79898 -0.4577,-6.28188 -1.2792,-12.5568 -3.5044,-18.42354 -3.3003,-9.12941 -7.8095,-17.76523 -12.6086,-26.18373 -2.4723,-4.15762 -5.4964,-8.00056 -8.9338,-11.39619 -2.892,-3.80724 -6.693,-6.77585 -10.5726,-9.50959 -2.9305,-2.40763 -5.9215,-4.76065 -8.9975,-7.00633 -0.6051,-0.2403 -1.2814,0.45719 -1.7813,-0.1088 -6.9354,-4.42126 -14.1153,-8.44507 -21.3983,-12.26034 -2.3085,-1.27104 -4.6104,-2.92286 -7.3399,-3.02539 -2.9461,-4.85181 -3.1796,-10.86867 -6.3398,-15.61328 -1.8939,-2.61893 -4.6456,-4.4694 -7.4161,-6.05664 -5.1065,-2.79846 -10.697,-4.51833 -16.0919,-6.64949 -2.4527,-0.7275 -5.0464,-0.37274 -7.5584,-0.67864 -1.4543,-0.0512 -3.0551,0.3403 -4.402,-0.32116 -1.6048,-1.81869 -3.2411,-3.61787 -4.7539,-5.51104 -1.0086,-1.66594 -2.3159,-3.17215 -4.0219,-4.15022 -1.9089,-1.33587 -3.8794,-2.59299 -5.8123,-3.8992 -7.6607,-5.03234 -15.6419,-9.80361 -24.4233,-12.59813 -3.7361,-0.9563 -7.46358,0.0457 -11.19395,0.57452 -1.30526,0.16412 -2.64809,0.43575 -3.95193,0.31947 -0.62348,-0.21816 -1.24697,-0.43631 -1.87045,-0.65447 0.2437,0.88202 -0.47126,0.61289 -1.05566,0.49958 -3.10321,-0.48971 -5.65543,-2.58674 -7.54234,-4.99463 -2.49469,-3.02129 -4.354,-6.5891 -7.64509,-8.8501 -3.87743,-2.54257 -8.66007,-2.87345 -13.12794,-3.30617 -12.4066,-1.15007 -24.85362,-2.05823 -37.31842,-1.46782 -5.75891,0.30336 -11.04736,3.04268 -16.73243,3.95703 -1.20111,0.1421 -2.45314,0.47496 -3.6182,-0.009 -8.61229,-2.31012 -17.22458,-4.62025 -25.83687,-6.93037 -8.09887,-0.11899 -16.04307,2.48411 -24.15975,1.68468 -6.9329,-0.58189 -13.69805,-2.69508 -20.69768,-2.55383 z m 44.78321,3.91993 c 8.92122,2.61393 17.84244,5.22786 26.76367,7.84179 6.98434,-0.48768 13.16418,-4.65096 20.19887,-4.85015 12.94972,-0.69162 25.89307,0.58055 38.77644,1.75796 3.74412,0.36412 7.71162,1.15754 10.58296,3.772 3.91103,3.39316 5.93319,8.51454 10.16829,11.57801 1.92353,1.37771 4.32329,1.88086 6.65625,1.86132 1.10256,9.45792 5.56192,18.23387 7.21161,27.66857 0.4573,2.84068 0.79474,5.75916 0.41272,8.62732 -0.71869,4.00351 -3.54463,7.18698 -6.37433,9.92482 -2.09545,1.90164 -4.09913,4.02391 -6.73926,5.17261 -3.66278,1.76734 -7.88066,2.47459 -11.09277,5.10082 0.5895,3.17208 -1.00907,6.1928 -2.54297,8.85157 -0.63488,1.06733 -1.26152,2.13865 -1.88476,3.21289 -18.47788,-5.15099 -36.95573,-10.30209 -55.4336,-15.45313 -7.77929,-0.40429 -15.55859,-0.80859 -23.33789,-1.21289 -19.18887,4.11226 -37.96145,9.96332 -57.16265,14.03928 -1.86989,0.31067 -3.56719,-1.14136 -5.41938,-0.63303 -2.33955,0.86579 -3.90306,2.9657 -5.89734,4.3258 -6.88863,1.16918 -13.75434,2.48336 -20.64191,3.64865 -4.40931,0.31085 -8.85214,0.83787 -13.09483,2.19057 -0.95791,0.14161 -1.91582,0.28322 -2.87373,0.42483 -0.27616,0.50276 -0.39268,1.12345 -1.00391,1.32812 -3.0713,2.18486 -4.47305,5.83925 -6.22215,9.02985 -1.26994,2.49553 -2.8825,4.85056 -5.05961,6.64296 -0.51818,0.57673 -1.41079,0.22278 -2.10426,0.36266 -0.96898,0.0357 -1.93797,0.0714 -2.90695,0.10711 -1.55029,12.84705 -3.83102,25.60856 -5.35351,38.45312 2.95067,3.49157 6.39882,6.61717 9.20312,10.27344 2.27924,3.02673 4.00468,6.46186 7.04743,8.84229 3.0088,2.3436 6.59548,3.76441 9.8637,5.68001 0.71269,0.35286 -0.63517,0.68618 -0.96386,0.91911 -1.5955,0.75762 -2.98901,2.05557 -3.5,3.78711 -1.09926,3.4945 -0.50915,7.23795 -1.31653,10.78906 -0.29321,1.51629 -0.50393,3.32403 0.68198,4.53681 1.75149,2.16064 4.29587,3.44849 6.69254,4.75347 1.31237,0.43323 2.75473,0.17502 4.05724,0.68042 1.60441,0.35892 3.45827,0.73054 4.36569,2.2682 2.08659,2.85908 2.62512,6.49616 4.70902,9.34324 1.02666,1.11769 2.31295,1.95694 3.41859,2.99254 1.58473,1.2296 3.57546,2.33943 4.12137,4.42645 1.67645,4.82867 1.76933,9.99672 2.67635,14.98715 0.16851,1.10286 -0.32659,2.37006 0.35547,3.3457 4.60222,3.25251 10.01932,5.03397 15.54297,5.92969 3.45523,0.53288 7.50008,0.41635 10.32905,-1.99714 2.5421,-2.12196 4.28113,-5.01537 5.91704,-7.85051 1.72899,-3.25487 3.02843,-6.74989 3.81759,-10.34886 0.36503,-2.70335 -0.4717,-5.40726 -0.14444,-8.11664 -0.005,-1.5311 -0.58779,-2.9934 -0.76573,-4.50815 -1.22265,-6.86305 -1.56477,-14.03282 -4.73134,-20.35508 -1.17621,-2.46191 -3.00282,-4.59925 -5.3142,-6.06116 -4.25451,-2.82705 -9.39489,-4.22371 -13.65012,-7.1243 -0.72579,-0.31246 -1.55991,-0.45459 -2.23672,-0.82985 -0.74808,-0.43845 0.074,-0.94788 0.61636,-0.85778 1.05331,0.0254 2.13935,-0.15471 3.11734,0.33746 6.72455,2.20604 13.84201,3.5729 20.01093,7.20626 4.89818,3.00496 8.40288,7.86282 10.5675,13.11738 2.09935,5.02841 3.33052,10.38514 4.07806,15.76923 0.66942,5.71281 0.26753,11.7627 -2.43319,16.94155 -3.43458,6.77966 -9.04983,12.09538 -14.79405,16.92769 -2.34623,1.94969 -5.39794,2.64703 -8.14559,3.83232 -3.48827,1.33386 -6.99878,2.76226 -10.70757,3.33464 -6.15794,0.45605 -12.31711,0.94309 -18.47428,1.37982 -13.16376,-1.8948 -26.49181,-3.42035 -39.16984,-7.62961 -4.7552,-1.56342 -9.45913,-3.39205 -13.71961,-6.05391 -3.64252,-2.14167 -7.13876,-4.61117 -11.06923,-6.20947 -2.20285,-0.66004 -4.74317,-0.12278 -6.80378,-1.41596 -5.75632,-3.2253 -10.57661,-7.82953 -16.18481,-11.28285 -0.54219,-0.77046 0.68155,-0.62136 -0.0762,-1.22118 -5.59976,-7.59152 -12.22691,-14.37833 -17.58984,-22.14601 -0.51701,-0.96562 0.42635,-2.01075 0.0397,-2.96541 -1.17349,-2.03278 -3.72806,-3.07962 -4.31619,-5.48697 -1.83303,-6.36722 -2.12834,-13.027 -3.01841,-19.55934 0.52005,-2.53338 1.395,-5.04514 2.17925,-7.53855 1.28631,-4.04345 2.64932,-8.17365 2.76354,-12.4732 -0.29022,-1.93278 -2.06881,-3.12685 -2.93243,-4.78783 -0.98022,-1.6147 -0.45911,-3.58478 -0.0769,-5.29796 0.89908,-3.51027 2.89779,-6.71073 3.27441,-10.35401 -0.0245,-2.12636 -1.48911,-4.19109 -0.68353,-6.32601 2.20141,-6.6804 5.48312,-12.97023 9.33046,-18.84199 3.42736,-4.94685 8.32238,-8.76797 11.24868,-14.07576 0.82455,-2.30803 -0.41961,-4.99322 0.97383,-7.16065 2.36059,-4.02985 6.83545,-6.30633 9.03984,-10.44677 1.4296,-3.07616 0.94005,-6.84028 3.02704,-9.64276 1.44204,-1.96095 4.00839,-2.41342 6.28161,-2.57631 2.30999,-0.21926 4.94407,-0.17541 6.73726,-1.89127 3.06357,-2.56205 4.05862,-6.68828 4.88096,-10.38986 0.95098,-4.24552 1.52516,-8.80939 4.11938,-12.449 1.55787,-2.14143 3.90978,-3.49944 6.1235,-4.86333 7.63933,-4.42299 16.3788,-6.21239 24.77481,-8.62364 4.45441,-1.28286 8.81656,-2.65073 12.93445,-4.74491 1.51067,-1.13775 1.72296,-3.17741 2.63466,-4.72712 0.79038,-1.58725 2.51364,-2.2814 3.93281,-3.17703 5.47512,-3.1075 11.46741,-5.12626 17.35847,-7.2728 4.73783,-1.67452 9.70615,-2.85912 14.75869,-2.7951 7.49691,-0.0481 15.0242,1.47209 22.46518,-0.0315 5.71077,-1.0829 11.21719,-3.17453 17.03368,-3.6943 z m 125.0762,20.57812 c 2.3088,-0.10894 4.5758,0.45615 6.7071,1.30293 3.709,1.33465 7.274,3.04082 10.7265,4.93731 0.6301,0.65962 -0.2701,1.06066 -0.8527,0.72493 -6.0928,-1.97638 -12.192,-3.93225 -18.2743,-5.93978 -0.7537,-0.4019 -0.2219,-0.95122 0.4145,-0.95539 0.4257,-0.0371 0.8518,-0.0536 1.2789,-0.07 z m -7.59769,1.57227 c 12.93819,4.90915 26.08079,9.26538 38.98239,14.26953 2.1598,0.96867 3.496,3.02353 5.0232,4.73147 2.1167,2.52487 4.0811,5.198 6.3743,7.56642 12.6792,8.51832 25.3866,16.9973 38.0482,25.54022 0.887,0.38104 -0.3224,0.58843 -0.6898,0.81393 -7.4552,3.05204 -14.199,7.4664 -21.125,11.52374 -4.326,1.4644 -9.0261,2.3241 -12.7395,5.14568 -1.8196,1.53177 -2.5816,3.87092 -3.7548,5.8552 -1.1267,1.42032 -2.1289,2.96506 -3.363,4.3023 -2.8072,2.28696 -6.0924,3.89281 -8.922,6.15385 -2.989,2.31231 -6.1416,4.42515 -9.5465,6.07869 -2.7681,1.30551 -5.6654,2.72473 -8.796,2.70371 -1.4663,0.0849 -2.8031,-0.64139 -3.8528,-1.60662 -0.9606,-0.63546 -1.6582,-1.58232 -1.9862,-2.68616 -0.5208,-1.5683 -0.933,-3.2025 -1.9182,-4.56318 -1.3849,-2.29709 -2.5518,-4.78831 -4.8541,-6.32568 -7.33604,-4.50079 -16.00536,-6.07656 -23.49738,-10.26092 -0.82407,-3.42289 -1.64508,-6.84653 -2.46874,-10.26953 3.16535,-2.96592 7.61295,-3.64661 11.44257,-5.37832 1.70575,-0.71251 3.17054,-1.83757 4.51003,-3.15118 3.4914,-3.215 7.1652,-6.54422 9.08302,-10.98701 1.3721,-3.1601 1.0958,-6.71788 0.6772,-10.04994 -1.1263,-7.61949 -4.44756,-14.68094 -6.23519,-22.19657 -0.58855,-2.45202 -0.95815,-4.95457 -1.09482,-7.4733 0.23437,0.0879 0.46875,0.17578 0.70312,0.26367 z m 58.53909,25.39453 c 1.9893,0.0283 3.9677,0.41371 5.7842,1.23854 6.07,2.31315 12.5018,4.25974 17.6009,8.45078 1.8957,1.46995 3.4012,3.42406 4.2454,5.67646 0.8695,2.20715 1.4383,4.5307 2.0229,6.81809 0.2519,0.91987 -0.6299,0.53862 -1.0618,0.18838 -10.1347,-7.18137 -20.2694,-14.36275 -30.4041,-21.54413 -0.6949,-0.56726 -0.058,-0.92099 0.5909,-0.86419 0.4072,0.012 0.8144,0.024 1.2216,0.0361 z m -322.42581,0.23828 c 0.13462,0.81678 -0.66946,1.18025 -1.17745,1.65748 -0.5582,0.41367 -1.12035,0.94676 -1.75343,1.17703 -0.89054,0.161 -0.55893,-0.91943 0.0109,-1.13393 0.7869,-0.55653 1.51608,-1.30314 2.33812,-1.74393 0.19397,0.0145 0.38794,0.0289 0.58191,0.0434 z m 160.08399,29.1875 c 0.84112,0.0904 1.75773,-0.12903 2.49804,0.375 -0.47105,0.82671 -1.44993,1.10598 -2.125,1.74023 -1.70758,0.45015 -3.49593,0.7175 -5.23046,1.11524 -0.91775,-0.0769 -0.50154,-0.9592 0.15223,-1.11785 1.56129,-0.70088 3.10522,-1.50939 4.69185,-2.11308 z m 197.55082,0.58203 c 6.0822,2.99991 12.1991,5.93585 18.2599,8.97544 4.17,2.45856 8.306,4.99515 12.3143,7.7023 6.536,7.71762 14.9926,13.46493 21.8722,20.8349 4.3512,6.36877 8.2474,13.06837 11.4712,20.07441 2.392,9.2875 4.8224,18.56721 7.1905,27.85957 0.4005,1.42119 -0.426,2.77693 -0.8537,4.07845 -0.5736,1.35176 -0.9242,2.90837 -0.2807,4.30529 0.4561,0.73655 0.016,0.85525 -0.6774,0.80082 -9.2446,0.61318 -18.4892,1.22635 -27.7338,1.83952 -0.8821,3.4391 -2.0863,6.79713 -2.8588,10.2615 -0.1425,1.48033 -0.029,3.27922 -1.3596,4.28388 -1.2833,1.02639 -3.0891,1.22726 -4.1672,2.54564 -2.5994,2.42369 -4.6776,5.34993 -7.2866,7.75959 -1.8844,1.66302 -4.2789,3.13094 -4.9763,5.71189 -1.4095,4.46354 -0.6648,9.27234 -1.9698,13.76069 -0.598,2.36693 -1.3938,4.677 -2.1259,7.00494 -0.4546,-0.50505 0.048,0.88545 -0.3408,1.15386 -0.1721,0.52826 -0.1791,1.19088 -0.8395,1.3193 -5.9963,3.1353 -13.0693,2.59089 -19.2728,5.10106 -9.1784,3.97627 -16.7626,10.76982 -25.7793,15.04101 -0.6861,0.2184 -1.3901,-0.26484 -2.1026,-0.24022 -1.3159,-0.0985 -2.5983,-0.41252 -3.9097,-0.5699 -2.787,-0.47557 -5.6342,-1.02788 -8.4405,-0.74196 -10.5041,0.5427 -20.9124,2.10845 -31.4105,2.72786 0.3931,-4.67969 0.7879,-9.35925 1.1797,-14.03906 8.5931,-1.95906 17.5042,-0.38024 26.0995,-2.18214 2.1458,-0.42431 4.3103,-1.12665 5.9422,-2.64975 1.1153,-0.9549 1.9805,-2.02578 2.8431,-3.21498 0.5905,-0.1248 1.181,-0.25003 1.7715,-0.375 1.2539,-6.89298 1.963,-13.87732 3.2871,-20.75586 0.4333,-1.09397 1.0088,-2.13103 1.2496,-3.29688 0.5365,-1.46031 0.6824,-3.01516 0.5531,-4.55859 -0.039,-5.16324 0.9158,-10.34175 -0.1737,-15.43321 -0.4314,-2.2215 -1.578,-4.20433 -2.9056,-6.00566 -6.1635,-8.94799 -13.584,-16.91953 -21.0945,-24.72129 -5.8914,-9.88723 -13.5586,-18.58122 -20.5098,-27.75781 1.5217,-0.91494 3.2779,-1.30516 5.0378,-1.3675 1.7186,-0.0683 3.4535,-0.28482 5.0152,-1.05509 3.728,-1.61016 7.2439,-3.69948 10.5502,-6.04979 3.0947,-2.34001 6.0057,-4.92901 9.3059,-6.98807 2.6374,-1.79963 5.57,-3.59838 7.0037,-6.57965 1.2494,-2.43023 2.1701,-5.31508 4.6263,-6.82513 4.8816,-3.23872 10.955,-3.76055 16.0122,-6.6428 6.573,-3.46633 12.7599,-7.603 19.2573,-11.20291 0.076,0.0371 0.151,0.0742 0.2266,0.11133 z m -172.44145,0.29492 c 0.94971,0.24624 0.10298,0.97659 -0.0932,1.04094 0.71175,0.45758 0.0632,1.08786 -0.57766,0.88174 -3.41228,-0.53034 -6.80158,-0.96846 -10.23535,-1.34455 -0.79164,-0.41594 -0.0819,-1.11682 0.57196,-0.93956 3.44477,0.12048 6.88953,0.24096 10.33429,0.36143 z m -20.4375,4.47657 c 2.55454,0.20151 5.12439,0.29038 7.64176,0.80286 4.63613,0.73907 9.29897,1.05762 13.96004,1.56047 6.22932,1.02173 12.44354,2.26008 18.4877,4.09595 9.24817,2.98967 17.41996,8.55635 26.68589,11.49775 1.87485,0.3353 3.69001,-0.49334 5.53907,-0.66992 2.31013,7.26141 7.81342,12.75784 12.63281,18.48046 1.52001,1.71351 2.8193,3.61256 4.3379,5.3246 1.12024,1.25162 2.64164,2.05759 4.2686,2.42856 4.35638,1.29012 8.83318,1.96662 13.33298,2.23903 8.7337,19.85683 16.8887,39.99464 26.0084,59.66811 2.5599,5.30378 5.5662,10.38556 8.7777,15.31701 0.532,0.69726 1.219,1.25307 1.8701,1.83324 -0.3907,5.66755 -1.1655,11.30375 -1.4336,16.98047 -2.8711,1.24881 -5.7119,2.59323 -8.6022,3.78174 -2.8592,0.52521 -5.7183,1.05058 -8.5775,1.57568 0.288,-0.72455 0.3907,-1.57569 0.7911,-2.22266 1.6826,-1.24705 3.0605,-2.96594 3.5546,-5.0332 0.8569,-2.73655 1.0913,-5.62268 1.1172,-8.47265 0.5318,-1.8917 1.1514,-3.78888 1.3516,-5.74805 -0.1563,-2.08707 -1.5837,-3.79285 -1.9702,-5.82795 -0.7479,-2.81444 -1.5209,-5.63382 -2.0222,-8.50328 -1.0541,-6.9435 -2.1989,-14.09333 -5.7085,-20.28728 -1.1486,-1.75511 -1.9749,-3.69206 -3.1059,-5.45957 -3.7261,-6.00252 -8.665,-11.19678 -14.1633,-15.60374 -5.49401,-4.01928 -12.55099,-5.00703 -18.03781,-9.05822 -6.33251,-4.46015 -11.27646,-10.60467 -17.66086,-14.94851 -1.9205,-0.95936 -4.32821,-0.26589 -6.12441,-1.59044 -4.46754,-2.75436 -7.80846,-7.06875 -12.58916,-9.35986 -6.46049,-3.51611 -13.25913,-6.27416 -20.40452,-8.00183 -9.93276,-2.49745 -20.12761,-3.87245 -30.36158,-4.35346 -7.07663,-0.30858 -14.19693,-0.003 -21.22822,1.02056 -5.91157,0.80954 -11.76277,1.99786 -17.60208,3.2062 -3.52091,0.89694 -7.15923,1.58479 -10.62478,2.51347 -2.08869,0.80406 -3.85025,2.25518 -5.928,3.09289 -6.23107,2.91603 -13.06487,4.87997 -18.4432,9.34306 -8.35797,6.78473 -15.57452,14.91202 -21.86708,23.65194 -1.35665,2.11952 -2.51751,4.70965 -1.90039,7.26758 0.20193,1.00063 1.22131,1.67298 1.09678,2.75002 0.27659,2.16968 0.65418,4.38409 1.59267,6.37498 1.62925,2.80613 4.63753,4.31656 7.05363,6.33706 3.55159,2.79389 7.08769,5.54874 11.03621,7.74693 0.43495,0.43337 0.63293,0.84551 0.004,1.1963 -0.47344,0.29098 -0.7907,1.23454 -1.41208,0.91345 -3.58786,-1.15294 -7.16579,-2.34632 -10.7545,-3.49061 -0.51245,0.0673 -0.86376,0.38336 -1.37223,-0.10404 -5.97472,-3.05873 -12.30348,-5.68018 -17.43245,-10.11862 -0.81543,-1.79372 -1.398,-3.68546 -2.34375,-5.42383 -0.88393,-1.85631 -1.90176,-3.6672 -2.72657,-5.53906 -0.29934,-4.00163 -0.18008,-8.01987 0.0254,-12.02344 0.54243,-0.12406 1.32226,0.22664 1.67844,-0.26797 1.56665,-1.98 3.37544,-3.77336 5.29253,-5.4066 4.72901,-3.09824 9.7359,-5.96273 13.61775,-10.14335 1.09405,-1.34736 1.63107,-3.02872 2.2355,-4.62934 11.49057,-4.92916 22.77406,-10.40631 34.48611,-14.83889 4.23282,-1.40671 8.8923,-1.13709 12.92293,-3.21417 11.32206,-5.0911 22.04056,-11.40542 33.13198,-16.94694 1.60603,-0.35658 3.26329,-0.56607 4.8164,-1.11328 1.69089,-0.8242 2.97462,-2.69441 5.04883,-2.59961 z m 71.8418,11.17968 c 0.85258,0.0112 0.11474,0.88905 0.11713,1.39228 -0.0888,0.51367 -0.80877,0.50855 -1.18934,0.77447 -1.45784,0.7699 -3.197,0.35344 -4.65476,-0.21216 -5.2194,-1.81761 -10.10019,-4.44371 -15.05428,-6.86474 -0.6531,-0.63831 0.22825,-1.06836 0.82475,-0.75411 6.65217,1.88809 13.30433,3.77618 19.9565,5.66426 z m -75.22656,14.15235 c 7.57703,-0.10359 15.12442,1.01403 22.45037,2.90131 7.54232,1.92717 14.91274,4.45801 22.27625,6.97085 4.58987,1.66108 9.07043,3.64173 13.38275,5.92471 2.31777,1.92727 4.53807,4.05953 7.23683,5.44841 0.80408,0.3566 1.75216,0.23869 2.54833,0.50276 4.20751,3.26366 7.82125,7.23753 12.24219,10.1875 0.60884,0.22085 1.32853,-0.5723 1.76864,0.0704 3.36361,3.02734 6.89181,5.97504 11.08107,7.71517 1.00615,0.3632 1.93356,0.8659 2.75374,1.5561 8.59731,6.23672 17.20624,12.80592 23.61114,21.38899 0.8952,1.27315 1.8283,2.56892 2.4027,4.01832 1.6218,5.62427 3.3167,11.23179 4.8933,16.86645 0.7031,4.57552 1.5502,9.10409 2.2636,13.67892 0.3651,2.69347 0.6507,5.43161 0.4289,8.14516 -1.1558,3.24068 -2.4925,6.41229 -3.7734,9.60547 -2.9262,2.6519 -6.8221,4.02633 -9.5299,6.93927 -1.1967,1.2387 -1.6405,2.97793 -1.6024,4.66216 -0.1184,3.58762 0.6981,7.13774 1.8038,10.51082 0.5394,1.11068 0.1193,2.339 0.119,3.51629 -0.1398,1.97733 -0.2796,3.95467 -0.4194,5.932 1.2589,-0.0485 2.4913,-0.11028 3.7558,-0.17969 1.4446,3.82783 2.7785,7.785 3.1934,11.84961 -4.5433,2.66897 -9.0618,5.38897 -13.6222,8.02328 -0.5108,0.1116 -1.2622,0.83673 -1.3895,-0.0311 -3.59557,-7.78671 -7.00871,-15.88337 -12.82228,-22.33008 -0.40281,-1.04302 -0.83208,-2.08508 -1.45117,-3.02148 0.0881,-1.17362 0.1765,-2.34713 0.30078,-3.51758 -1.31143,-0.49098 -2.71602,-0.85461 -3.97036,-1.42359 -3.3964,-4.53903 -6.87114,-9.06991 -11.01792,-12.95727 -2.00045,-1.47973 -4.61282,-1.47811 -6.95635,-1.97694 -5.16286,-0.89902 -10.41634,-1.38233 -15.65699,-1.05509 -4.73509,0.19167 -9.51083,0.82562 -14.11465,2.1177 -10.5464,2.76014 -20.84069,6.37415 -31.14506,9.91043 -14.04236,0.38684 -28.08549,0.82205 -42.12735,1.17911 -1.02688,0.19241 -0.18722,-0.702 0.0656,-1.15132 2.89688,-4.20376 5.11959,-8.98824 5.67194,-14.10869 0.70229,-5.53974 0.0293,-11.09436 -1.17248,-16.53375 -0.98648,-4.59994 -2.35032,-9.20631 -4.40812,-13.39689 -2.14428,-4.43587 -5.2377,-8.44818 -9.15777,-11.50618 -2.85561,-2.26639 -6.35347,-3.87048 -9.83222,-5.09171 -5.20957,-1.83084 -10.63368,-2.97247 -15.82666,-4.85347 -6.9499,-8.72496 -13.90129,-17.44875 -20.85351,-26.17187 1.63506,-1.60524 3.17075,-3.32015 4.87212,-4.85278 10.56474,-8.54314 20.81269,-17.48717 31.50874,-25.86011 4.55893,-1.88281 9.08238,-3.94337 13.86832,-5.19334 2.63843,-0.60362 5.2731,-1.23865 7.96845,-1.53333 9.41411,-1.34907 18.84875,-2.8052 28.38198,-2.87489 z m 268.62891,73.45508 c 4.2096,11.42389 10.0571,22.21009 13.9609,33.77734 0.7509,2.88574 0.043,5.92151 0.3667,8.80343 0.5499,8.93679 2.1106,17.79364 2.6525,26.74494 0.072,4.24872 0.1501,8.50555 -0.041,12.75041 -0.7507,7.52379 -2.6841,14.88201 -5.0246,22.05473 -0.7639,1.94731 -1.6497,3.87461 -3.0389,5.46462 -2.0175,2.53072 -4.6974,4.73483 -5.6818,7.92601 -0.686,2.95863 0.7943,5.92828 0.1503,8.91602 -1.3605,3.19833 -2.5588,6.46614 -3.9863,9.63476 -1.7196,3.41434 -4.2393,6.32377 -6.3281,9.50586 -0.8527,-0.89944 -1.7969,-1.70795 -2.4369,-2.78513 -3.8929,-5.30284 -8.7567,-10.1164 -11.1857,-16.36529 -1.5895,-3.9136 -1.099,-8.23796 -0.5477,-12.31061 0.4393,-3.23849 0.8635,-6.48067 1.274,-9.72141 0.555,-2.71155 2.1927,-5.01402 3.4488,-7.43042 1.1038,-1.72808 2.627,-3.23147 3.1965,-5.25626 1.5806,-4.16315 2.8732,-8.41618 3.749,-12.76174 0.1174,-0.831 -0.2871,-1.68383 -1.0808,-2.01014 -4.6421,-3.06114 -9.6494,-5.50837 -14.4778,-8.24572 -7.7789,-6.95889 -16.5261,-12.79968 -24.6386,-19.38086 0.3901,-1.45109 1.4194,-2.62547 1.998,-4.0039 1.1989,-3.0294 1.5676,-6.30427 2.1781,-9.48589 0.1437,-1.06285 0.387,-2.09789 0.9221,-3.03801 0.588,-1.39036 1.4475,-2.75427 1.3317,-4.32578 -0.035,-0.74541 0.058,-1.46255 0.4744,-2.09954 0.4452,-0.97457 1.0954,-1.827 1.977,-2.44506 4.6783,-3.95662 9.7988,-7.34483 14.9312,-10.67213 3.5127,0.75597 7.0406,1.43882 10.5527,2.19531 2.9691,-4.71893 5.9405,-9.43643 8.9082,-14.15625 2.0804,-0.5623 4.1794,-1.055 6.2383,-1.69531 0.053,0.13867 0.1055,0.27734 0.1582,0.41602 z m -340.99805,1.35742 c 1.37473,0.51773 2.82467,0.88122 4.15439,1.49122 5.33655,3.4424 10.67318,6.88465 16.00967,10.32714 3.17281,5.03273 3.93076,11.06611 4.71978,16.83877 0.31287,2.47603 0.73628,4.94251 1.19525,7.39013 -0.0404,2.85713 -0.0317,5.72066 -0.10253,8.57383 -1.31177,4.58128 -3.35428,9.02832 -6.40234,12.71875 -1.46332,1.76221 -3.59787,2.98978 -5.91407,3.08789 -3.20246,0.17901 -6.34584,-0.75479 -9.34554,-1.77669 -1.96064,-0.7432 -3.90223,-1.69015 -5.45524,-3.11979 -0.99142,-1.30987 -0.21922,-3.03752 -0.60284,-4.51634 -0.64825,-4.66818 -0.45102,-9.48264 -2.15302,-13.95046 -1.06436,-2.02162 -3.29989,-2.9772 -4.76175,-4.65824 -1.31254,-1.19163 -2.68653,-2.39361 -3.43533,-4.04243 -1.50779,-2.72333 -3.05235,-5.56451 -3.43252,-8.70011 0.0211,-1.83742 1.42702,-3.26044 1.77911,-5.02203 0.87486,-2.76923 1.74368,-5.54035 2.61221,-8.31156 0.49147,0.4828 0.93615,0.76826 1.34705,0.24826 2.23589,1.14336 4.47955,2.27154 6.70373,3.43728 -1.80498,-1.67606 -3.64334,-3.32674 -5.46679,-4.99804 0.7131,-0.81818 1.42769,-1.63506 2.13867,-2.45508 1.36985,0.90658 2.72551,1.83691 4.00586,2.86718 0.65177,-1.86195 1.30283,-3.72415 1.95508,-5.58593 0.15039,0.0521 0.30078,0.10416 0.45117,0.15625 z m -15.61133,3.67382 c 0.85889,0.49918 1.93447,0.79146 2.6213,1.48434 0.15126,1.04619 0.66898,2.07328 0.45096,3.13871 -1.14536,-0.33959 -1.89391,-1.36875 -2.85073,-2.03598 -0.33139,-0.43315 -1.24711,-0.64256 -1.05055,-1.27777 0.1816,-0.42302 -0.009,-1.55961 0.4183,-1.5133 0.1369,0.068 0.27381,0.136 0.41072,0.204 z m 296.33008,48.1543 c 1.3164,1.31706 2.6328,2.63412 3.9492,3.95117 0.2414,-0.55739 0.4903,-1.11038 0.7403,-1.66406 0.1112,0.29173 0.1626,-0.71663 0.5,-1.11299 0.3151,-0.3204 0.7648,-0.50073 0.9726,0.19112 0.8698,0.68014 -0.6533,0.54669 0.2055,1.17234 1.1474,1.52271 2.4941,2.91267 3.318,4.65166 3.691,6.70146 6.6999,13.74761 10.9472,20.10568 1.1948,2.81327 2.4332,5.62021 3.4492,8.5 0.216,1.20192 -1.2264,2.14042 -0.645,3.33374 0.9234,3.36399 2.2044,6.67187 4.0903,9.61548 0.7843,0.70689 1.8793,0.89744 2.7168,1.53125 -0.2616,7.94898 -0.8059,15.98959 0.6393,23.81206 0.5362,2.98684 1.3605,5.95225 3.0309,8.54055 3.988,6.43574 10.4728,11.03721 14.074,17.78802 -6.3134,8.14515 -12.4121,16.45574 -18.6817,24.63281 -2.4148,-3.0367 -6.2246,-4.29234 -9.642,-5.81625 -2.0426,-0.89945 -4.0895,-1.88745 -5.7798,-3.37125 -0.2816,-0.98097 -0.3478,-2.0465 -0.7598,-2.97656 -0.6237,-0.73407 -1.7384,-0.93215 -2.2734,-1.72657 -0.5488,-1.39774 -0.6796,-2.89293 -0.6464,-4.38199 -0.076,-6.92673 1.6084,-13.85872 0.047,-20.67855 -0.2854,-0.75382 -0.474,-1.51101 -0.4788,-2.32198 -0.207,-1.54268 -0.4123,-3.18666 -1.2809,-4.51591 -1.6199,-2.06177 -4.6206,-2.81618 -5.6699,-5.36914 -2.9068,-7.32171 -2.1659,-15.55858 -5.2969,-22.8125 -1.011,-2.54821 -2.9279,-4.59778 -5.0776,-6.24312 -2.6653,-2.28929 -5.5405,-4.3505 -7.8797,-6.99587 -0.2982,-0.46659 -1.063,-0.8239 -1.0436,-1.36461 0.082,-0.53119 0.6668,-1.34235 -0.062,-1.67231 -1.5799,-1.38013 -3.3481,-2.44167 -5.0659,-3.61144 -1.6526,-1.66005 -3.3308,-3.32902 -5.2498,-4.67906 -0.9351,-0.4805 -1.9983,-0.27771 -2.9521,-0.48114 -0.5737,-0.48802 -1.2852,-0.90528 -1.7379,-1.48402 -0.3346,-0.7768 0.721,-0.56434 -0.048,-1.35028 -1.3353,-2.38839 -2.6713,-4.77638 -4.0061,-7.16503 7.3628,-4.39953 14.133,-9.8615 22.0663,-13.24993 4.2735,-1.67652 8.9141,-1.89956 13.3439,-2.96882 0.062,0.0625 0.125,0.125 0.1875,0.1875 z m -239.83789,7.50977 c 0.0101,5.36197 0.0179,10.72395 0.0254,16.08593 -8.98113,2.89973 -17.96152,5.80173 -26.94336,8.69922 -0.005,-1.68294 -0.006,-3.36588 -0.01,-5.04882 -0.36286,-0.15824 -1.62619,-0.59856 -0.88477,-0.94521 1.08607,-0.62552 2.36123,-0.89248 3.50895,-1.41118 2.88086,-1.19078 5.84977,-2.18065 8.65317,-3.54986 2.2336,-1.14401 3.96759,-3.00931 5.87199,-4.60261 3.22177,-2.88601 6.31462,-6.01705 8.91511,-9.51849 0.66338,-0.45995 0.60956,-0.54043 0.86329,0.29102 z m 72.67578,8.55859 c 3.45933,0.033 6.94415,-0.0595 10.35742,0.60742 2.26805,0.44522 4.56104,0.86175 6.75071,1.61356 1.8941,0.7055 3.57861,2.00239 5.59499,2.35129 1.21046,-0.0639 2.51611,-0.75161 3.66073,-0.0174 4.49554,2.02362 8.34867,5.20619 12.80021,7.30844 1.57054,0.48304 3.24909,0.59765 4.74219,1.33789 1.83598,0.86591 3.36462,2.24954 5.00753,3.41896 1.85456,1.44867 3.74726,2.8567 5.56278,4.35057 0.89592,2.29155 1.69795,4.63295 2.5957,6.92969 -0.57358,0.23152 -1.42702,0.34731 -0.81195,1.07662 1.96601,4.67051 3.90742,9.36073 5.77875,14.06791 0.63907,2.89883 1.25196,5.80168 1.8418,8.71094 -2.61344,2.2685 -5.22372,4.54064 -7.83594,6.81055 1.68436,1.37182 2.49152,3.62791 4.41992,4.71679 1.20085,0.37384 2.51149,0.10358 3.70508,0.55079 0.70612,0.1418 1.40666,0.30773 2.09375,0.52539 1.17194,6.66392 2.35154,13.33129 3.43094,20.00829 0.074,2.65006 0.6678,5.24533 1.3778,7.78622 1.4275,8.07766 2.934,16.13303 4.7108,24.14494 0.737,0.0487 1.4739,0.099 2.2109,0.14648 0.8578,2.97953 1.8712,5.92101 2.4039,8.98278 1.0038,4.80353 2.0101,9.60631 3.1039,14.39027 0.8208,0.42991 0.57,1.53036 0.8319,2.28347 1.1785,6.53224 2.1695,13.08815 3.3107,19.62083 -0.086,0.61506 0.077,1.35376 -0.1257,1.89603 -1.3131,0.88759 -2.6272,1.77362 -3.9407,2.66061 0.524,11.87435 1.0489,23.74866 1.5723,35.62304 -7.7382,1.66535 -15.4755,3.33497 -23.21291,5.00391 -4.12184,-8.4044 -3.95559,-18.03136 -6.74873,-26.84016 -1.04658,-3.37461 -2.69057,-6.64257 -4.97588,-9.30437 -1.59006,-1.92547 -3.3906,-3.66142 -5.1875,-5.39062 -4.17755,-11.03734 -8.35267,-22.0756 -12.5293,-33.11329 2.89216,-1.04249 5.21906,-3.46599 6.73969,-6.05332 0.87491,-1.45176 1.44719,-3.06592 2.41323,-4.46243 5.53596,-10.14854 8.62191,-21.37583 10.83671,-32.64413 0.65704,-3.52153 0.0107,-7.06643 -0.51154,-10.6061 0.0133,-2.09701 -0.45766,-4.15848 -0.75967,-6.21526 0.0446,-1.45096 0.0771,-2.94872 -0.5733,-4.28895 -2.23113,-6.07051 -4.02731,-12.527 -8.1871,-17.62966 -3.00251,-3.56935 -7.02807,-6.06829 -11.30568,-7.78765 -3.05359,-0.89896 -6.20293,0.99718 -9.25577,0.002 -6.45046,-1.84814 -11.95404,-6.04749 -18.45953,-7.73456 -3.7242,-0.79563 -7.62505,-0.0874 -11.30618,-1.24623 -2.12631,-5.69514 -4.25372,-11.38988 -6.38281,-17.08399 2.37911,0.30433 4.88424,0.0899 7.06055,-0.97656 0.99752,-0.38806 2.03836,-0.94035 3.11328,-0.91797 3.40234,1.31706 6.80468,2.63412 10.20703,3.95117 -1.77514,-5.68087 -3.54678,-11.36284 -5.32422,-17.04296 -1.73573,0.0262 -3.49406,-0.1226 -5.19922,-0.36133 -0.42932,-0.15907 -1.32681,-0.94866 -0.44475,-1.07762 0.89038,-0.21906 1.87284,-0.0268 2.79865,-0.0877 0.68151,0.002 1.36302,0.003 2.04454,0.005 z m 113.83011,1.04297 c 2.667,-0.0105 5.2861,0.55246 7.9199,0.89648 0.8235,0.25053 0.4047,0.88026 -0.2196,1.01968 -4.9672,1.45112 -9.9343,2.90225 -14.9015,4.35337 -0.8575,0.12363 -0.7385,-0.6145 -0.2375,-1.01681 1.8927,-1.73033 3.7873,-3.45866 5.6789,-5.19022 0.5865,-0.0236 1.1728,-0.0551 1.7598,-0.0625 z m -9.8086,0.88281 c -0.377,0.91482 -1.4424,1.13026 -2.1811,1.67751 -5.723,3.36906 -11.4293,6.77571 -17.1627,10.12132 -0.591,0.17291 -1.1819,0.34616 -1.7734,0.51758 0.4732,-3.54776 -0.2917,-7.08946 -1.3456,-10.49508 -0.1567,-0.59046 1.0649,-0.22359 1.5069,-0.39919 6.772,-0.50205 13.5293,-1.18193 20.2996,-1.70534 0.2188,0.0944 0.4375,0.1888 0.6563,0.2832 z m -120.61331,1.16406 c 1.14126,0.0215 2.32299,0.0102 3.42899,0.25261 0.87115,0.20823 0.18856,0.88701 -0.34289,1.01008 -0.84443,0.31486 -1.68924,0.62868 -2.53337,0.94435 -0.24377,-0.58609 -0.48713,-1.17236 -0.73242,-1.75782 -0.26272,0.72875 -0.60455,1.4227 -0.95703,2.11133 -1.38371,0.008 -2.77417,0.20851 -4.15234,0.0449 0.53561,-1.26392 1.6974,-2.26772 3.09919,-2.37132 0.71664,-0.1251 1.55603,-0.22988 2.18987,-0.23415 z m 13.83594,0.35743 c 0.65302,0.48524 0.75429,0.83943 -0.14518,0.95878 -0.68924,0.24095 -1.37848,0.4819 -2.06771,0.72286 0.41621,-1.0036 -0.75719,-0.64741 -0.14777,-0.0893 -0.0933,0.349 -0.8012,0.0392 -1.18557,0.19739 -0.42303,0.15876 -1.67869,-0.25669 -1.46664,0.34004 0.48732,0.70592 -0.62247,0.63038 -1.04511,0.89188 -0.93637,0.2932 -1.86077,0.7174 -2.80451,0.92983 -0.87485,0.17729 -0.55137,-0.72809 -0.11639,-1.06048 0.8209,-0.82088 1.64139,-1.64181 2.46325,-2.4613 0.65175,-0.0349 1.0448,0.38289 1.58212,0.24057 0.61073,0.0784 1.31358,0.0299 1.87892,0.21716 0.41124,0.35541 0.35309,-1.04336 1.08424,-0.74904 0.61008,-0.0504 1.30065,-0.35029 1.86217,-0.25012 l 0.0696,0.0718 z m -7.77149,1.68359 c 0.0318,0.52121 0.45854,-0.0588 0,0 z m -15.20507,-1.26758 c -0.10652,0.84743 -0.75615,1.44086 -1.20704,2.1211 -0.43309,0.10862 -1.71363,-0.22204 -1.01441,0.46535 0.54112,0.41564 -0.044,0.7111 -0.36608,1.01978 -0.38005,0.33883 -0.79786,0.63661 -1.24841,0.87424 -0.005,-0.2125 -0.3375,0.26546 -0.73105,0.38463 -0.61689,0.30603 -1.24932,0.63828 -1.9573,0.44092 -1.74697,-0.16661 -3.52931,-0.18265 -5.23939,-0.59313 -0.30676,-0.23855 -1.45467,-0.84286 -0.67755,-1.00129 3.87927,-1.30981 7.80973,-2.47945 11.7088,-3.73504 0.24414,0.008 0.48828,0.0156 0.73243,0.0234 z m -35.18165,1.05469 c 0.51624,0.25473 0.27896,1.05972 0.47183,1.55032 0.22069,1.39147 0.44456,2.78245 0.66294,4.17429 -0.69976,-0.0374 -1.39962,-0.0727 -2.09961,-0.10547 -4.1e-4,-1.57292 -0.003,-3.14583 -0.004,-4.71875 0.62463,-0.22995 -0.16101,-1.44656 0.60933,-1.0221 0.11981,0.0406 0.23961,0.0811 0.35941,0.12171 z m -10.7539,6.38086 c 0.57419,0.95749 1.33552,1.87236 1.79841,2.85512 -0.54413,4.45324 -1.08826,8.90648 -1.6324,13.35972 3.80435,-0.593 7.55796,-1.45851 11.33399,-2.20312 -2.07774,-3.01414 -4.15339,-6.02973 -6.23242,-9.04297 7.3e-4,-0.59961 9.9e-4,-1.19922 0.004,-1.79883 1.5383,-0.0391 3.09303,-0.17945 4.62114,-0.15283 0.91204,0.0905 0.0436,0.85749 1.04235,0.35182 0.47215,-0.0223 1.33605,-0.6795 1.54978,-0.28276 0.55334,3.47312 1.1051,6.94649 1.65783,10.41971 2.6719,-0.50206 5.37769,-0.94183 8.10636,-0.75814 2.44466,0.11438 4.82644,0.0362 7.16311,-0.68209 2.03501,-0.58382 4.05807,-1.26102 6.06967,-1.88434 4.51086,-2.31429 9.44696,-4.01076 13.34567,-7.35303 0.414,-0.43452 0.82866,-0.86658 1.11206,-0.0802 0.44694,0.52159 1.31042,0.60166 1.38801,1.3962 0.32306,0.69339 0.58098,1.39781 0.44861,2.17352 -0.17046,8.48559 -0.39231,16.97005 -0.56123,25.45567 -2.77351,1.81049 -5.43435,4.00321 -6.96384,7.00679 -1.00668,1.82925 -1.73156,3.79897 -2.31545,5.79985 -1.38584,1.5871 -2.76653,3.17874 -4.15039,4.76758 0.90493,0.46031 1.80999,0.92038 2.71484,1.38085 -0.43427,2.16101 -0.87964,4.32078 -1.39453,6.4629 0.30846,0.97886 1.13518,1.71085 1.65766,2.58557 0.42335,0.59518 0.84621,1.19071 1.27007,1.78552 -5.33044,3.28702 -10.56036,6.78507 -16.22308,9.48637 -2.94001,1.11522 -6.15033,0.9754 -9.2404,1.14441 -3.828,0.0815 -7.66904,0.0319 -11.48183,-0.30851 -1.2601,-0.35007 -2.35802,-1.11713 -3.61901,-1.48243 -6.43845,-2.46264 -13.13861,-4.36623 -19.19701,-7.71699 -2.0974,-1.3586 -3.48877,-3.50781 -4.95547,-5.47246 -0.51719,-1.22352 -0.40748,-2.60562 -0.59206,-3.9026 -0.21452,-2.13275 -0.21006,-4.31321 0.41433,-6.38256 0.48587,-1.58116 0.3157,-3.23616 0.0756,-4.84232 -0.49175,-3.58993 -1.28557,-7.13636 -2.16352,-10.64791 -0.41735,-1.17695 -1.72778,-1.62354 -2.71981,-2.20581 -2.20344,-1.08332 -4.67648,-2.08721 -5.98331,-4.30786 -4.41042,-6.43527 -6.22824,-14.28662 -10.89063,-20.57422 1.68263,-1.04845 3.32482,-2.2139 5.03502,-3.18607 1.8973,-0.18693 3.7879,-0.45497 5.65053,-0.86471 0.95118,0.48109 1.90187,0.96317 2.85351,1.44336 -0.002,2.07291 -0.007,4.14583 -0.01,6.21875 10.01243,-2.72503 20.02435,-5.45193 30.03711,-8.17578 -0.0765,1.1443 0.10614,0.29142 0.42401,-0.28642 0.13413,-0.0832 0.38523,0.38633 0.55255,0.50126 z m -4.48828,15.71094 c 0.27898,0.65863 -0.0532,1.51334 0.17808,2.16841 0.98166,0.98292 1.96331,1.96585 2.94496,2.94877 0.14128,-1.1582 0.28256,-2.3164 0.42383,-3.47461 -0.64602,0.16796 -1.19409,0.22595 -0.96516,-0.61601 -0.005,-3.22044 -0.0102,-6.44089 -0.0153,-9.66133 -0.85547,2.87826 -1.71093,5.75651 -2.5664,8.63477 z m 17.19336,-2.20703 c 0.43554,0.6107 0.88051,-0.4867 0,0 z m -17.45118,1.76757 c 1.02246,-0.3563 -0.81115,-0.62495 0,0 z m 61.04102,1.3418 c 0.85926,2.10975 1.27986,4.36745 2.01923,6.52087 0.20715,0.63627 0.41415,1.27258 0.6214,1.90882 -1.13033,1.23186 -2.14867,2.59726 -3.34603,3.74821 -0.62876,0.68648 -0.69795,-0.47017 -0.65022,-0.93534 0.14328,-3.69478 0.28656,-7.38957 0.42984,-11.08436 0.39044,-0.68571 0.30484,-0.71574 0.92578,-0.1582 z m -42.61523,2.10352 c 0.10344,0.68924 -0.96621,0.48709 -1.41133,0.75962 -4.26404,1.1852 -8.5272,2.37359 -12.7918,3.55678 -0.313,-0.0736 -0.19343,1.12428 -0.33368,1.55848 -0.0873,0.71293 -0.17468,1.42586 -0.26202,2.13879 6.0013,-1.63477 12.0026,-3.26953 18.0039,-4.9043 -1.06966,-1.55273 -2.13932,-3.10547 -3.20898,-4.6582 10e-4,0.51627 0.003,1.03255 0.004,1.54883 z m 49.60937,9.41797 c 4.23576,0.33101 8.71146,-0.0738 12.81103,1.44915 5.91024,1.95048 11.1162,5.64262 17.14405,7.16608 2.8183,0.39584 5.71132,-1.19577 8.45815,-0.032 4.12175,1.53639 7.86048,4.31442 10.10639,8.14349 2.69648,4.32156 4.23453,9.22142 6.00382,13.95887 0.42265,5.48882 0.91141,10.97829 1.29296,16.46671 -0.19179,1.32549 -0.14042,2.65755 -0.18645,4.02181 -0.61616,2.93539 -1.23886,5.87819 -2.04546,8.76413 -3.90232,8.45975 -8.92993,16.38222 -12.89113,24.78446 -1.31041,0.73019 -2.63511,1.43732 -3.89844,2.24805 -1.59874,-0.36271 -3.25853,-0.68182 -4.77339,-1.21302 -3.50456,-1.04009 -7.24419,-1.77886 -10.33403,-3.82995 -1.70826,-2.40705 -4.00231,-4.27714 -6.06339,-6.35714 -1.83168,-1.83141 -3.78977,-3.56664 -5.39539,-5.60637 -1.38996,-1.92118 -2.82733,-3.81969 -4.14125,-5.79015 -1.33509,-2.79528 -2.49953,-5.68286 -4.03913,-8.37347 -2.17935,-3.97919 -4.29508,-8.07334 -5.32959,-12.51936 -0.35282,-1.68111 -0.43478,-3.51537 0.42583,-5.06564 0.77467,-1.46262 1.54468,-2.98711 2.86156,-4.04496 1.37755,-1.16905 1.55324,-3.11928 1.9691,-4.74365 0.28778,-1.11038 0.36732,-2.32386 0.91363,-3.34042 0.47089,-0.2877 0.40952,-0.6578 0.13345,-1.08106 -1.86066,-4.38037 -5.18198,-8.19777 -5.87388,-13.02895 -0.4761,-3.65673 1.47237,-7.07414 2.16331,-10.47758 0.17374,-0.47062 0.0587,-1.22734 0.34663,-1.52166 0.11387,0.008 0.22775,0.0151 0.34162,0.0227 z m 86.85552,32.90039 c 2.0587,0.451 4.0757,0.94613 6.1503,1.31054 1.0393,-0.18953 2.1113,-0.18036 3.1625,-0.31151 1.2191,-0.15358 2.4028,0.32082 3.3043,1.12597 2.1275,1.66493 3.7972,3.81222 5.6192,5.78711 -3.3898,1.38454 -6.7495,2.8433 -10.0658,4.39387 -1.3447,0.60424 -3.1355,0.9281 -3.7838,2.42153 -1.3121,4.23715 -1.8481,8.66264 -2.3282,13.05764 -0.2379,0.81768 -0.8866,0.41302 -1.0201,-0.20832 -0.657,-2.55318 -0.3323,-5.19479 -0.7478,-7.77936 -0.2871,-2.06339 -0.3983,-4.1391 -0.4331,-6.22092 -0.1539,-4.57045 -0.3115,-9.14079 -0.463,-13.71132 0.2018,0.0449 0.4036,0.0898 0.6055,0.13477 z" />
        </g>
    </g>
</svg>
