<?xml version="1.0" encoding="UTF-8" standalone="no"?>
<!-- Created with Inkscape (http://www.inkscape.org/) -->

<svg
   width="115.51667mm"
   height="82.952599mm"
   viewBox="0 0 115.51667 82.952599"
   version="1.1"
   id="svg1"
   xml:space="preserve"
   inkscape:version="1.4.3 (0d15f75, 2025-12-25)"
   sodipodi:docname="Yfeatures.svg"
   xmlns:inkscape="http://www.inkscape.org/namespaces/inkscape"
   xmlns:sodipodi="http://sodipodi.sourceforge.net/DTD/sodipodi-0.dtd"
   xmlns="http://www.w3.org/2000/svg"
   xmlns:svg="http://www.w3.org/2000/svg"><sodipodi:namedview
     id="namedview1"
     pagecolor="#ffffff"
     bordercolor="#000000"
     borderopacity="0.25"
     inkscape:showpageshadow="2"
     inkscape:pageopacity="0.0"
     inkscape:pagecheckerboard="0"
     inkscape:deskcolor="#d1d1d1"
     inkscape:document-units="mm"
     inkscape:zoom="0.71891836"
     inkscape:cx="118.23317"
     inkscape:cy="255.24456"
     inkscape:window-width="1920"
     inkscape:window-height="1009"
     inkscape:window-x="-8"
     inkscape:window-y="-8"
     inkscape:window-maximized="1"
     inkscape:current-layer="layer1"><inkscape:page
       x="0"
       y="0"
       width="115.51667"
       height="82.952599"
       id="page2"
       margin="0"
       bleed="0" /></sodipodi:namedview><defs
     id="defs1" /><g
     inkscape:label="Layer 1"
     inkscape:groupmode="layer"
     id="layer1"
     transform="translate(-62.277578,-94.000009)"><rect
       style="fill:none;fill-opacity:0.167076;stroke:none;stroke-width:0.043;stroke-linejoin:bevel;stroke-dasharray:none;stroke-opacity:0.189189"
       id="rect1-8"
       width="115.51668"
       height="82.952599"
       x="62.277576"
       y="94"
       inkscape:export-filename="Yfeatures.svg"
       inkscape:export-xdpi="96"
       inkscape:export-ydpi="96" /><path
       style="fill:none;fill-opacity:0.761671;stroke:#000000;stroke-width:0.85;stroke-linejoin:bevel;stroke-dasharray:none;stroke-opacity:0.189189"
       d="m 78.390335,176.65427 c -3.101484,-17.22095 -7.82054,-41.01065 1.840147,-56.67658 7.863436,-12.75148 24.769718,-21.307006 39.747208,-20.977691 17.48009,0.38434 35.1006,12.253721 41.95539,28.338291 6.31089,14.80831 1.23978,36.0931 0,48.92508"
       id="path5"
       sodipodi:nodetypes="cccsc" /><path
       d="m 113.46921,176.10411 c 0.15868,-1.25316 0.4305,-0.9589 0.60401,-1.28636 0.17352,-0.32746 0.25629,-0.46172 0.18395,0.99515 m 12.70832,0.14751 -0.16797,-2.73638 0.61314,2.90988 m -10.41396,0.17216 c 0.15356,-0.60201 0.39896,-1.13374 0.54516,-5.70897 0.24027,-7.51858 0.30302,-8.0256 0.65245,-5.27192 0.21265,1.67567 0.26878,5.02499 0.12477,7.44296 -0.14396,2.41794 -0.56333,2.10785 -0.9318,3.19147 -0.36844,1.0836 -0.54421,0.94847 -0.39058,0.34646 z m 6.34122,-0.35393 c -1.39766,0 -0.48899,-3.18609 -0.47513,-5.97534 0.0133,-2.78926 0.18456,-5.85944 0.37927,-6.82265 0.21853,-1.08097 0.27198,0.25963 0.13966,3.50257 -0.11798,2.88961 0.005,7.0134 0.27127,9.16393 0.26712,2.15055 0.41809,0.27351 0.3355,0.3561 -0.0825,0.0825 0.74711,-0.22461 -0.65055,-0.22461 z m -27.066709,-8.62175 c -0.7654,-0.18224 -2.05439,-0.72234 -2.86441,-1.20027 -1.32829,-0.7837 -1.5687,-0.80521 -2.45102,-0.21938 -0.53806,0.35725 -1.07927,0.54857 -1.20269,0.42515 -0.12345,-0.12345 0.86826,-1.32584 2.20375,-2.67203 1.82175,-1.83637 2.99396,-2.61565 4.69382,-3.12046 1.24614,-0.37006 3.30526,-0.67283 4.575839,-0.67283 1.88304,0 2.98137,0.35411 5.94057,1.91534 2.4226,1.27812 3.63043,2.16863 3.63043,2.67668 0,0.57586 -0.74672,0.95296 -3.06475,1.54774 -1.68561,0.43252 -3.61938,1.00119 -4.29725,1.2637 -0.67789,0.26251 -2.25405,0.45713 -3.502579,0.4325 -1.24853,-0.0247 -2.8963,-0.19392 -3.66171,-0.37614 z m 7.732269,-1.19165 c 1.37618,-0.44447 2.55774,-1.15803 2.97697,-1.79785 l 0.69513,-1.0609 -1.06596,-0.80559 c -0.58628,-0.44308 -1.3947,-0.89203 -1.79647,-0.99767 -0.60536,-0.15918 -0.69018,0.0562 -0.4952,1.25782 0.18827,1.16021 0.01,1.67501 -0.89143,2.5766 -0.85535,0.85535 -1.57288,1.12672 -2.97915,1.12672 -1.299349,0 -2.154979,-0.28422 -2.865739,-0.95196 -0.66524,-0.62497 -1.01333,-1.4521 -1.01333,-2.40802 0,-0.80082 -0.1082,-1.45605 -0.24065,-1.45605 -0.13238,0 -0.78701,0.28255 -1.45479,0.62786 -0.66779,0.34533 -1.4702,0.9364 -1.78315,1.31347 -0.45637,0.54989 -0.46059,0.81622 -0.0213,1.34548 0.30121,0.36291 1.45821,0.94026 2.5711,1.28297 1.11286,0.34269 2.93663,0.63681 4.05278,0.65357 1.116149,0.0168 3.056219,-0.30113 4.311249,-0.70645 z m -1.02426,-1.70499 c 0.55826,-0.85202 0.63919,-1.41513 0.33032,-2.29855 -0.34301,-0.98114 -0.70554,-1.19169 -2.24496,-1.30391 -1.00974,-0.0736 -2.237449,0.0811 -2.728249,0.34378 -0.58229,0.31165 -0.89238,0.91776 -0.89238,1.74436 0,0.69674 0.30961,1.57639 0.68802,1.9548 0.39057,0.39057 1.4272,0.688 2.397899,0.688 1.35452,0 1.86363,-0.23456 2.44935,-1.12848 z m 6.51001,-0.45423 c -0.43501,-0.3181 -0.95892,-0.47451 -1.16424,-0.34761 -0.20534,0.12692 -0.37334,0.4873 -0.37334,0.80089 0,0.38121 0.38587,0.49642 1.16426,0.34762 l 1.16425,-0.22257 z m 26.26404,2.65563 c -1.6856,-0.56582 -3.60654,-1.03872 -4.26874,-1.05084 -0.95349,-0.0175 -1.2018,-0.22706 -1.19333,-1.00718 0.009,-0.80126 0.74077,-1.34353 3.92308,-2.9059 l 3.91241,-1.9208 2.97259,0.21338 c 1.77739,0.12759 3.67672,0.57761 4.72387,1.11924 0.96319,0.49824 2.72897,1.9069 3.92392,3.13035 1.19497,1.22346 1.90004,2.22447 1.56686,2.22447 -0.33319,0 -0.96611,-0.32606 -1.40647,-0.72458 l -1.63489,0.0304 c -0.45884,0.41525 -1.77078,1.03684 -2.91542,1.38132 -1.14467,0.34449 -3.08421,0.60668 -4.31015,0.58266 -1.22595,-0.024 -3.60811,-0.50665 -5.29373,-1.0725 z m 10.84749,-0.95437 c 0.77474,-0.45249 1.46088,-1.10755 1.52471,-1.45571 0.0638,-0.34816 -0.53875,-1.07632 -1.33911,-1.61812 -0.80037,-0.54182 -1.65518,-0.98511 -1.89958,-0.98511 -0.24439,0 -0.3644,0.54471 -0.26669,1.21048 0.11534,0.78554 -0.15307,1.63083 -0.76434,2.40801 -0.77557,0.98594 -1.28799,1.19754 -2.90031,1.19754 -1.5168,0 -2.21075,-0.25243 -3.07793,-1.11962 -0.8737,-0.87369 -1.08098,-1.45071 -0.94366,-2.62693 0.0968,-0.82901 0.0679,-1.50657 -0.0645,-1.50566 -0.13222,9e-4 -0.88077,0.39205 -1.66338,0.86922 -0.7826,0.47716 -1.42291,1.13545 -1.42291,1.46286 0,0.32743 0.35784,0.91917 0.79522,1.31499 0.43737,0.3958 1.57023,1.0165 2.51746,1.3793 1.17752,0.451 2.73032,0.6014 4.90932,0.47553 2.04351,-0.11799 3.69248,-0.47931 4.59568,-1.00678 z m -3.54847,-0.84314 c 0.44036,-0.39851 0.80067,-1.17252 0.80067,-1.72 0,-0.54749 -0.3096,-1.30502 -0.68802,-1.68343 -0.4085,-0.40853 -1.44007,-0.688 -2.53935,-0.688 -1.01825,0 -2.08779,0.23642 -2.37674,0.52539 -0.28897,0.28895 -0.52539,1.01226 -0.52539,1.60735 0,0.59507 0.32608,1.44226 0.72459,1.88262 0.44026,0.48648 1.32867,0.80066 2.26408,0.80066 0.84673,0 1.8998,-0.32605 2.34016,-0.72459 z m -9.95941,-0.73709 c -0.22486,-0.58602 -0.43886,-0.62108 -1.21431,-0.19896 l -0.94132,0.51243 1.09455,0.28386 c 0.60201,0.15621 1.14844,0.24566 1.21431,0.19896 0.0659,-0.0467 -0.003,-0.40504 -0.15323,-0.79629 z m -42.401599,-1.28587 c 0.93663,-1.14999 2.4772,-2.62761 3.42351,-3.28367 l 1.72054,-1.19282 h 4.635239 4.63525 l 3.43855,1.64184 c 1.89121,0.903 2.51034,1.05093 4.48303,2.01373 -0.16558,0.26793 -0.73872,0.29822 -1.46953,0.0778 -0.65896,-0.19884 -2.38022,-0.90678 -3.82504,-1.57322 -2.1238,-0.97962 -3.43088,-1.24882 -6.82449,-1.40557 -3.373529,-0.15588 -4.490859,-0.0463 -5.691659,0.55753 -0.82177,0.4133 -2.55932,1.7648 -3.86121,3.00335 l -2.36706,2.25193 z m 59.281669,-0.10788 c -1.06868,-1.08892 -2.7956,-2.39257 -3.83757,-2.89697 -1.62383,-0.78607 -2.46954,-0.88868 -5.91939,-0.71808 -3.36795,0.16653 -4.63232,0.45599 -7.74637,1.77333 -2.22096,0.93954 -3.58729,1.12225 -4.18842,0.77301 0.76445,-0.35443 1.67566,-0.35431 4.0919,-1.54315 2.88099,-1.44782 3.89747,-1.7262 6.88277,-1.88494 1.98814,-0.10571 4.34621,0.0415 5.45375,0.34059 1.42732,0.38541 2.72033,1.27774 4.81602,3.32368 4.14692,4.04839 2.64205,3.06876 0.44734,0.83253 z m -32.82706,-1.0849 c 0,-0.32106 0.13138,-0.45241 0.29189,-0.29188 0.1605,0.16051 0.1605,0.42324 0,0.58377 -0.16052,0.16051 -0.29189,0.0291 -0.29189,-0.29189 z"
       style="fill:#000000;fill-opacity:0.189189;stroke-width:1.52162"
       id="path1-6"
       sodipodi:nodetypes="cscccccsscscscsccsssssssssssssscscscssscsssssssscccsssssssssssscssccscsssssssssssssccsssssssscssscsssssssccccsccscccsscsccsccssssscssssssssss" /><path
       id="path1-5"
       style="fill:#000000;fill-opacity:0.189189;stroke-width:1.52162"
       d="M 71.779324 159.35106 C 71.268109 159.37359 70.579665 159.69185 70.145315 160.12621 C 69.423555 160.84797 69.242528 161.58497 69.242528 163.80505 C 69.242528 165.33199 69.529171 167.53322 69.879181 168.69622 C 70.229201 169.8592 70.417214 170.96963 70.297244 171.16377 C 70.177264 171.3579 70.295073 172.319 70.559243 173.30008 C 70.727458 173.92475 71.371258 175.3719 72.202037 177.0368 L 72.916722 177.0368 L 70.878087 173.23962 L 71.268244 168.77632 L 71.658401 164.31303 L 73.504283 167.09994 L 75.350165 169.88737 L 73.938365 170.83615 C 72.792855 171.60557 72.50137 172.12005 72.39479 173.56363 C 72.28882 174.99919 72.477898 175.54668 73.372508 176.3955 C 73.579114 176.59153 73.773265 176.81333 73.939915 177.0368 L 75.788898 177.0368 C 75.85512 176.95145 75.926587 176.87564 76.000771 176.81408 C 76.346491 176.52714 76.752472 175.73132 76.903042 175.04571 C 77.053632 174.36008 76.949225 172.94527 76.671015 171.90171 C 76.392805 170.85815 75.451709 168.82503 74.579669 167.38364 C 73.707639 165.94223 72.323548 164.02089 71.503888 163.11362 C 70.271758 161.74981 70.107606 161.35055 70.557176 160.80885 C 70.856246 160.44849 71.364493 160.15359 71.686823 160.15359 C 72.009153 160.15359 72.697949 160.59676 73.217479 161.13855 C 73.737009 161.68035 75.049774 163.38777 75.625084 165.13882 C 76.245514 167.02717 76.178445 167.53849 76.672565 169.86308 C 76.880165 170.83974 77.138245 173.02631 77.662685 175.80587 C 77.745556 176.24509 77.797249 176.65685 77.824433 177.0368 L 78.35825 177.0368 L 75.67521 162.5674 C 75.456381 162.45855 74.941542 162.13841 74.428774 161.46669 C 73.601594 160.38307 72.502786 159.43526 71.986546 159.36036 C 71.922016 159.35099 71.852354 159.34784 71.779324 159.35106 z M 75.67521 162.5674 C 75.737684 162.59848 75.777795 162.61313 75.784764 162.61288 L 75.785281 162.61288 L 75.785797 162.61236 L 75.785797 162.61184 L 75.785281 162.61184 L 75.785281 162.61132 C 75.781117 162.60636 75.746051 162.58863 75.674176 162.5612 L 75.67521 162.5674 z M 70.13498 162.87901 C 70.173813 162.87719 70.216473 162.88349 70.26262 162.89865 C 70.54432 162.99108 70.83756 163.81652 70.91426 164.73264 C 70.9909 165.64876 70.842838 166.60861 70.585598 166.86585 C 70.253898 167.19755 70.108137 166.89433 70.084337 165.82302 C 70.065857 164.99225 69.983685 163.95689 69.900885 163.52186 C 69.827749 163.13702 69.92528 162.88882 70.13498 162.87901 z M 74.911949 171.09918 C 75.354139 171.09918 75.835531 171.41075 75.981651 171.79164 C 76.127741 172.17255 76.247785 173.07198 76.247785 173.79049 C 76.247785 174.50904 76.043862 175.47807 75.794582 175.94384 C 75.545312 176.40962 75.165566 176.79082 74.950706 176.79082 C 74.735866 176.79082 74.151664 176.27136 73.652594 175.63689 C 73.153504 175.00242 72.745156 174.15969 72.745156 173.76413 C 72.745156 173.36858 73.051898 172.60743 73.426768 172.07225 C 73.801608 171.53707 74.469769 171.09918 74.911949 171.09918 z " /><path
       id="path1-5-2"
       style="fill:#000000;fill-opacity:0.189189;stroke-width:1.52162"
       d="m 167.28194,159.3533 c 0.51122,0.0225 1.19966,0.34079 1.63402,0.77515 0.72176,0.72176 0.90279,1.45876 0.90279,3.67884 0,1.52694 -0.28665,3.72817 -0.63666,4.89117 -0.35002,1.16298 -0.53803,2.27341 -0.41806,2.46755 0.11998,0.19413 0.002,1.15523 -0.262,2.13631 -0.16822,0.62467 -0.81202,2.07182 -1.64281,3.73672 h -0.71469 l 2.03865,-3.79718 -0.39016,-4.4633 -0.39016,-4.46329 -1.84589,2.78691 -1.84589,2.78743 1.41181,0.94878 c 1.14551,0.76942 1.437,1.2839 1.54358,2.72748 0.10597,1.43556 -0.0831,1.98305 -0.97772,2.83187 -0.20661,0.19603 -0.40076,0.41783 -0.56741,0.6413 h -1.849 c -0.0662,-0.0854 -0.13769,-0.16116 -0.21187,-0.22272 -0.34572,-0.28694 -0.75171,-1.08276 -0.90228,-1.76837 -0.15059,-0.68563 -0.0462,-2.10044 0.23203,-3.144 0.27821,-1.04356 1.21931,-3.07668 2.09136,-4.51807 0.87203,-1.44141 2.25613,-3.36275 3.0758,-4.27002 1.23213,-1.36381 1.39629,-1.76307 0.94671,-2.30477 -0.29907,-0.36036 -0.80732,-0.65526 -1.12965,-0.65526 -0.32233,0 -1.01113,0.44317 -1.53066,0.98496 -0.51954,0.5418 -1.83231,2.24922 -2.40762,4.00027 -0.62044,1.88835 -0.55337,2.39967 -1.04749,4.72426 -0.2076,0.97666 -0.46568,3.16323 -0.99012,5.94279 -0.0829,0.43922 -0.13457,0.85098 -0.16176,1.23093 h -0.53382 l 2.68306,-14.4694 c 0.21883,-0.10885 0.73367,-0.42899 1.24644,-1.10071 0.82719,-1.08362 1.926,-2.03143 2.44224,-2.10633 0.0645,-0.009 0.1342,-0.0125 0.20723,-0.009 z m -3.89591,3.21634 c -0.0625,0.0311 -0.10259,0.0457 -0.10955,0.0455 h -5.2e-4 l -5.2e-4,-5.2e-4 v -5.2e-4 h 5.2e-4 v -5.2e-4 c 0.004,-0.005 0.0392,-0.0227 0.1111,-0.0501 z m 5.54026,0.31161 c -0.0388,-0.002 -0.0815,0.004 -0.12764,0.0196 -0.2817,0.0924 -0.57494,0.91787 -0.65164,1.83399 -0.0766,0.91612 0.0714,1.87597 0.32866,2.13321 0.3317,0.3317 0.47747,0.0285 0.50127,-1.04283 0.0185,-0.83077 0.10065,-1.86613 0.18345,-2.30116 0.0731,-0.38484 -0.0244,-0.63304 -0.2341,-0.64285 z m -4.77699,8.22017 c -0.4422,0 -0.92359,0.31157 -1.06971,0.69246 -0.14609,0.38091 -0.26614,1.28034 -0.26614,1.99885 0,0.71855 0.20393,1.68758 0.45321,2.15335 0.24927,0.46578 0.62902,0.84698 0.84388,0.84698 0.21484,0 0.79904,-0.51946 1.29812,-1.15393 0.49909,-0.63447 0.90744,-1.4772 0.90744,-1.87276 0,-0.39555 -0.30674,-1.1567 -0.68161,-1.69188 -0.37485,-0.53518 -1.04301,-0.97307 -1.48519,-0.97307 z" /><path
       d="m 50.144983,226.02476 c -0.19323,-0.56547 -0.5298,-0.71461 -1.16077,-0.51433 -0.6534,0.20737 -1.29141,-0.1208 -2.41017,-1.2395 -0.97111,-0.97111 -1.53957,-1.97293 -1.57135,-2.76933 -0.0275,-0.68628 -0.0766,-2.33138 -0.10938,-3.6558 -0.0513,-2.07514 -0.43473,-3.08577 -2.77311,-7.31109 -1.4924,-2.6967 -2.92961,-5.7058 -3.1938,-6.68687 -0.26417,-0.98108 -0.38214,-1.94263 -0.26216,-2.13676 0.11997,-0.19414 -0.0682,-1.30451 -0.41822,-2.46749 -0.35001,-1.163 -0.63639,-3.36384 -0.63639,-4.89078 0,-2.22008 0.18082,-2.95704 0.90258,-3.6788 0.4964,-0.49641 1.32494,-0.84119 1.84118,-0.76619 0.51624,0.0749 1.61539,1.02296 2.44257,2.10658 0.82718,1.0836 1.66367,1.25412 1.24549,1.09454 m 2.67855,15.32372 1.40016,6.3484 m 1.3142,9.74164 c 0.002,-0.1806 -0.71209,-3.33291 -1.58688,-7.00513 l -1.59052,-6.67677 h -1.00878 c -0.55482,0 -1.31837,-0.3096 -1.69679,-0.688 -0.37839,-0.37841 -0.6914,-1.01872 -0.69556,-1.42292 -0.005,-0.40421 -0.50656,-1.20836 -1.11644,-1.78704 -0.89461,-0.84882 -1.0835,-1.39598 -0.97753,-2.83154 0.10658,-1.44358 0.39784,-1.9584 1.54335,-2.72782 l 1.41199,-0.94839 -1.84598,-2.78737 -1.84597,-2.78736 -0.38997,4.46334 -0.38995,4.46336 3.1225,5.81611 3.12249,5.81612 v 2.71719 c 0,1.49446 0.18916,3.21469 0.42035,3.82276 0.23118,0.60807 0.82224,1.50747 1.31345,1.99869 0.49122,0.49123 1.18865,0.89314 1.54986,0.89314 0.3612,0 0.65836,-0.14777 0.66038,-0.32837 z m -3.40435,-18.16935 c -0.52444,-2.77956 -0.78268,-4.96628 -0.99028,-5.94294 -0.49412,-2.32459 -0.42731,-2.83567 -1.04774,-4.72402 -0.57531,-1.75105 -1.88769,-3.45844 -2.40722,-4.00024 -0.51953,-0.54179 -1.20832,-0.98509 -1.53065,-0.98509 -0.32233,0 -0.83076,0.29483 -1.12983,0.65519 -0.44957,0.5417 -0.28562,0.94094 0.94651,2.30475 0.81966,0.90727 2.20378,2.82889 3.07581,4.2703 0.87204,1.44139 1.81315,3.47453 2.09136,4.51809 0.27821,1.04356 0.38262,2.45833 0.23203,3.14396 -0.15057,0.68561 -0.55665,1.48131 -0.90237,1.76825 -0.34572,0.28691 -0.62858,0.88179 -0.62858,1.32195 0,0.44016 0.34478,1.00109 0.76618,1.24654 0.4214,0.24545 0.9632,0.45236 1.204,0.45979 0.26946,0.009 0.78312,-1.5861 0.32078,-4.03653 z m -1.86856,0.13803 c 0.24928,-0.46577 0.45323,-1.43476 0.45323,-2.15331 0,-0.71851 -0.11965,-1.61806 -0.26574,-1.99897 -0.14612,-0.38089 -0.62755,-0.69253 -1.06974,-0.69253 -0.44218,0 -1.11067,0.43788 -1.48551,0.97306 -0.37487,0.53518 -0.68157,1.29668 -0.68157,1.69223 0,0.39556 0.40833,1.23831 0.90742,1.87278 0.49907,0.63447 1.08321,1.15359 1.29805,1.15359 0.21486,0 0.59459,-0.38107 0.84386,-0.84685 z m -4.8802,-11.21118 c -0.0767,-0.91612 -0.3698,-1.74132 -0.6515,-1.83375 -0.29534,-0.097 -0.44853,0.16678 -0.36185,0.62289 0.0828,0.43503 0.16531,1.47067 0.18379,2.30144 0.0238,1.07131 0.16949,1.3745 0.50119,1.0428 0.25724,-0.25724 0.40501,-1.21726 0.32837,-2.13338 z"
       style="fill:#000000;stroke-width:1.65475"
       id="path1-5-1"
       sodipodi:nodetypes="csscssssssscscccsscsscssscccccccsssssssssssssssssscsssssssssssccsss" /></g></svg>
