<?xml version="1.0" encoding="UTF-8" standalone="no"?>
<!-- Created with Inkscape (http://www.inkscape.org/) -->

<svg
   width="115.51667mm"
   height="82.952599mm"
   viewBox="0 0 115.51667 82.952599"
   version="1.1"
   id="svg1"
   xml:space="preserve"
   inkscape:version="1.4.3 (0d15f75, 2025-12-25)"
   sodipodi:docname="faces.svg"
   xmlns:inkscape="http://www.inkscape.org/namespaces/inkscape"
   xmlns:sodipodi="http://sodipodi.sourceforge.net/DTD/sodipodi-0.dtd"
   xmlns="http://www.w3.org/2000/svg"
   xmlns:svg="http://www.w3.org/2000/svg"><sodipodi:namedview
     id="namedview1"
     pagecolor="#ffffff"
     bordercolor="#000000"
     borderopacity="0.25"
     inkscape:showpageshadow="2"
     inkscape:pageopacity="0.0"
     inkscape:pagecheckerboard="0"
     inkscape:deskcolor="#d1d1d1"
     inkscape:document-units="mm"
     inkscape:zoom="2.0334082"
     inkscape:cx="343.75784"
     inkscape:cy="652.84483"
     inkscape:window-width="1920"
     inkscape:window-height="1009"
     inkscape:window-x="-8"
     inkscape:window-y="-8"
     inkscape:window-maximized="1"
     inkscape:current-layer="layer1"><inkscape:page
       x="0"
       y="0"
       width="115.51667"
       height="82.952599"
       id="page2"
       margin="0"
       bleed="0" /></sodipodi:namedview><defs
     id="defs1" /><g
     inkscape:label="Layer 1"
     inkscape:groupmode="layer"
     id="layer1"
     transform="translate(-62.277578,-94.000009)"><rect
       style="fill:none;fill-opacity:0.167076;stroke:none;stroke-width:0.043;stroke-linejoin:bevel;stroke-dasharray:none;stroke-opacity:0.189189"
       id="rect1-8"
       width="115.51668"
       height="82.952599"
       x="62.277576"
       y="94"
       inkscape:export-filename="Yfeatures.svg"
       inkscape:export-xdpi="96"
       inkscape:export-ydpi="96" /><path
       style="fill:none;fill-opacity:0.761671;stroke:#000000;stroke-width:0.85;stroke-linejoin:bevel;stroke-dasharray:none;stroke-opacity:0.189189"
       d="m 79.126394,176.65427 c -5.861707,-17.22095 -8.556599,-41.01065 1.104088,-56.67658 7.863436,-12.75148 24.769718,-21.307006 39.747208,-20.977691 17.48009,0.38434 35.1006,12.253721 41.95539,28.338291 6.31089,14.80831 1.97584,36.64514 -1.10409,49.10909"
       id="path5"
       sodipodi:nodetypes="cccsc" /><path
       d="m 113.46921,176.10411 c 0.15868,-1.25316 0.4305,-0.9589 0.60401,-1.28636 0.17352,-0.32746 0.25629,-0.46172 0.18395,0.99515 m 12.70832,0.14751 -0.16797,-2.73638 0.61314,2.90988 m -10.41396,0.17216 c 0.15356,-0.60201 0.39896,-1.13374 0.54516,-5.70897 0.24027,-7.51858 0.30302,-8.0256 0.65245,-5.27192 0.21265,1.67567 0.26878,5.02499 0.12477,7.44296 -0.14396,2.41794 -0.56333,2.10785 -0.9318,3.19147 -0.36844,1.0836 -0.54421,0.94847 -0.39058,0.34646 z m 6.34122,-0.35393 c -1.39766,0 -0.48899,-3.18609 -0.47513,-5.97534 0.0133,-2.78926 0.18456,-5.85944 0.37927,-6.82265 0.21853,-1.08097 0.27198,0.25963 0.13966,3.50257 -0.11798,2.88961 0.005,7.0134 0.27127,9.16393 0.26712,2.15055 0.41809,0.27351 0.3355,0.3561 -0.0825,0.0825 0.74711,-0.22461 -0.65055,-0.22461 z m -27.066709,-8.62175 c -0.7654,-0.18224 -2.05439,-0.72234 -2.86441,-1.20027 -1.32829,-0.7837 -1.5687,-0.80521 -2.45102,-0.21938 -0.53806,0.35725 -1.07927,0.54857 -1.20269,0.42515 -0.12345,-0.12345 0.86826,-1.32584 2.20375,-2.67203 1.82175,-1.83637 2.99396,-2.61565 4.69382,-3.12046 1.24614,-0.37006 3.30526,-0.67283 4.575839,-0.67283 1.88304,0 2.98137,0.35411 5.94057,1.91534 2.4226,1.27812 3.63043,2.16863 3.63043,2.67668 0,0.57586 -0.74672,0.95296 -3.06475,1.54774 -1.68561,0.43252 -3.61938,1.00119 -4.29725,1.2637 -0.67789,0.26251 -2.25405,0.45713 -3.502579,0.4325 -1.24853,-0.0247 -2.8963,-0.19392 -3.66171,-0.37614 z m 7.732269,-1.19165 c 1.37618,-0.44447 2.55774,-1.15803 2.97697,-1.79785 l 0.69513,-1.0609 -1.06596,-0.80559 c -0.58628,-0.44308 -1.3947,-0.89203 -1.79647,-0.99767 -0.60536,-0.15918 -0.69018,0.0562 -0.4952,1.25782 0.18827,1.16021 0.01,1.67501 -0.89143,2.5766 -0.85535,0.85535 -1.57288,1.12672 -2.97915,1.12672 -1.299349,0 -2.154979,-0.28422 -2.865739,-0.95196 -0.66524,-0.62497 -1.01333,-1.4521 -1.01333,-2.40802 0,-0.80082 -0.1082,-1.45605 -0.24065,-1.45605 -0.13238,0 -0.78701,0.28255 -1.45479,0.62786 -0.66779,0.34533 -1.4702,0.9364 -1.78315,1.31347 -0.45637,0.54989 -0.46059,0.81622 -0.0213,1.34548 0.30121,0.36291 1.45821,0.94026 2.5711,1.28297 1.11286,0.34269 2.93663,0.63681 4.05278,0.65357 1.116149,0.0168 3.056219,-0.30113 4.311249,-0.70645 z m -1.02426,-1.70499 c 0.55826,-0.85202 0.63919,-1.41513 0.33032,-2.29855 -0.34301,-0.98114 -0.70554,-1.19169 -2.24496,-1.30391 -1.00974,-0.0736 -2.237449,0.0811 -2.728249,0.34378 -0.58229,0.31165 -0.89238,0.91776 -0.89238,1.74436 0,0.69674 0.30961,1.57639 0.68802,1.9548 0.39057,0.39057 1.4272,0.688 2.397899,0.688 1.35452,0 1.86363,-0.23456 2.44935,-1.12848 z m 6.51001,-0.45423 c -0.43501,-0.3181 -0.95892,-0.47451 -1.16424,-0.34761 -0.20534,0.12692 -0.37334,0.4873 -0.37334,0.80089 0,0.38121 0.38587,0.49642 1.16426,0.34762 l 1.16425,-0.22257 z m 26.26404,2.65563 c -1.6856,-0.56582 -3.60654,-1.03872 -4.26874,-1.05084 -0.95349,-0.0175 -1.2018,-0.22706 -1.19333,-1.00718 0.009,-0.80126 0.74077,-1.34353 3.92308,-2.9059 l 3.91241,-1.9208 2.97259,0.21338 c 1.77739,0.12759 3.67672,0.57761 4.72387,1.11924 0.96319,0.49824 2.72897,1.9069 3.92392,3.13035 1.19497,1.22346 1.90004,2.22447 1.56686,2.22447 -0.33319,0 -0.96611,-0.32606 -1.40647,-0.72458 l -1.63489,0.0304 c -0.45884,0.41525 -1.77078,1.03684 -2.91542,1.38132 -1.14467,0.34449 -3.08421,0.60668 -4.31015,0.58266 -1.22595,-0.024 -3.60811,-0.50665 -5.29373,-1.0725 z m 10.84749,-0.95437 c 0.77474,-0.45249 1.46088,-1.10755 1.52471,-1.45571 0.0638,-0.34816 -0.53875,-1.07632 -1.33911,-1.61812 -0.80037,-0.54182 -1.65518,-0.98511 -1.89958,-0.98511 -0.24439,0 -0.3644,0.54471 -0.26669,1.21048 0.11534,0.78554 -0.15307,1.63083 -0.76434,2.40801 -0.77557,0.98594 -1.28799,1.19754 -2.90031,1.19754 -1.5168,0 -2.21075,-0.25243 -3.07793,-1.11962 -0.8737,-0.87369 -1.08098,-1.45071 -0.94366,-2.62693 0.0968,-0.82901 0.0679,-1.50657 -0.0645,-1.50566 -0.13222,9e-4 -0.88077,0.39205 -1.66338,0.86922 -0.7826,0.47716 -1.42291,1.13545 -1.42291,1.46286 0,0.32743 0.35784,0.91917 0.79522,1.31499 0.43737,0.3958 1.57023,1.0165 2.51746,1.3793 1.17752,0.451 2.73032,0.6014 4.90932,0.47553 2.04351,-0.11799 3.69248,-0.47931 4.59568,-1.00678 z m -3.54847,-0.84314 c 0.44036,-0.39851 0.80067,-1.17252 0.80067,-1.72 0,-0.54749 -0.3096,-1.30502 -0.68802,-1.68343 -0.4085,-0.40853 -1.44007,-0.688 -2.53935,-0.688 -1.01825,0 -2.08779,0.23642 -2.37674,0.52539 -0.28897,0.28895 -0.52539,1.01226 -0.52539,1.60735 0,0.59507 0.32608,1.44226 0.72459,1.88262 0.44026,0.48648 1.32867,0.80066 2.26408,0.80066 0.84673,0 1.8998,-0.32605 2.34016,-0.72459 z m -9.95941,-0.73709 c -0.22486,-0.58602 -0.43886,-0.62108 -1.21431,-0.19896 l -0.94132,0.51243 1.09455,0.28386 c 0.60201,0.15621 1.14844,0.24566 1.21431,0.19896 0.0659,-0.0467 -0.003,-0.40504 -0.15323,-0.79629 z m -42.401599,-1.28587 c 0.93663,-1.14999 2.4772,-2.62761 3.42351,-3.28367 l 1.72054,-1.19282 h 4.635239 4.63525 l 3.43855,1.64184 c 1.89121,0.903 2.51034,1.05093 4.48303,2.01373 -0.16558,0.26793 -0.73872,0.29822 -1.46953,0.0778 -0.65896,-0.19884 -2.38022,-0.90678 -3.82504,-1.57322 -2.1238,-0.97962 -3.43088,-1.24882 -6.82449,-1.40557 -3.373529,-0.15588 -4.490859,-0.0463 -5.691659,0.55753 -0.82177,0.4133 -2.55932,1.7648 -3.86121,3.00335 l -2.36706,2.25193 z m 59.281669,-0.10788 c -1.06868,-1.08892 -2.7956,-2.39257 -3.83757,-2.89697 -1.62383,-0.78607 -2.46954,-0.88868 -5.91939,-0.71808 -3.36795,0.16653 -4.63232,0.45599 -7.74637,1.77333 -2.22096,0.93954 -3.58729,1.12225 -4.18842,0.77301 0.76445,-0.35443 1.67566,-0.35431 4.0919,-1.54315 2.88099,-1.44782 3.89747,-1.7262 6.88277,-1.88494 1.98814,-0.10571 4.34621,0.0415 5.45375,0.34059 1.42732,0.38541 2.72033,1.27774 4.81602,3.32368 4.14692,4.04839 2.64205,3.06876 0.44734,0.83253 z m -32.82706,-1.0849 c 0,-0.32106 0.13138,-0.45241 0.29189,-0.29188 0.1605,0.16051 0.1605,0.42324 0,0.58377 -0.16052,0.16051 -0.29189,0.0291 -0.29189,-0.29189 z"
       style="fill:#000000;fill-opacity:0.189189;stroke-width:1.52162"
       id="path1-6"
       sodipodi:nodetypes="cscccccsscscscsccsssssssssssssscscscssscsssssssscccsssssssssssscssccscsssssssssssssccsssssssscssscsssssssccccsccscccsscsccsccssssscssssssssss" /></g></svg>
