<?xml version="1.0" encoding="UTF-8" standalone="no"?>
<!-- Created with Inkscape (http://www.inkscape.org/) -->

<svg
   width="115.99999mm"
   height="83.995789mm"
   viewBox="0 0 115.99999 83.995789"
   version="1.1"
   id="svg1"
   xml:space="preserve"
   inkscape:version="1.4.3 (0d15f75, 2025-12-25)"
   sodipodi:docname="faces.svg"
   xmlns:inkscape="http://www.inkscape.org/namespaces/inkscape"
   xmlns:sodipodi="http://sodipodi.sourceforge.net/DTD/sodipodi-0.dtd"
   xmlns="http://www.w3.org/2000/svg"
   xmlns:svg="http://www.w3.org/2000/svg"><sodipodi:namedview
     id="namedview1"
     pagecolor="#ffffff"
     bordercolor="#000000"
     borderopacity="0.25"
     inkscape:showpageshadow="2"
     inkscape:pageopacity="0.0"
     inkscape:pagecheckerboard="0"
     inkscape:deskcolor="#d1d1d1"
     inkscape:document-units="mm"
     inkscape:zoom="2.0334082"
     inkscape:cx="343.75784"
     inkscape:cy="652.84483"
     inkscape:window-width="1920"
     inkscape:window-height="1009"
     inkscape:window-x="-8"
     inkscape:window-y="-8"
     inkscape:window-maximized="1"
     inkscape:current-layer="layer1"><inkscape:page
       x="1.2440648e-38"
       y="0"
       width="115.99999"
       height="83.995789"
       id="page2"
       margin="0"
       bleed="0" /></sodipodi:namedview><defs
     id="defs1" /><g
     inkscape:label="Layer 1"
     inkscape:groupmode="layer"
     id="layer1"
     transform="translate(-183,-92.956814)"><rect
       style="fill:none;fill-opacity:0.761671;stroke:none;stroke-width:0.0430899;stroke-linejoin:bevel;stroke-dasharray:none"
       id="rect1-2"
       width="116"
       height="82.952599"
       x="183"
       y="94"
       inkscape:export-filename="Zfeatures.svg"
       inkscape:export-xdpi="96"
       inkscape:export-ydpi="96" /><path
       d="m 242.12747,93.592872 c 0.56557,0.240124 1.22373,0.96824 1.97739,2.187527 0.62132,1.005187 1.70219,2.369542 2.40194,3.031894 0.93321,0.883322 2.36426,1.704147 5.36971,3.079917 2.40164,1.09939 4.64928,2.33386 5.43084,2.98281 0.73339,0.60896 2.12109,2.08371 3.08379,3.27723 0.96268,1.19351 2.44754,3.52505 3.29967,5.18119 1.27366,2.4754 1.80699,3.99141 2.99759,8.52068 0.79655,3.03026 1.65335,5.72791 1.90397,5.99479 0.25063,0.26687 0.72549,0.98826 1.05521,1.60307 0.36478,0.68012 0.70114,2.02843 0.85904,3.44345 0.14274,1.27909 0.5217,3.75886 0.84213,5.51062 0.32043,1.75175 0.9024,4.18648 1.29324,5.4105 0.39085,1.22404 0.71063,2.61304 0.71063,3.08669 0,0.61486 -0.21297,1.01822 -0.74455,1.41018 -0.40952,0.30194 -0.96617,0.54898 -1.23702,0.54898 -0.27085,0 -0.61764,-0.14901 -0.77066,-0.3311 -0.15303,-0.18211 -0.38099,-0.68869 -0.5066,-1.12574 -0.20017,-0.69655 -0.25774,-0.56891 -0.4663,1.03383 -0.13087,1.00567 -0.43619,2.54569 -0.67852,3.42228 -0.24232,0.87656 -0.82802,2.31848 -1.30156,3.20423 -0.47353,0.88576 -1.48496,2.40392 -2.24764,3.37369 -0.76267,0.96975 -1.92387,2.20445 -2.58046,2.74378 -0.65658,0.53933 -1.51168,1.24299 -1.90022,1.56373 -0.38856,0.32072 -1.30928,0.9683 -2.04606,1.43908 -0.73678,0.47078 -2.38988,1.3253 -3.67354,1.89897 -1.28368,0.57368 -3.54199,1.34107 -5.01847,1.70534 -1.47649,0.36426 -4.21045,0.78721 -6.07549,0.93984 -2.39903,0.19636 -4.36783,0.19343 -6.73041,-0.0101 -1.83668,-0.15816 -4.25666,-0.50747 -5.37773,-0.77624 -1.12106,-0.26876 -3.05167,-0.85626 -4.29024,-1.30555 -1.23856,-0.44929 -3.26077,-1.42435 -4.49378,-2.16678 -1.23302,-0.74245 -3.12282,-2.14453 -4.19958,-3.11578 -1.07676,-0.97124 -2.50058,-2.48105 -3.16407,-3.35518 -0.66348,-0.87409 -1.54952,-2.22976 -1.96897,-3.01254 -0.41944,-0.78282 -0.99782,-2.33238 -1.28529,-3.44347 -0.28747,-1.11107 -0.61663,-2.73534 -0.73145,-3.60945 l -0.20878,-1.58928 -0.19547,1.02089 c -0.10751,0.5615 -0.37229,1.12886 -0.5884,1.26082 -0.21611,0.13198 -0.71083,0.17263 -1.09938,0.0904 -0.38853,-0.0823 -0.8654,-0.34463 -1.05967,-0.58303 -0.19428,-0.23838 -0.35322,-0.86644 -0.35322,-1.39565 0,-0.52924 0.30147,-1.907 0.66995,-3.06172 0.36848,-1.15474 0.93966,-3.64907 1.26931,-5.54296 0.32965,-1.8939 0.72389,-4.4261 0.87609,-5.62711 0.15221,-1.20101 0.48603,-2.57176 0.74182,-3.04612 0.25578,-0.47436 0.70946,-1.1135 1.0082,-1.4203 0.35314,-0.3627 0.97524,-2.26214 1.77844,-5.43006 0.67941,-2.67971 1.54695,-5.64699 1.92785,-6.59393 0.38088,-0.94694 1.15176,-2.57651 1.71308,-3.62123 0.5613,-1.04474 1.96507,-3.07107 3.11948,-4.50298 1.1544,-1.43191 2.72361,-3.04631 3.48714,-3.58753 0.76354,-0.54125 2.27034,-1.35055 3.34844,-1.79846 1.0781,-0.44791 2.77326,-1.19704 3.76702,-1.66473 0.99376,-0.46768 2.32956,-1.327139 2.96846,-1.909873 0.6389,-0.58274 1.69441,-1.903627 2.34559,-2.935293 0.65116,-1.031679 1.37037,-2.02082 1.59825,-2.198084 0.22787,-0.177272 0.83894,-0.37715 1.35793,-0.44419 0.51896,-0.06708 1.32507,0.04006 1.79133,0.238024 z m -2.57385,0.555333 c -0.31914,0.209536 -1.29655,1.440077 -2.17199,2.73455 -0.87544,1.294477 -1.67791,2.564067 -1.78322,2.821331 l -0.19148,0.467764 1.66478,-0.222393 c 0.91563,-0.122322 2.55492,-0.222399 3.64286,-0.222399 1.08793,0 2.70924,0.09805 3.6029,0.217714 1.30357,0.174678 1.62484,0.145638 1.62484,-0.146869 0,-0.200527 -0.71145,-1.430852 -1.581,-2.734084 -0.86953,-1.303222 -1.83733,-2.578091 -2.15065,-2.833037 -0.31331,-0.254952 -0.90877,-0.463544 -1.32324,-0.463544 -0.41445,0 -1.01467,0.171445 -1.3338,0.380967 z m 6.95384,5.945275 c 0,0.12869 0.26159,0.29811 0.58132,0.37648 0.47699,0.11691 0.52149,0.075 0.24798,-0.23398 -0.18333,-0.20706 -0.44492,-0.376482 -0.58131,-0.376482 -0.13638,0 -0.24799,0.105287 -0.24799,0.233982 z m -12.60242,0.49065 c 0.0483,0.0453 0.29693,0.007 0.5523,-0.0845 0.25538,-0.0919 0.46431,-0.27447 0.46431,-0.40581 0,-0.131328 -0.24853,-0.0933 -0.5523,0.0845 -0.30377,0.17784 -0.51271,0.36044 -0.46431,0.40581 z m 3.37006,-0.0636 c -1.42545,0.21671 -3.65077,0.70702 -4.94515,1.08954 -1.29441,0.38254 -3.12788,1.04879 -4.07439,1.48056 -0.94653,0.43177 -2.33819,1.22236 -3.09259,1.75685 -0.75439,0.53452 -2.24597,2.04461 -3.31461,3.35576 -1.06864,1.31116 -2.56462,3.5759 -3.32438,5.03275 -0.75977,1.45684 -1.69077,3.66196 -2.06891,4.90028 -0.37812,1.23831 -1.27143,4.695 -1.98511,7.68153 -0.71369,2.98653 -1.56985,6.92001 -1.90258,8.74107 -0.52369,2.86617 -0.58316,3.95155 -0.44275,8.07885 0.0892,2.62231 0.36125,5.81759 0.60451,7.10062 0.24327,1.28302 0.75074,3.04426 1.12771,3.91389 0.37696,0.86963 1.2778,2.4164 2.00182,3.43729 0.72405,1.02088 2.10502,2.60634 3.06884,3.52323 0.96384,0.91691 2.50896,2.14827 3.43361,2.73639 0.92465,0.58814 2.57131,1.48861 3.65926,2.00104 1.08793,0.51244 2.99534,1.23015 4.2387,1.59489 1.24336,0.36476 3.21435,0.82019 4.38,1.0121 1.16565,0.1919 4.02676,0.34385 6.35807,0.33766 2.33129,-0.006 5.06525,-0.15688 6.07548,-0.33486 1.01021,-0.17798 2.7269,-0.5668 3.81484,-0.86406 1.08793,-0.29725 2.89899,-0.93732 4.02457,-1.42238 1.12556,-0.48505 2.92306,-1.43318 3.99444,-2.10697 1.07137,-0.67378 2.8343,-2.08252 3.91765,-3.13054 1.08335,-1.04799 2.447,-2.60552 3.03036,-3.46114 0.58335,-0.8556 1.36942,-2.21012 1.74681,-3.01002 0.37739,-0.79988 0.8758,-2.29943 1.1076,-3.3323 0.23178,-1.03285 0.55629,-3.73104 0.72111,-5.99593 0.16482,-2.26488 0.22082,-5.01192 0.12442,-6.10455 -0.0963,-1.09265 -0.37425,-3.11897 -0.6175,-4.50298 -0.24324,-1.384 -1.12142,-5.33517 -1.9515,-8.78037 -0.83009,-3.44519 -1.85185,-7.19988 -2.27059,-8.34373 -0.41876,-1.14385 -1.20704,-2.91411 -1.75175,-3.93392 -0.54471,-1.01978 -1.49292,-2.54837 -2.10711,-3.39683 -0.61418,-0.84848 -1.9472,-2.36792 -2.96223,-3.37649 -1.39024,-1.38141 -2.40416,-2.09592 -4.10999,-2.89623 -1.24545,-0.58433 -3.29676,-1.35647 -4.55845,-1.71588 -1.26169,-0.35943 -3.31126,-0.82454 -4.55462,-1.03362 -1.24335,-0.20905 -2.83287,-0.39032 -3.53225,-0.40281 -0.69939,-0.0125 -2.43789,0.1546 -3.86334,0.37131 z m 31.98814,32.08194 c 0.45484,2.2858 0.82936,5.4328 0.98937,8.31354 0.14161,2.54946 0.26125,5.05959 0.26584,5.57806 0.004,0.51849 0.18518,1.16934 0.40129,1.44637 0.33728,0.43237 0.4973,0.4591 1.13031,0.18874 0.58092,-0.24811 0.73741,-0.503 0.73741,-1.20102 0,-0.48734 -0.31978,-1.88755 -0.71062,-3.11159 -0.39086,-1.22402 -0.97378,-3.65876 -1.29536,-5.4105 -0.3216,-1.75176 -0.68837,-4.19871 -0.81505,-5.43767 -0.12667,-1.23897 -0.45668,-2.69763 -0.73336,-3.24146 -0.27666,-0.54384 -0.54772,-0.94689 -0.60236,-0.89569 -0.0546,0.0512 0.23,1.74826 0.63253,3.77122 z m -56.93408,-2.74525 c -0.28567,0.61917 -0.60866,2.07932 -0.71772,3.2448 -0.10907,1.16546 -0.50247,3.7282 -0.8742,5.69493 -0.37174,1.96673 -0.93174,4.33149 -1.24444,5.25499 -0.31271,0.92351 -0.56855,2.14107 -0.56855,2.70571 0,0.76837 0.14771,1.10069 0.58724,1.3212 0.32298,0.16202 0.75023,0.23597 0.94943,0.1643 0.1992,-0.0717 0.44615,-0.72357 0.54878,-1.4487 0.10263,-0.72514 0.30307,-3.56619 0.44546,-6.31346 0.15449,-2.98115 0.4996,-6.16978 0.85595,-7.90873 0.32839,-1.60254 0.66297,-3.12229 0.74351,-3.37723 0.0806,-0.25495 0.0671,-0.46354 -0.0298,-0.46354 -0.0969,0 -0.40996,0.50659 -0.69564,1.12573 z"
       style="fill:none;fill-opacity:0.761671;stroke:#000000;stroke-width:0.749324;stroke-linejoin:bevel;stroke-dasharray:none;stroke-opacity:0.189189"
       id="path1-88" /></g></svg>
